{"glyphs":{"0":{"ha":638,"x_min":53,"x_max":610,"o":"m 278 -8 q 113 80 174 -8 q 53 353 53 168 q 60 486 53 425 q 173 860 86 739 q 382 981 260 981 q 548 892 486 981 q 610 622 610 804 q 601 486 610 561 q 488 113 575 233 q 278 -8 401 -8 m 289 92 q 408 185 356 92 q 481 486 460 278 q 489 633 489 569 q 457 822 489 763 q 372 881 425 881 q 254 788 304 881 q 182 486 204 696 q 174 338 174 401 q 289 92 174 92 z "},"1":{"ha":638,"x_min":42,"x_max":561,"o":"m 67 0 q 42 28 42 0 q 43 42 42 36 l 44 58 q 76 100 49 100 l 261 100 l 340 849 l 132 815 q 116 831 121 815 q 111 868 111 847 l 113 886 q 120 903 114 897 q 140 913 126 910 l 426 975 q 456 967 443 975 q 467 946 468 958 l 378 100 l 535 100 q 555 90 549 100 q 558 58 561 81 l 557 42 q 547 10 554 19 q 525 0 539 0 l 67 0 z "},"2":{"ha":638,"x_min":-1,"x_max":610,"o":"m 24 0 q 5 20 11 0 q 1 61 -1 40 q 10 85 4 79 l 385 549 q 463 658 442 621 q 488 739 483 696 q 489 758 489 746 q 451 849 489 817 q 347 881 414 881 q 256 865 293 881 q 182 824 218 849 q 151 807 158 807 q 127 832 142 807 q 113 875 113 857 q 153 926 113 901 q 252 965 193 950 q 363 981 311 981 q 542 926 474 981 q 610 776 610 871 q 608 749 610 758 q 583 652 603 696 q 518 549 564 608 q 375 378 472 489 l 158 99 l 517 99 q 537 89 531 99 q 540 57 543 79 l 539 42 q 528 10 536 19 q 507 0 521 0 l 24 0 z "},"3":{"ha":638,"x_min":-7,"x_max":575,"o":"m 232 -8 q 115 3 169 -8 q 26 33 60 15 q -7 69 -7 51 q 15 114 -7 88 q 49 140 36 140 q 64 136 54 140 q 79 129 74 132 q 144 102 110 113 q 225 92 178 92 q 363 136 300 92 q 436 286 425 181 q 438 319 438 297 q 390 433 438 400 q 257 467 343 467 l 201 467 q 181 476 188 467 q 178 508 175 486 l 179 524 q 211 565 183 565 l 261 565 q 373 600 329 565 q 437 681 417 635 q 457 761 457 726 q 424 846 457 811 q 314 881 392 881 q 238 871 269 881 q 174 844 206 861 q 147 835 154 835 q 122 861 136 835 q 108 906 108 888 q 185 958 108 935 q 331 981 263 981 q 510 926 446 981 q 575 774 575 872 q 410 543 575 610 l 408 538 q 514 463 469 519 q 558 314 558 406 q 557 278 558 290 q 501 122 547 186 q 384 24 454 57 q 232 -8 314 -8 z "},"4":{"ha":638,"x_min":10,"x_max":610,"o":"m 399 -3 q 361 28 357 -3 l 382 232 l 39 232 q 19 257 28 232 q 13 303 10 282 q 18 318 14 313 l 457 957 q 506 975 471 975 l 533 975 q 572 944 575 975 l 508 332 l 586 332 q 610 304 610 332 q 608 290 610 296 l 607 274 q 575 232 603 232 l 497 232 l 476 28 q 431 -3 472 -3 l 399 -3 m 393 332 l 422 610 q 451 779 432 699 l 447 782 l 142 332 l 393 332 z "},"5":{"ha":638,"x_min":17,"x_max":593,"o":"m 239 -8 q 124 4 175 -8 q 45 36 74 17 q 17 74 17 56 q 38 119 17 93 q 72 144 60 144 q 101 132 79 144 q 168 102 138 113 q 244 92 199 92 q 344 118 297 92 q 421 197 392 144 q 450 322 450 250 q 398 444 450 403 q 246 486 346 486 l 142 486 q 112 496 119 486 q 107 528 104 506 l 174 931 q 222 972 179 972 l 567 972 q 587 963 581 972 q 590 931 593 953 l 589 914 q 578 882 586 892 q 557 872 571 872 l 281 872 l 232 586 l 293 586 q 489 528 407 586 q 571 335 571 469 q 568 292 571 322 q 457 61 551 131 q 239 -8 363 -8 z "},"6":{"ha":638,"x_min":46,"x_max":593,"o":"m 276 -7 q 104 65 163 -7 q 46 268 46 138 q 50 338 46 303 q 168 669 69 525 q 382 894 267 814 q 553 975 497 975 q 583 947 572 975 q 592 901 593 919 q 579 886 588 890 q 348 735 440 829 q 210 517 256 640 q 372 563 282 563 q 522 498 464 563 q 579 326 579 433 q 576 283 579 314 q 525 130 567 196 q 418 28 483 64 q 276 -7 353 -7 m 292 93 q 370 117 332 93 q 434 190 408 140 q 460 311 460 239 q 422 425 460 388 q 325 463 383 463 q 179 418 253 463 q 167 335 171 379 q 163 274 163 301 q 200 134 163 175 q 292 93 238 93 z "},"7":{"ha":638,"x_min":75,"x_max":654,"o":"m 131 -3 q 88 2 100 -3 q 76 21 75 7 q 85 42 76 25 l 514 872 l 128 872 q 103 900 103 872 q 104 914 103 908 l 106 931 q 138 972 110 972 l 631 972 q 647 947 639 972 q 651 901 654 922 l 647 886 l 206 19 q 147 -3 196 -3 l 131 -3 z "},"8":{"ha":638,"x_min":42,"x_max":600,"o":"m 276 -8 q 106 51 171 -8 q 42 224 42 110 q 44 267 42 236 q 213 519 64 446 q 122 703 122 585 q 124 738 122 725 q 210 917 136 854 q 386 981 283 981 q 538 930 476 981 q 600 779 600 879 q 599 747 600 758 q 549 608 590 664 q 446 522 508 553 q 541 440 507 486 q 575 313 575 393 q 572 272 575 300 q 476 66 558 140 q 276 -8 394 -8 m 361 568 q 443 641 413 600 q 481 742 474 682 q 482 765 482 750 q 452 852 482 824 q 374 881 422 881 q 278 840 317 881 q 240 721 240 799 q 271 631 240 664 q 361 568 301 599 m 288 92 q 370 117 332 92 q 431 190 408 143 q 454 297 454 236 q 433 378 454 346 q 383 427 411 410 q 293 475 356 444 q 205 394 238 442 q 164 274 172 347 q 163 242 163 263 q 197 129 163 167 q 288 92 232 92 z "},"9":{"ha":638,"x_min":69,"x_max":615,"o":"m 110 -6 q 80 23 90 -6 q 72 68 69 51 q 85 83 72 78 q 314 235 222 140 q 453 453 406 331 q 289 407 381 407 q 140 472 196 407 q 83 646 83 538 q 124 819 83 744 q 234 935 165 894 q 385 976 303 976 q 557 904 499 976 q 615 701 615 832 q 611 632 615 669 q 493 300 592 444 q 279 75 394 156 q 110 -6 164 -6 m 338 507 q 482 553 408 507 q 496 636 493 608 q 499 694 499 657 q 463 836 499 796 q 371 876 426 876 q 293 853 332 876 q 228 780 254 829 q 203 658 203 731 q 241 544 203 582 q 338 507 279 507 z "},"\u0000":{"ha":0,"x_min":0,"x_max":0,"o":""},"\r":{"ha":190,"x_min":0,"x_max":0,"o":""}," ":{"ha":190,"x_min":0,"x_max":0,"o":""},"A":{"ha":701,"x_min":-21,"x_max":647,"o":"m 31 -3 q -18 21 -21 -3 q -17 31 -18 26 q -14 39 -15 35 l 333 949 q 392 975 343 975 l 432 975 q 485 949 481 975 l 644 39 q 647 21 647 25 q 632 3 646 10 q 593 -3 618 -3 l 569 -3 q 526 19 528 -3 l 490 247 l 188 247 l 106 19 q 53 -3 96 -3 l 31 -3 m 472 347 l 411 740 q 403 825 406 778 l 396 825 q 368 740 375 760 l 224 347 l 472 347 z "},"Á":{"ha":701,"x_min":-18,"x_max":647,"o":"m 31 -3 q -18 21 -21 -3 q -17 31 -18 26 q -14 39 -15 35 l 333 949 q 392 975 343 975 l 432 975 q 485 949 481 975 l 644 39 q 647 21 647 25 q 632 3 646 10 q 593 -3 618 -3 l 569 -3 q 526 19 528 -3 l 490 247 l 188 247 l 106 19 q 53 -3 96 -3 l 31 -3 m 472 347 l 411 740 q 403 825 406 778 l 396 825 q 368 740 375 760 l 224 347 l 472 347 m 394 1058 q 365 1072 365 1058 q 383 1119 365 1082 q 433 1226 400 1157 q 511 1263 450 1263 q 556 1258 542 1263 q 569 1244 569 1254 q 557 1218 569 1236 q 519 1164 544 1200 l 461 1083 q 394 1058 444 1058 z "},"Ă":{"ha":701,"x_min":-18,"x_max":647,"o":"m 31 -3 q -18 21 -21 -3 q -17 31 -18 26 q -14 39 -15 35 l 333 949 q 392 975 343 975 l 432 975 q 485 949 481 975 l 644 39 q 647 21 647 25 q 632 3 646 10 q 593 -3 618 -3 l 569 -3 q 526 19 528 -3 l 490 247 l 188 247 l 106 19 q 53 -3 96 -3 l 31 -3 m 472 347 l 411 740 q 403 825 406 778 l 396 825 q 368 740 375 760 l 224 347 l 472 347 m 426 1058 q 321 1094 363 1058 q 279 1196 279 1131 q 281 1218 279 1211 q 308 1239 283 1239 q 322 1233 318 1239 q 329 1219 326 1228 q 333 1204 332 1210 q 436 1150 349 1150 q 550 1204 524 1150 q 558 1219 553 1208 q 568 1235 563 1231 q 582 1239 574 1239 q 604 1218 607 1239 q 545 1100 596 1142 q 426 1058 494 1058 z "},"Ắ":{"ha":701,"x_min":-21,"x_max":647,"o":"m 422 1175 q 390 1189 390 1175 q 405 1233 390 1199 q 449 1329 419 1267 q 524 1365 468 1365 q 557 1361 547 1365 q 567 1347 567 1357 q 553 1318 567 1339 q 510 1253 540 1297 q 472 1200 496 1236 q 422 1175 454 1175 m 425 1058 q 317 1091 358 1058 q 275 1176 275 1124 q 281 1211 275 1201 q 301 1221 286 1221 q 317 1216 313 1221 q 324 1201 321 1211 q 331 1186 328 1192 q 365 1147 338 1164 q 432 1129 392 1129 q 503 1147 472 1129 q 546 1186 535 1165 q 552 1201 547 1190 q 563 1217 557 1213 q 581 1221 569 1221 q 597 1214 593 1221 q 600 1190 601 1207 q 545 1095 594 1132 q 425 1058 496 1058 m 31 -3 q -18 21 -21 -3 q -17 31 -18 26 q -14 39 -15 35 l 333 949 q 392 975 343 975 l 432 975 q 485 949 481 975 l 644 39 q 647 21 647 25 q 632 3 646 10 q 593 -3 618 -3 l 569 -3 q 526 19 528 -3 l 490 247 l 188 247 l 106 19 q 53 -3 96 -3 l 31 -3 m 472 347 l 411 740 q 403 825 406 778 l 396 825 q 368 740 375 760 l 224 347 l 472 347 z "},"Ặ":{"ha":701,"x_min":-18,"x_max":647,"o":"m 31 -3 q -18 21 -21 -3 q -17 31 -18 26 q -14 39 -15 35 l 333 949 q 392 975 343 975 l 432 975 q 485 949 481 975 l 644 39 q 647 21 647 25 q 632 3 646 10 q 593 -3 618 -3 l 569 -3 q 526 19 528 -3 l 490 247 l 188 247 l 106 19 q 53 -3 96 -3 l 31 -3 m 472 347 l 411 740 q 403 825 406 778 l 396 825 q 368 740 375 760 l 224 347 l 472 347 m 289 -243 q 232 -212 228 -243 l 239 -142 q 306 -111 242 -111 q 364 -142 367 -111 l 357 -212 q 289 -243 353 -243 m 426 1058 q 321 1094 363 1058 q 279 1196 279 1131 q 281 1218 279 1211 q 308 1239 283 1239 q 322 1233 318 1239 q 329 1219 326 1228 q 333 1204 332 1210 q 436 1150 349 1150 q 550 1204 524 1150 q 558 1219 553 1208 q 568 1235 563 1231 q 582 1239 574 1239 q 604 1218 607 1239 q 545 1100 596 1142 q 426 1058 494 1058 z "},"Ằ":{"ha":701,"x_min":-21,"x_max":647,"o":"m 468 1175 q 418 1200 436 1175 l 376 1264 q 340 1321 351 1303 q 329 1347 329 1339 q 339 1361 329 1357 q 375 1365 349 1365 q 419 1356 400 1365 q 447 1329 439 1347 q 487 1233 474 1267 q 500 1189 500 1199 q 468 1175 500 1175 m 425 1058 q 317 1091 358 1058 q 275 1176 275 1124 q 281 1211 275 1201 q 301 1221 286 1221 q 317 1216 313 1221 q 324 1201 321 1211 q 331 1186 328 1192 q 365 1147 338 1164 q 432 1129 392 1129 q 503 1147 472 1129 q 546 1186 535 1165 q 552 1201 547 1190 q 563 1217 557 1213 q 581 1221 569 1221 q 597 1214 593 1221 q 600 1190 601 1207 q 545 1095 594 1132 q 425 1058 496 1058 m 31 -3 q -18 21 -21 -3 q -17 31 -18 26 q -14 39 -15 35 l 333 949 q 392 975 343 975 l 432 975 q 485 949 481 975 l 644 39 q 647 21 647 25 q 632 3 646 10 q 593 -3 618 -3 l 569 -3 q 526 19 528 -3 l 490 247 l 188 247 l 106 19 q 53 -3 96 -3 l 31 -3 m 472 347 l 411 740 q 403 825 406 778 l 396 825 q 368 740 375 760 l 224 347 l 472 347 z "},"Ẳ":{"ha":701,"x_min":-21,"x_max":647,"o":"m 438 1185 q 401 1194 417 1185 q 386 1213 386 1203 q 394 1226 386 1219 q 421 1243 401 1232 q 464 1294 464 1267 q 449 1322 464 1313 q 413 1332 435 1332 q 367 1323 382 1332 q 349 1314 353 1314 q 328 1331 340 1314 q 315 1360 315 1349 q 351 1386 315 1374 q 424 1399 388 1399 q 506 1376 468 1399 q 543 1304 543 1353 q 530 1254 543 1275 q 494 1215 517 1233 q 463 1194 481 1204 q 438 1185 444 1185 m 425 1058 q 317 1091 358 1058 q 275 1176 275 1124 q 281 1211 275 1201 q 301 1221 286 1221 q 317 1216 313 1221 q 324 1201 321 1211 q 331 1186 328 1192 q 365 1147 338 1164 q 432 1129 392 1129 q 503 1147 472 1129 q 546 1186 535 1165 q 552 1201 547 1190 q 563 1217 557 1213 q 581 1221 569 1221 q 597 1214 593 1221 q 600 1190 601 1207 q 545 1095 594 1132 q 425 1058 496 1058 m 31 -3 q -18 21 -21 -3 q -17 31 -18 26 q -14 39 -15 35 l 333 949 q 392 975 343 975 l 432 975 q 485 949 481 975 l 644 39 q 647 21 647 25 q 632 3 646 10 q 593 -3 618 -3 l 569 -3 q 526 19 528 -3 l 490 247 l 188 247 l 106 19 q 53 -3 96 -3 l 31 -3 m 472 347 l 411 740 q 403 825 406 778 l 396 825 q 368 740 375 760 l 224 347 l 472 347 z "},"Ẵ":{"ha":701,"x_min":-21,"x_max":647,"o":"m 276 1294 q 264 1311 264 1301 q 268 1329 264 1319 q 311 1403 286 1381 q 372 1425 336 1425 q 410 1417 390 1425 q 461 1396 431 1410 q 533 1369 511 1369 q 558 1378 547 1369 q 581 1406 569 1386 q 606 1426 592 1426 q 619 1422 611 1426 l 628 1418 q 639 1411 635 1415 q 643 1401 643 1407 q 638 1382 643 1393 q 594 1310 619 1332 q 535 1288 569 1288 q 492 1295 514 1288 q 442 1318 471 1303 q 403 1335 422 1328 q 369 1343 383 1343 q 347 1335 357 1343 q 325 1306 336 1326 q 303 1286 314 1286 q 289 1289 300 1286 l 276 1294 m 425 1058 q 317 1091 358 1058 q 275 1176 275 1124 q 281 1211 275 1201 q 301 1221 286 1221 q 317 1216 313 1221 q 324 1201 321 1211 q 331 1186 328 1192 q 365 1147 338 1164 q 432 1129 392 1129 q 503 1147 472 1129 q 546 1186 535 1165 q 552 1201 547 1190 q 563 1217 557 1213 q 581 1221 569 1221 q 597 1214 593 1221 q 600 1190 601 1207 q 545 1095 594 1132 q 425 1058 496 1058 m 31 -3 q -18 21 -21 -3 q -17 31 -18 26 q -14 39 -15 35 l 333 949 q 392 975 343 975 l 432 975 q 485 949 481 975 l 644 39 q 647 21 647 25 q 632 3 646 10 q 593 -3 618 -3 l 569 -3 q 526 19 528 -3 l 490 247 l 188 247 l 106 19 q 53 -3 96 -3 l 31 -3 m 472 347 l 411 740 q 403 825 406 778 l 396 825 q 368 740 375 760 l 224 347 l 472 347 z "},"Â":{"ha":701,"x_min":-18,"x_max":647,"o":"m 31 -3 q -18 21 -21 -3 q -17 31 -18 26 q -14 39 -15 35 l 333 949 q 392 975 343 975 l 432 975 q 485 949 481 975 l 644 39 q 647 21 647 25 q 632 3 646 10 q 593 -3 618 -3 l 569 -3 q 526 19 528 -3 l 490 247 l 188 247 l 106 19 q 53 -3 96 -3 l 31 -3 m 472 347 l 411 740 q 403 825 406 778 l 396 825 q 368 740 375 760 l 224 347 l 472 347 m 297 1046 q 278 1051 285 1046 q 272 1064 272 1056 q 278 1078 274 1069 q 285 1090 283 1086 l 371 1213 q 432 1243 393 1243 l 453 1243 q 507 1213 489 1243 l 568 1090 q 575 1067 575 1076 q 566 1051 574 1057 q 546 1046 558 1046 l 518 1046 q 486 1065 497 1046 l 433 1167 l 363 1065 q 324 1046 346 1046 l 297 1046 z "},"Ấ":{"ha":701,"x_min":-21,"x_max":715,"o":"m 571 1179 q 539 1193 539 1179 q 553 1237 539 1203 q 597 1333 568 1271 q 672 1369 617 1369 q 706 1365 696 1369 q 715 1351 715 1361 q 702 1322 715 1343 q 658 1257 689 1301 q 621 1204 644 1240 q 571 1179 603 1179 m 307 1046 q 288 1051 294 1046 q 282 1064 282 1056 q 287 1078 283 1071 q 292 1090 290 1085 l 372 1213 q 433 1243 393 1243 l 456 1243 q 510 1213 493 1243 l 561 1090 q 569 1067 569 1078 q 560 1051 568 1057 q 540 1046 553 1046 l 513 1046 q 493 1051 503 1046 q 479 1064 483 1056 l 435 1167 l 371 1064 q 355 1049 364 1053 q 333 1046 346 1046 l 307 1046 m 31 -3 q -18 21 -21 -3 q -17 31 -18 26 q -14 39 -15 35 l 333 949 q 392 975 343 975 l 432 975 q 485 949 481 975 l 644 39 q 647 21 647 25 q 632 3 646 10 q 593 -3 618 -3 l 569 -3 q 526 19 528 -3 l 490 247 l 188 247 l 106 19 q 53 -3 96 -3 l 31 -3 m 472 347 l 411 740 q 403 825 406 778 l 396 825 q 368 740 375 760 l 224 347 l 472 347 z "},"Ậ":{"ha":701,"x_min":-18,"x_max":647,"o":"m 31 -3 q -18 21 -21 -3 q -17 31 -18 26 q -14 39 -15 35 l 333 949 q 392 975 343 975 l 432 975 q 485 949 481 975 l 644 39 q 647 21 647 25 q 632 3 646 10 q 593 -3 618 -3 l 569 -3 q 526 19 528 -3 l 490 247 l 188 247 l 106 19 q 53 -3 96 -3 l 31 -3 m 472 347 l 411 740 q 403 825 406 778 l 396 825 q 368 740 375 760 l 224 347 l 472 347 m 289 -243 q 232 -212 228 -243 l 239 -142 q 306 -111 242 -111 q 364 -142 367 -111 l 357 -212 q 289 -243 353 -243 m 297 1046 q 278 1051 285 1046 q 272 1064 272 1056 q 278 1078 274 1069 q 285 1090 283 1086 l 371 1213 q 432 1243 393 1243 l 453 1243 q 507 1213 489 1243 l 568 1090 q 575 1067 575 1076 q 566 1051 574 1057 q 546 1046 558 1046 l 518 1046 q 486 1065 497 1046 l 433 1167 l 363 1065 q 324 1046 346 1046 l 297 1046 z "},"Ầ":{"ha":701,"x_min":-21,"x_max":649,"o":"m 617 1179 q 567 1204 586 1179 l 525 1268 q 489 1325 500 1307 q 478 1351 478 1343 q 488 1365 478 1361 q 524 1369 497 1369 q 568 1360 549 1369 q 596 1333 588 1351 q 635 1237 622 1271 q 649 1193 649 1203 q 617 1179 649 1179 m 307 1046 q 288 1051 294 1046 q 282 1064 282 1056 q 287 1078 283 1071 q 292 1090 290 1085 l 372 1213 q 433 1243 393 1243 l 456 1243 q 510 1213 493 1243 l 561 1090 q 569 1067 569 1078 q 560 1051 568 1057 q 540 1046 553 1046 l 513 1046 q 493 1051 503 1046 q 479 1064 483 1056 l 435 1167 l 371 1064 q 355 1049 364 1053 q 333 1046 346 1046 l 307 1046 m 31 -3 q -18 21 -21 -3 q -17 31 -18 26 q -14 39 -15 35 l 333 949 q 392 975 343 975 l 432 975 q 485 949 481 975 l 644 39 q 647 21 647 25 q 632 3 646 10 q 593 -3 618 -3 l 569 -3 q 526 19 528 -3 l 490 247 l 188 247 l 106 19 q 53 -3 96 -3 l 31 -3 m 472 347 l 411 740 q 403 825 406 778 l 396 825 q 368 740 375 760 l 224 347 l 472 347 z "},"Ẩ":{"ha":701,"x_min":-21,"x_max":692,"o":"m 586 1189 q 550 1198 565 1189 q 535 1217 535 1207 q 542 1230 535 1224 q 569 1247 550 1236 q 613 1299 613 1271 q 598 1326 613 1317 q 561 1336 583 1336 q 516 1327 531 1336 q 497 1318 501 1318 q 476 1335 489 1318 q 464 1364 464 1353 q 500 1390 464 1378 q 572 1403 536 1403 q 654 1380 617 1403 q 692 1308 692 1357 q 678 1258 692 1279 q 643 1219 665 1238 q 611 1199 629 1208 q 586 1189 593 1189 m 307 1046 q 288 1051 294 1046 q 282 1064 282 1056 q 287 1078 283 1071 q 292 1090 290 1085 l 372 1213 q 433 1243 393 1243 l 456 1243 q 510 1213 493 1243 l 561 1090 q 569 1067 569 1078 q 560 1051 568 1057 q 540 1046 553 1046 l 513 1046 q 493 1051 503 1046 q 479 1064 483 1056 l 435 1167 l 371 1064 q 355 1049 364 1053 q 333 1046 346 1046 l 307 1046 m 31 -3 q -18 21 -21 -3 q -17 31 -18 26 q -14 39 -15 35 l 333 949 q 392 975 343 975 l 432 975 q 485 949 481 975 l 644 39 q 647 21 647 25 q 632 3 646 10 q 593 -3 618 -3 l 569 -3 q 526 19 528 -3 l 490 247 l 188 247 l 106 19 q 53 -3 96 -3 l 31 -3 m 472 347 l 411 740 q 403 825 406 778 l 396 825 q 368 740 375 760 l 224 347 l 472 347 z "},"Ẫ":{"ha":701,"x_min":-21,"x_max":647,"o":"m 267 1222 q 254 1239 254 1229 q 258 1257 254 1247 q 301 1331 276 1308 q 363 1353 326 1353 q 401 1345 381 1353 q 451 1324 421 1338 q 524 1297 501 1297 q 549 1306 538 1297 q 571 1333 560 1314 q 596 1354 582 1354 q 610 1350 601 1354 l 618 1346 q 629 1339 625 1343 q 633 1329 633 1335 q 628 1310 633 1321 q 585 1238 610 1260 q 525 1215 560 1215 q 483 1223 504 1215 q 432 1246 461 1231 q 393 1263 413 1256 q 360 1271 374 1271 q 337 1263 347 1271 q 315 1233 326 1254 q 293 1214 304 1214 q 279 1217 290 1214 l 267 1222 m 307 1046 q 283 1065 281 1046 q 288 1078 283 1069 q 294 1090 292 1086 l 368 1182 q 431 1213 394 1213 l 453 1213 q 507 1182 489 1213 l 561 1090 q 569 1065 569 1074 q 560 1051 568 1057 q 540 1046 553 1046 l 513 1046 q 478 1064 492 1046 l 433 1144 l 372 1064 q 333 1046 358 1046 l 307 1046 m 31 -3 q -18 21 -21 -3 q -17 31 -18 26 q -14 39 -15 35 l 333 949 q 392 975 343 975 l 432 975 q 485 949 481 975 l 644 39 q 647 21 647 25 q 632 3 646 10 q 593 -3 618 -3 l 569 -3 q 526 19 528 -3 l 490 247 l 188 247 l 106 19 q 53 -3 96 -3 l 31 -3 m 472 347 l 411 740 q 403 825 406 778 l 396 825 q 368 740 375 760 l 224 347 l 472 347 z "},"Ä":{"ha":701,"x_min":-18,"x_max":647,"o":"m 31 -3 q -18 21 -21 -3 q -17 31 -18 26 q -14 39 -15 35 l 333 949 q 392 975 343 975 l 432 975 q 485 949 481 975 l 644 39 q 647 21 647 25 q 632 3 646 10 q 593 -3 618 -3 l 569 -3 q 526 19 528 -3 l 490 247 l 188 247 l 106 19 q 53 -3 96 -3 l 31 -3 m 472 347 l 411 740 q 403 825 406 778 l 396 825 q 368 740 375 760 l 224 347 l 472 347 m 339 1089 q 290 1119 286 1089 l 297 1190 q 356 1221 300 1221 q 406 1190 408 1221 l 399 1119 q 339 1089 394 1089 m 514 1089 q 465 1119 461 1089 l 472 1190 q 531 1221 475 1221 q 581 1190 583 1221 l 574 1119 q 514 1089 569 1089 z "},"Ạ":{"ha":701,"x_min":-18,"x_max":647,"o":"m 31 -3 q -18 21 -21 -3 q -17 31 -18 26 q -14 39 -15 35 l 333 949 q 392 975 343 975 l 432 975 q 485 949 481 975 l 644 39 q 647 21 647 25 q 632 3 646 10 q 593 -3 618 -3 l 569 -3 q 526 19 528 -3 l 490 247 l 188 247 l 106 19 q 53 -3 96 -3 l 31 -3 m 472 347 l 411 740 q 403 825 406 778 l 396 825 q 368 740 375 760 l 224 347 l 472 347 m 289 -243 q 232 -212 228 -243 l 239 -142 q 306 -111 242 -111 q 364 -142 367 -111 l 357 -212 q 289 -243 353 -243 z "},"À":{"ha":701,"x_min":-18,"x_max":647,"o":"m 31 -3 q -18 21 -21 -3 q -17 31 -18 26 q -14 39 -15 35 l 333 949 q 392 975 343 975 l 432 975 q 485 949 481 975 l 644 39 q 647 21 647 25 q 632 3 646 10 q 593 -3 618 -3 l 569 -3 q 526 19 528 -3 l 490 247 l 188 247 l 106 19 q 53 -3 96 -3 l 31 -3 m 472 347 l 411 740 q 403 825 406 778 l 396 825 q 368 740 375 760 l 224 347 l 472 347 m 440 1058 q 375 1083 392 1058 q 281 1210 297 1188 q 265 1244 265 1233 q 279 1258 265 1254 q 324 1263 293 1263 q 403 1226 383 1263 l 431 1168 q 459 1104 449 1128 q 469 1072 469 1081 q 463 1062 469 1065 q 440 1058 457 1058 z "},"Ả":{"ha":701,"x_min":-18,"x_max":647,"o":"m 31 -3 q -18 21 -21 -3 q -17 31 -18 26 q -14 39 -15 35 l 333 949 q 392 975 343 975 l 432 975 q 485 949 481 975 l 644 39 q 647 21 647 25 q 632 3 646 10 q 593 -3 618 -3 l 569 -3 q 526 19 528 -3 l 490 247 l 188 247 l 106 19 q 53 -3 96 -3 l 31 -3 m 472 347 l 411 740 q 403 825 406 778 l 396 825 q 368 740 375 760 l 224 347 l 472 347 m 425 1028 q 397 1035 414 1028 q 379 1051 379 1043 q 387 1072 379 1064 q 414 1097 394 1081 q 451 1135 438 1117 q 465 1179 465 1153 q 451 1207 465 1197 q 414 1217 436 1217 q 369 1208 383 1217 q 350 1199 354 1199 q 329 1216 342 1199 q 317 1244 317 1233 q 353 1273 317 1258 q 425 1288 389 1288 q 511 1264 471 1288 q 551 1189 551 1240 q 526 1111 551 1147 q 468 1051 500 1075 q 425 1028 436 1028 z "},"Ā":{"ha":701,"x_min":-18,"x_max":647,"o":"m 31 -3 q -18 21 -21 -3 q -17 31 -18 26 q -14 39 -15 35 l 333 949 q 392 975 343 975 l 432 975 q 485 949 481 975 l 644 39 q 647 21 647 25 q 632 3 646 10 q 593 -3 618 -3 l 569 -3 q 526 19 528 -3 l 490 247 l 188 247 l 106 19 q 53 -3 96 -3 l 31 -3 m 472 347 l 411 740 q 403 825 406 778 l 396 825 q 368 740 375 760 l 224 347 l 472 347 m 290 1096 q 268 1138 264 1096 l 269 1151 q 300 1193 274 1193 l 576 1193 q 596 1183 590 1193 q 599 1151 601 1174 l 597 1138 q 588 1106 594 1115 q 567 1096 581 1096 l 290 1096 z "},"Ą":{"ha":701,"x_min":-21,"x_max":707,"o":"m 679 -143 q 707 -176 707 -143 q 689 -214 707 -201 q 597 -240 650 -240 q 496 -201 522 -240 q 469 -118 469 -161 q 483 -44 469 -85 q 524 33 496 -3 l 490 247 l 188 247 l 106 19 q 53 -3 96 -3 l 31 -3 q -18 21 -21 -3 q -17 31 -18 26 q -14 39 -15 35 l 333 949 q 392 975 343 975 l 432 975 q 485 949 481 975 l 644 39 q 647 21 647 25 q 632 3 646 10 q 593 -3 618 -3 l 578 -3 q 554 -93 554 -51 q 624 -153 554 -153 q 654 -148 635 -153 q 679 -143 674 -143 m 472 347 l 411 740 q 403 825 406 778 l 396 825 q 368 740 375 760 l 224 347 l 472 347 z "},"Å":{"ha":701,"x_min":-18,"x_max":647,"o":"m 31 -3 q -18 21 -21 -3 q -17 31 -18 26 q -14 39 -15 35 l 333 949 q 392 975 343 975 l 432 975 q 485 949 481 975 l 644 39 q 647 21 647 25 q 632 3 646 10 q 593 -3 618 -3 l 569 -3 q 526 19 528 -3 l 490 247 l 188 247 l 106 19 q 53 -3 96 -3 l 31 -3 m 472 347 l 411 740 q 403 825 406 778 l 396 825 q 368 740 375 760 l 224 347 l 472 347 m 419 1029 q 344 1056 372 1029 q 315 1129 315 1083 q 352 1226 315 1189 q 444 1264 389 1264 q 522 1236 493 1264 q 550 1161 550 1208 q 513 1066 550 1103 q 419 1029 475 1029 m 424 1078 q 477 1099 457 1078 q 497 1157 497 1119 q 482 1200 497 1185 q 439 1215 467 1215 q 386 1194 406 1215 q 367 1135 367 1172 q 381 1092 367 1107 q 424 1078 396 1078 z "},"Ǻ":{"ha":701,"x_min":-21,"x_max":647,"o":"m 408 1142 q 378 1156 378 1142 l 424 1229 q 440 1254 432 1240 q 474 1282 453 1274 q 531 1290 496 1290 q 581 1286 565 1290 q 594 1272 596 1282 q 585 1259 594 1268 q 557 1233 576 1250 l 482 1167 q 408 1142 457 1142 m 644 39 q 647 21 647 25 q 632 3 646 10 q 593 -3 618 -3 l 569 -3 q 526 19 528 -3 l 490 247 l 188 247 l 106 19 q 53 -3 96 -3 l 31 -3 q -18 21 -21 -3 q -17 31 -18 26 q -14 39 -15 35 l 317 903 q 296 965 296 928 q 333 1063 296 1025 q 425 1101 369 1101 q 502 1074 474 1101 q 531 999 531 1046 q 493 903 531 943 l 644 39 m 347 972 q 362 930 347 944 q 404 915 376 915 q 458 936 438 915 q 478 994 478 957 q 463 1038 478 1022 q 419 1053 447 1053 q 367 1031 386 1053 q 347 972 347 1010 m 472 347 l 411 740 q 403 825 406 778 l 396 825 q 368 740 375 760 l 224 347 l 472 347 z "},"Ã":{"ha":701,"x_min":-18,"x_max":647,"o":"m 31 -3 q -18 21 -21 -3 q -17 31 -18 26 q -14 39 -15 35 l 333 949 q 392 975 343 975 l 432 975 q 485 949 481 975 l 644 39 q 647 21 647 25 q 632 3 646 10 q 593 -3 618 -3 l 569 -3 q 526 19 528 -3 l 490 247 l 188 247 l 106 19 q 53 -3 96 -3 l 31 -3 m 472 347 l 411 740 q 403 825 406 778 l 396 825 q 368 740 375 760 l 224 347 l 472 347 m 226 1074 q 213 1090 213 1079 q 217 1108 213 1099 q 265 1182 238 1160 q 332 1204 292 1204 q 373 1197 353 1204 q 428 1175 393 1190 q 508 1149 483 1149 q 535 1156 524 1149 q 561 1185 547 1164 q 588 1206 572 1206 q 603 1201 594 1206 l 613 1197 q 626 1190 622 1193 q 629 1181 629 1186 q 624 1161 629 1172 q 576 1088 603 1110 q 510 1067 549 1067 q 464 1074 488 1067 q 408 1097 440 1082 q 366 1115 388 1107 q 329 1122 344 1122 q 304 1114 315 1122 q 279 1085 293 1106 q 256 1065 268 1065 q 240 1068 251 1065 l 226 1074 z "},"Æ":{"ha":1036,"x_min":-37,"x_max":976,"o":"m 15 -3 q -35 21 -37 -3 q -26 43 -31 36 l 422 935 q 445 963 433 954 q 475 972 457 972 l 950 972 q 972 931 976 972 l 969 908 q 939 867 965 867 l 583 867 l 599 550 l 901 550 q 924 508 928 550 l 921 486 q 890 444 917 444 l 604 444 l 622 106 l 889 106 q 911 79 911 106 q 910 64 911 69 l 908 42 q 899 10 906 19 q 878 0 892 0 l 540 0 q 504 40 504 0 l 494 247 l 194 247 l 83 19 q 35 -3 74 -3 l 15 -3 m 250 351 l 488 351 l 471 731 l 476 811 l 474 811 l 439 731 l 250 351 z "},"Ǽ":{"ha":1036,"x_min":-35,"x_max":972,"o":"m 15 -3 q -35 21 -37 -3 q -26 43 -31 36 l 422 935 q 445 963 433 954 q 475 972 457 972 l 950 972 q 972 931 976 972 l 969 908 q 939 867 965 867 l 583 867 l 599 550 l 901 550 q 924 508 928 550 l 921 486 q 890 444 917 444 l 604 444 l 622 106 l 889 106 q 911 79 911 106 q 910 64 911 69 l 908 42 q 899 10 906 19 q 878 0 892 0 l 540 0 q 504 40 504 0 l 494 247 l 194 247 l 83 19 q 35 -3 74 -3 l 15 -3 m 250 351 l 488 351 l 471 731 l 476 811 l 474 811 l 439 731 l 250 351 m 592 1058 q 563 1072 563 1058 q 580 1119 563 1082 q 631 1226 597 1157 q 708 1263 647 1263 q 753 1258 739 1263 q 767 1244 767 1254 q 754 1218 767 1236 q 717 1164 742 1200 l 658 1083 q 592 1058 642 1058 z "},"B":{"ha":749,"x_min":74,"x_max":693,"o":"m 111 0 q 82 10 90 0 q 76 42 74 19 l 171 931 q 183 963 174 953 q 214 972 193 972 l 440 972 q 630 917 567 972 q 693 764 693 861 q 690 726 693 751 q 639 594 683 657 q 543 515 594 532 l 543 510 q 633 450 589 493 q 678 314 678 407 q 676 279 678 292 q 581 68 663 136 q 351 0 499 0 l 111 0 m 400 553 q 508 599 464 553 q 560 715 553 646 q 561 746 561 726 q 529 837 561 807 q 431 867 497 867 l 289 867 l 256 553 l 400 553 m 388 106 q 497 153 454 106 q 550 285 540 201 q 551 308 551 293 q 514 411 551 375 q 404 447 476 447 l 244 447 l 208 106 l 388 106 z "},"C":{"ha":638,"x_min":74,"x_max":654,"o":"m 390 -8 q 151 83 229 -8 q 74 364 74 174 q 81 486 74 413 q 146 766 99 658 q 278 927 193 874 q 496 981 364 981 q 571 974 535 981 q 633 954 607 967 q 650 940 646 949 q 653 917 654 932 q 636 863 651 894 q 601 843 621 832 q 485 872 546 872 q 299 779 365 872 q 210 488 232 686 q 203 374 203 418 q 252 167 203 235 q 401 100 301 100 q 536 135 472 100 q 549 138 544 138 q 574 113 567 138 q 581 67 582 89 q 569 42 578 53 q 542 21 561 31 q 476 1 517 10 q 390 -8 435 -8 z "},"Ć":{"ha":638,"x_min":74,"x_max":653,"o":"m 390 -8 q 151 83 229 -8 q 74 364 74 174 q 81 486 74 413 q 146 766 99 658 q 278 927 193 874 q 496 981 364 981 q 571 974 535 981 q 633 954 607 967 q 650 940 646 949 q 653 917 654 932 q 636 863 651 894 q 601 843 621 832 q 485 872 546 872 q 299 779 365 872 q 210 488 232 686 q 203 374 203 418 q 252 167 203 235 q 401 100 301 100 q 536 135 472 100 q 549 138 544 138 q 574 113 567 138 q 581 67 582 89 q 569 42 578 53 q 542 21 561 31 q 476 1 517 10 q 390 -8 435 -8 m 415 1058 q 386 1072 386 1058 q 403 1119 386 1082 q 454 1226 421 1157 q 532 1263 471 1263 q 576 1258 563 1263 q 590 1244 590 1254 q 578 1218 590 1236 q 540 1164 565 1200 l 482 1083 q 415 1058 465 1058 z "},"Č":{"ha":638,"x_min":74,"x_max":653,"o":"m 390 -8 q 151 83 229 -8 q 74 364 74 174 q 81 486 74 413 q 146 766 99 658 q 278 927 193 874 q 496 981 364 981 q 571 974 535 981 q 633 954 607 967 q 650 940 646 949 q 653 917 654 932 q 636 863 651 894 q 601 843 621 832 q 485 872 546 872 q 299 779 365 872 q 210 488 232 686 q 203 374 203 418 q 252 167 203 235 q 401 100 301 100 q 536 135 472 100 q 549 138 544 138 q 574 113 567 138 q 581 67 582 89 q 569 42 578 53 q 542 21 561 31 q 476 1 517 10 q 390 -8 435 -8 m 436 1056 q 381 1086 397 1056 l 321 1208 q 314 1233 314 1226 q 323 1247 315 1242 q 343 1253 331 1253 l 369 1253 q 403 1232 390 1253 l 454 1132 l 526 1232 q 564 1253 542 1253 l 592 1253 q 610 1247 604 1253 q 615 1232 617 1242 q 604 1208 615 1225 l 517 1086 q 457 1056 496 1056 l 436 1056 z "},"Ç":{"ha":638,"x_min":74,"x_max":654,"o":"m 633 954 q 650 940 646 949 q 653 917 654 932 q 636 863 651 894 q 601 843 621 832 q 485 872 546 872 q 299 779 365 872 q 210 488 232 686 q 203 374 203 418 q 252 167 203 235 q 401 100 301 100 q 536 135 472 100 q 549 138 544 138 q 574 113 567 138 q 581 67 582 89 q 569 42 578 53 q 542 21 561 31 q 476 1 517 10 q 390 -8 435 -8 l 371 -8 l 350 -83 q 420 -103 388 -83 q 453 -176 453 -124 q 319 -292 453 -292 q 232 -275 275 -292 q 189 -232 189 -258 q 197 -208 189 -219 q 215 -196 206 -196 q 247 -206 225 -196 q 311 -224 283 -224 q 346 -213 331 -224 q 361 -183 361 -203 q 349 -153 361 -162 q 315 -136 338 -143 q 292 -125 300 -131 q 285 -110 285 -119 q 291 -77 285 -100 q 315 -3 297 -54 q 133 107 193 17 q 74 364 74 197 q 81 486 74 414 q 146 766 99 658 q 278 927 193 874 q 496 981 364 981 q 571 974 535 981 q 633 954 607 967 z "},"Ĉ":{"ha":638,"x_min":74,"x_max":653,"o":"m 390 -8 q 151 83 229 -8 q 74 364 74 174 q 81 486 74 413 q 146 766 99 658 q 278 927 193 874 q 496 981 364 981 q 571 974 535 981 q 633 954 607 967 q 650 940 646 949 q 653 917 654 932 q 636 863 651 894 q 601 843 621 832 q 485 872 546 872 q 299 779 365 872 q 210 488 232 686 q 203 374 203 418 q 252 167 203 235 q 401 100 301 100 q 536 135 472 100 q 549 138 544 138 q 574 113 567 138 q 581 67 582 89 q 569 42 578 53 q 542 21 561 31 q 476 1 517 10 q 390 -8 435 -8 m 318 1046 q 299 1051 306 1046 q 293 1064 293 1056 q 299 1078 294 1069 q 306 1090 304 1086 l 392 1213 q 453 1243 414 1243 l 474 1243 q 528 1213 510 1243 l 589 1090 q 596 1067 596 1076 q 587 1051 594 1057 q 567 1046 579 1046 l 539 1046 q 507 1065 518 1046 l 454 1167 l 383 1065 q 344 1046 367 1046 l 318 1046 z "},"Ċ":{"ha":638,"x_min":74,"x_max":653,"o":"m 390 -8 q 151 83 229 -8 q 74 364 74 174 q 81 486 74 413 q 146 766 99 658 q 278 927 193 874 q 496 981 364 981 q 571 974 535 981 q 633 954 607 967 q 650 940 646 949 q 653 917 654 932 q 636 863 651 894 q 601 843 621 832 q 485 872 546 872 q 299 779 365 872 q 210 488 232 686 q 203 374 203 418 q 252 167 203 235 q 401 100 301 100 q 536 135 472 100 q 549 138 544 138 q 574 113 567 138 q 581 67 582 89 q 569 42 578 53 q 542 21 561 31 q 476 1 517 10 q 390 -8 435 -8 m 447 1089 q 390 1119 386 1089 l 397 1190 q 464 1221 400 1221 q 522 1190 525 1221 l 515 1119 q 447 1089 511 1089 z "},"D":{"ha":801,"x_min":74,"x_max":750,"o":"m 110 0 q 82 10 90 0 q 76 42 74 19 l 171 931 q 183 963 174 953 q 213 972 193 972 l 446 972 q 750 603 750 972 q 743 486 750 556 q 343 0 693 0 l 110 0 m 351 106 q 525 197 456 106 q 615 486 594 288 q 621 590 621 536 q 571 800 621 733 q 432 867 521 867 l 290 867 l 210 106 l 351 106 z "},"Ǳ":{"ha":1506,"x_min":76,"x_max":1501,"o":"m 110 0 q 82 10 90 0 q 76 42 74 19 l 171 931 q 183 963 174 953 q 213 972 193 972 l 446 972 q 750 603 750 972 q 743 486 750 556 q 343 0 693 0 l 110 0 m 351 106 q 525 197 456 106 q 615 486 594 288 q 621 590 621 536 q 571 800 621 733 q 432 867 521 867 l 290 867 l 210 106 l 351 106 m 840 0 q 821 26 829 0 q 815 74 813 51 q 819 90 815 78 l 1347 867 l 960 867 q 941 878 946 867 q 939 914 936 889 l 940 925 q 950 961 943 950 q 971 972 957 972 l 1479 972 q 1497 947 1489 972 q 1501 899 1504 921 q 1499 882 1501 890 l 974 106 l 1392 106 q 1410 94 1406 106 q 1414 58 1415 83 l 1413 47 q 1402 11 1410 22 q 1381 0 1394 0 l 840 0 z "},"Ǆ":{"ha":1506,"x_min":76,"x_max":1501,"o":"m 110 0 q 82 10 90 0 q 76 42 74 19 l 171 931 q 183 963 174 953 q 213 972 193 972 l 446 972 q 750 603 750 972 q 743 486 750 556 q 343 0 693 0 l 110 0 m 351 106 q 525 197 456 106 q 615 486 594 288 q 621 590 621 536 q 571 800 621 733 q 432 867 521 867 l 290 867 l 210 106 l 351 106 m 840 0 q 821 26 829 0 q 815 74 813 51 q 819 90 815 78 l 1347 867 l 960 867 q 941 878 946 867 q 939 914 936 889 l 940 925 q 950 961 943 950 q 971 972 957 972 l 1479 972 q 1497 947 1489 972 q 1501 899 1504 921 q 1499 882 1501 890 l 974 106 l 1392 106 q 1410 94 1406 106 q 1414 58 1415 83 l 1413 47 q 1402 11 1410 22 q 1381 0 1394 0 l 840 0 m 1219 1056 q 1164 1086 1181 1056 l 1104 1208 q 1097 1233 1097 1226 q 1106 1247 1099 1242 q 1126 1253 1114 1253 l 1153 1253 q 1186 1232 1174 1253 l 1238 1132 l 1310 1232 q 1347 1253 1325 1253 l 1375 1253 q 1394 1247 1388 1253 q 1399 1232 1400 1242 q 1388 1208 1399 1225 l 1300 1086 q 1240 1056 1279 1056 l 1219 1056 z "},"Ð":{"ha":801,"x_min":28,"x_max":750,"o":"m 446 972 q 750 603 750 972 q 743 486 750 556 q 343 0 693 0 l 110 0 q 82 10 90 0 q 76 42 74 19 l 119 444 l 51 444 q 28 475 28 444 q 34 530 28 510 q 63 550 40 550 l 131 550 l 171 931 q 183 963 174 953 q 213 972 193 972 l 446 972 m 615 486 q 621 590 621 536 q 571 800 621 733 q 432 867 521 867 l 290 867 l 257 550 l 410 550 q 433 519 433 550 q 427 465 433 485 q 399 444 421 444 l 246 444 l 210 106 l 351 106 q 525 197 456 106 q 615 486 594 288 z "},"Ď":{"ha":801,"x_min":76,"x_max":750,"o":"m 110 0 q 82 10 90 0 q 76 42 74 19 l 171 931 q 183 963 174 953 q 213 972 193 972 l 446 972 q 750 603 750 972 q 743 486 750 556 q 343 0 693 0 l 110 0 m 351 106 q 525 197 456 106 q 615 486 594 288 q 621 590 621 536 q 571 800 621 733 q 432 867 521 867 l 290 867 l 210 106 l 351 106 m 444 1056 q 389 1086 406 1056 l 329 1208 q 322 1233 322 1226 q 331 1247 324 1242 q 351 1253 339 1253 l 378 1253 q 411 1232 399 1253 l 463 1132 l 535 1232 q 572 1253 550 1253 l 600 1253 q 619 1247 613 1253 q 624 1232 625 1242 q 613 1208 624 1225 l 525 1086 q 465 1056 504 1056 l 444 1056 z "},"Đ":{"ha":801,"x_min":28,"x_max":750,"o":"m 446 972 q 750 603 750 972 q 743 486 750 556 q 343 0 693 0 l 110 0 q 82 10 90 0 q 76 42 74 19 l 119 444 l 51 444 q 28 475 28 444 q 34 530 28 510 q 63 550 40 550 l 131 550 l 171 931 q 183 963 174 953 q 213 972 193 972 l 446 972 m 615 486 q 621 590 621 536 q 571 800 621 733 q 432 867 521 867 l 290 867 l 257 550 l 410 550 q 433 519 433 550 q 427 465 433 485 q 399 444 421 444 l 246 444 l 210 106 l 351 106 q 525 197 456 106 q 615 486 594 288 z "},"Ḍ":{"ha":801,"x_min":76,"x_max":750,"o":"m 110 0 q 82 10 90 0 q 76 42 74 19 l 171 931 q 183 963 174 953 q 213 972 193 972 l 446 972 q 750 603 750 972 q 743 486 750 556 q 343 0 693 0 l 110 0 m 351 106 q 525 197 456 106 q 615 486 594 288 q 621 590 621 536 q 571 800 621 733 q 432 867 521 867 l 290 867 l 210 106 l 351 106 m 318 -243 q 261 -212 257 -243 l 268 -142 q 335 -111 271 -111 q 393 -142 396 -111 l 386 -212 q 318 -243 382 -243 z "},"ǲ":{"ha":1364,"x_min":76,"x_max":1349,"o":"m 110 0 q 82 10 90 0 q 76 42 74 19 l 171 931 q 183 963 174 953 q 213 972 193 972 l 446 972 q 750 603 750 972 q 743 486 750 556 q 343 0 693 0 l 110 0 m 351 106 q 525 197 456 106 q 615 486 594 288 q 621 590 621 536 q 571 800 621 733 q 432 867 521 867 l 290 867 l 210 106 l 351 106 m 844 0 q 828 25 836 0 q 824 71 821 50 q 828 86 824 74 l 1199 626 l 929 626 q 907 668 903 626 l 908 685 q 918 717 911 707 q 939 726 925 726 l 1331 726 q 1345 700 1339 726 q 1349 654 1351 674 l 1344 640 l 975 100 l 1267 100 q 1289 58 1293 100 l 1288 42 q 1278 10 1285 19 q 1257 0 1271 0 l 844 0 z "},"ǅ":{"ha":1364,"x_min":76,"x_max":1349,"o":"m 110 0 q 82 10 90 0 q 76 42 74 19 l 171 931 q 183 963 174 953 q 213 972 193 972 l 446 972 q 750 603 750 972 q 743 486 750 556 q 343 0 693 0 l 110 0 m 351 106 q 525 197 456 106 q 615 486 594 288 q 621 590 621 536 q 571 800 621 733 q 432 867 521 867 l 290 867 l 210 106 l 351 106 m 844 0 q 828 25 836 0 q 824 71 821 50 q 828 86 824 74 l 1199 626 l 929 626 q 907 668 903 626 l 908 685 q 918 717 911 707 q 939 726 925 726 l 1331 726 q 1345 700 1339 726 q 1349 654 1351 674 l 1344 640 l 975 100 l 1267 100 q 1289 58 1293 100 l 1288 42 q 1278 10 1285 19 q 1257 0 1271 0 l 844 0 m 1129 810 q 1074 840 1090 810 l 1014 963 q 1007 988 1007 981 q 1016 1001 1008 996 q 1036 1007 1024 1007 l 1063 1007 q 1096 986 1083 1007 l 1147 886 l 1219 986 q 1257 1007 1235 1007 l 1285 1007 q 1303 1001 1297 1007 q 1308 986 1310 996 q 1297 963 1308 979 l 1210 840 q 1150 810 1189 810 l 1129 810 z "},"E":{"ha":635,"x_min":74,"x_max":639,"o":"m 110 0 q 82 10 90 0 q 76 42 74 19 l 171 931 q 183 963 174 953 q 213 972 193 972 l 613 972 q 635 931 639 972 l 632 908 q 601 867 628 867 l 289 867 l 256 550 l 536 550 q 558 508 563 550 l 556 486 q 525 444 551 444 l 244 444 l 208 106 l 521 106 q 540 96 535 106 q 543 64 546 86 l 540 42 q 531 10 538 19 q 510 0 524 0 l 110 0 z "},"É":{"ha":635,"x_min":76,"x_max":635,"o":"m 110 0 q 82 10 90 0 q 76 42 74 19 l 171 931 q 183 963 174 953 q 213 972 193 972 l 613 972 q 635 931 639 972 l 632 908 q 601 867 628 867 l 289 867 l 256 550 l 536 550 q 558 508 563 550 l 556 486 q 525 444 551 444 l 244 444 l 208 106 l 521 106 q 540 96 535 106 q 543 64 546 86 l 540 42 q 531 10 538 19 q 510 0 524 0 l 110 0 m 386 1058 q 357 1072 357 1058 q 374 1119 357 1082 q 425 1226 392 1157 q 503 1263 442 1263 q 547 1258 533 1263 q 561 1244 561 1254 q 549 1218 561 1236 q 511 1164 536 1200 l 453 1083 q 386 1058 436 1058 z "},"Ĕ":{"ha":635,"x_min":76,"x_max":635,"o":"m 110 0 q 82 10 90 0 q 76 42 74 19 l 171 931 q 183 963 174 953 q 213 972 193 972 l 613 972 q 635 931 639 972 l 632 908 q 601 867 628 867 l 289 867 l 256 550 l 536 550 q 558 508 563 550 l 556 486 q 525 444 551 444 l 244 444 l 208 106 l 521 106 q 540 96 535 106 q 543 64 546 86 l 540 42 q 531 10 538 19 q 510 0 524 0 l 110 0 m 418 1058 q 313 1094 354 1058 q 271 1196 271 1131 q 272 1218 271 1211 q 300 1239 275 1239 q 314 1233 310 1239 q 321 1219 318 1228 q 325 1204 324 1210 q 428 1150 340 1150 q 542 1204 515 1150 q 549 1219 544 1208 q 560 1235 554 1231 q 574 1239 565 1239 q 596 1218 599 1239 q 537 1100 588 1142 q 418 1058 486 1058 z "},"Ě":{"ha":635,"x_min":76,"x_max":635,"o":"m 110 0 q 82 10 90 0 q 76 42 74 19 l 171 931 q 183 963 174 953 q 213 972 193 972 l 613 972 q 635 931 639 972 l 632 908 q 601 867 628 867 l 289 867 l 256 550 l 536 550 q 558 508 563 550 l 556 486 q 525 444 551 444 l 244 444 l 208 106 l 521 106 q 540 96 535 106 q 543 64 546 86 l 540 42 q 531 10 538 19 q 510 0 524 0 l 110 0 m 407 1056 q 351 1086 368 1056 l 292 1208 q 285 1233 285 1226 q 294 1247 286 1242 q 314 1253 301 1253 l 340 1253 q 374 1232 361 1253 l 425 1132 l 497 1232 q 535 1253 513 1253 l 563 1253 q 581 1247 575 1253 q 586 1232 588 1242 q 575 1208 586 1225 l 488 1086 q 428 1056 467 1056 l 407 1056 z "},"Ê":{"ha":635,"x_min":76,"x_max":635,"o":"m 110 0 q 82 10 90 0 q 76 42 74 19 l 171 931 q 183 963 174 953 q 213 972 193 972 l 613 972 q 635 931 639 972 l 632 908 q 601 867 628 867 l 289 867 l 256 550 l 536 550 q 558 508 563 550 l 556 486 q 525 444 551 444 l 244 444 l 208 106 l 521 106 q 540 96 535 106 q 543 64 546 86 l 540 42 q 531 10 538 19 q 510 0 524 0 l 110 0 m 289 1046 q 270 1051 276 1046 q 264 1064 264 1056 q 270 1078 265 1069 q 276 1090 275 1086 l 363 1213 q 424 1243 385 1243 l 444 1243 q 499 1213 481 1243 l 560 1090 q 567 1067 567 1076 q 558 1051 565 1057 q 538 1046 550 1046 l 510 1046 q 478 1065 489 1046 l 425 1167 l 354 1065 q 315 1046 338 1046 l 289 1046 z "},"Ế":{"ha":635,"x_min":74,"x_max":707,"o":"m 563 1179 q 531 1193 531 1179 q 545 1237 531 1203 q 589 1333 560 1271 q 664 1369 608 1369 q 697 1365 688 1369 q 707 1351 707 1361 q 694 1322 707 1343 q 650 1257 681 1301 q 613 1204 636 1240 q 563 1179 594 1179 m 299 1046 q 280 1051 286 1046 q 274 1064 274 1056 q 278 1078 275 1071 q 283 1090 282 1085 l 364 1213 q 425 1243 385 1243 l 447 1243 q 501 1213 485 1243 l 553 1090 q 561 1067 561 1078 q 552 1051 560 1057 q 532 1046 544 1046 l 504 1046 q 485 1051 494 1046 q 471 1064 475 1056 l 426 1167 l 363 1064 q 347 1049 356 1053 q 325 1046 338 1046 l 299 1046 m 110 0 q 82 10 90 0 q 76 42 74 19 l 171 931 q 183 963 174 953 q 213 972 193 972 l 613 972 q 635 931 639 972 l 632 908 q 601 867 628 867 l 289 867 l 256 550 l 536 550 q 558 508 563 550 l 556 486 q 525 444 551 444 l 244 444 l 208 106 l 521 106 q 540 96 535 106 q 543 64 546 86 l 540 42 q 531 10 538 19 q 510 0 524 0 l 110 0 z "},"Ệ":{"ha":635,"x_min":76,"x_max":635,"o":"m 110 0 q 82 10 90 0 q 76 42 74 19 l 171 931 q 183 963 174 953 q 213 972 193 972 l 613 972 q 635 931 639 972 l 632 908 q 601 867 628 867 l 289 867 l 256 550 l 536 550 q 558 508 563 550 l 556 486 q 525 444 551 444 l 244 444 l 208 106 l 521 106 q 540 96 535 106 q 543 64 546 86 l 540 42 q 531 10 538 19 q 510 0 524 0 l 110 0 m 282 -243 q 225 -212 221 -243 l 232 -142 q 299 -111 235 -111 q 357 -142 360 -111 l 350 -212 q 282 -243 346 -243 m 289 1046 q 270 1051 276 1046 q 264 1064 264 1056 q 270 1078 265 1069 q 276 1090 275 1086 l 363 1213 q 424 1243 385 1243 l 444 1243 q 499 1213 481 1243 l 560 1090 q 567 1067 567 1076 q 558 1051 565 1057 q 538 1046 550 1046 l 510 1046 q 478 1065 489 1046 l 425 1167 l 354 1065 q 315 1046 338 1046 l 289 1046 z "},"Ề":{"ha":635,"x_min":74,"x_max":640,"o":"m 608 1179 q 558 1204 578 1179 l 517 1268 q 481 1325 492 1307 q 469 1351 469 1343 q 479 1365 469 1361 q 515 1369 489 1369 q 560 1360 540 1369 q 588 1333 579 1351 q 627 1237 614 1271 q 640 1193 640 1203 q 608 1179 640 1179 m 299 1046 q 280 1051 286 1046 q 274 1064 274 1056 q 278 1078 275 1071 q 283 1090 282 1085 l 364 1213 q 425 1243 385 1243 l 447 1243 q 501 1213 485 1243 l 553 1090 q 561 1067 561 1078 q 552 1051 560 1057 q 532 1046 544 1046 l 504 1046 q 485 1051 494 1046 q 471 1064 475 1056 l 426 1167 l 363 1064 q 347 1049 356 1053 q 325 1046 338 1046 l 299 1046 m 110 0 q 82 10 90 0 q 76 42 74 19 l 171 931 q 183 963 174 953 q 213 972 193 972 l 613 972 q 635 931 639 972 l 632 908 q 601 867 628 867 l 289 867 l 256 550 l 536 550 q 558 508 563 550 l 556 486 q 525 444 551 444 l 244 444 l 208 106 l 521 106 q 540 96 535 106 q 543 64 546 86 l 540 42 q 531 10 538 19 q 510 0 524 0 l 110 0 z "},"Ể":{"ha":635,"x_min":74,"x_max":683,"o":"m 578 1189 q 542 1198 557 1189 q 526 1217 526 1207 q 534 1230 526 1224 q 561 1247 542 1236 q 604 1299 604 1271 q 590 1326 604 1317 q 553 1336 575 1336 q 508 1327 522 1336 q 489 1318 493 1318 q 468 1335 481 1318 q 456 1364 456 1353 q 492 1390 456 1378 q 564 1403 528 1403 q 646 1380 608 1403 q 683 1308 683 1357 q 670 1258 683 1279 q 635 1219 657 1238 q 603 1199 621 1208 q 578 1189 585 1189 m 299 1046 q 280 1051 286 1046 q 274 1064 274 1056 q 278 1078 275 1071 q 283 1090 282 1085 l 364 1213 q 425 1243 385 1243 l 447 1243 q 501 1213 485 1243 l 553 1090 q 561 1067 561 1078 q 552 1051 560 1057 q 532 1046 544 1046 l 504 1046 q 485 1051 494 1046 q 471 1064 475 1056 l 426 1167 l 363 1064 q 347 1049 356 1053 q 325 1046 338 1046 l 299 1046 m 110 0 q 82 10 90 0 q 76 42 74 19 l 171 931 q 183 963 174 953 q 213 972 193 972 l 613 972 q 635 931 639 972 l 632 908 q 601 867 628 867 l 289 867 l 256 550 l 536 550 q 558 508 563 550 l 556 486 q 525 444 551 444 l 244 444 l 208 106 l 521 106 q 540 96 535 106 q 543 64 546 86 l 540 42 q 531 10 538 19 q 510 0 524 0 l 110 0 z "},"Ễ":{"ha":635,"x_min":74,"x_max":639,"o":"m 258 1222 q 246 1239 246 1229 q 250 1257 246 1247 q 293 1331 268 1308 q 354 1353 318 1353 q 392 1345 372 1353 q 443 1324 413 1338 q 515 1297 493 1297 q 540 1306 529 1297 q 563 1333 551 1314 q 588 1354 574 1354 q 601 1350 593 1354 l 610 1346 q 621 1339 617 1343 q 625 1329 625 1335 q 619 1310 625 1321 q 576 1238 601 1260 q 517 1215 551 1215 q 474 1223 496 1215 q 424 1246 453 1231 q 385 1263 404 1256 q 351 1271 365 1271 q 328 1263 339 1271 q 307 1233 318 1254 q 285 1214 296 1214 q 271 1217 282 1214 l 258 1222 m 299 1046 q 275 1065 272 1046 q 279 1078 275 1069 q 286 1090 283 1086 l 360 1182 q 422 1213 386 1213 l 444 1213 q 499 1182 481 1213 l 553 1090 q 561 1065 561 1074 q 552 1051 560 1057 q 532 1046 544 1046 l 504 1046 q 469 1064 483 1046 l 425 1144 l 364 1064 q 325 1046 350 1046 l 299 1046 m 110 0 q 82 10 90 0 q 76 42 74 19 l 171 931 q 183 963 174 953 q 213 972 193 972 l 613 972 q 635 931 639 972 l 632 908 q 601 867 628 867 l 289 867 l 256 550 l 536 550 q 558 508 563 550 l 556 486 q 525 444 551 444 l 244 444 l 208 106 l 521 106 q 540 96 535 106 q 543 64 546 86 l 540 42 q 531 10 538 19 q 510 0 524 0 l 110 0 z "},"Ë":{"ha":635,"x_min":76,"x_max":635,"o":"m 110 0 q 82 10 90 0 q 76 42 74 19 l 171 931 q 183 963 174 953 q 213 972 193 972 l 613 972 q 635 931 639 972 l 632 908 q 601 867 628 867 l 289 867 l 256 550 l 536 550 q 558 508 563 550 l 556 486 q 525 444 551 444 l 244 444 l 208 106 l 521 106 q 540 96 535 106 q 543 64 546 86 l 540 42 q 531 10 538 19 q 510 0 524 0 l 110 0 m 331 1089 q 282 1119 278 1089 l 289 1190 q 347 1221 292 1221 q 397 1190 400 1221 l 390 1119 q 331 1089 386 1089 m 506 1089 q 457 1119 453 1089 l 464 1190 q 522 1221 467 1221 q 572 1190 575 1221 l 565 1119 q 506 1089 561 1089 z "},"Ė":{"ha":635,"x_min":76,"x_max":635,"o":"m 110 0 q 82 10 90 0 q 76 42 74 19 l 171 931 q 183 963 174 953 q 213 972 193 972 l 613 972 q 635 931 639 972 l 632 908 q 601 867 628 867 l 289 867 l 256 550 l 536 550 q 558 508 563 550 l 556 486 q 525 444 551 444 l 244 444 l 208 106 l 521 106 q 540 96 535 106 q 543 64 546 86 l 540 42 q 531 10 538 19 q 510 0 524 0 l 110 0 m 418 1089 q 361 1119 357 1089 l 368 1190 q 435 1221 371 1221 q 493 1190 496 1221 l 486 1119 q 418 1089 482 1089 z "},"Ẹ":{"ha":635,"x_min":76,"x_max":635,"o":"m 110 0 q 82 10 90 0 q 76 42 74 19 l 171 931 q 183 963 174 953 q 213 972 193 972 l 613 972 q 635 931 639 972 l 632 908 q 601 867 628 867 l 289 867 l 256 550 l 536 550 q 558 508 563 550 l 556 486 q 525 444 551 444 l 244 444 l 208 106 l 521 106 q 540 96 535 106 q 543 64 546 86 l 540 42 q 531 10 538 19 q 510 0 524 0 l 110 0 m 282 -243 q 225 -212 221 -243 l 232 -142 q 299 -111 235 -111 q 357 -142 360 -111 l 350 -212 q 282 -243 346 -243 z "},"È":{"ha":635,"x_min":76,"x_max":635,"o":"m 110 0 q 82 10 90 0 q 76 42 74 19 l 171 931 q 183 963 174 953 q 213 972 193 972 l 613 972 q 635 931 639 972 l 632 908 q 601 867 628 867 l 289 867 l 256 550 l 536 550 q 558 508 563 550 l 556 486 q 525 444 551 444 l 244 444 l 208 106 l 521 106 q 540 96 535 106 q 543 64 546 86 l 540 42 q 531 10 538 19 q 510 0 524 0 l 110 0 m 432 1058 q 367 1083 383 1058 q 273 1210 289 1188 q 257 1244 257 1233 q 271 1258 257 1254 q 315 1263 285 1263 q 394 1226 375 1263 l 422 1168 q 451 1104 440 1128 q 461 1072 461 1081 q 455 1062 461 1065 q 432 1058 449 1058 z "},"Ẻ":{"ha":635,"x_min":76,"x_max":635,"o":"m 110 0 q 82 10 90 0 q 76 42 74 19 l 171 931 q 183 963 174 953 q 213 972 193 972 l 613 972 q 635 931 639 972 l 632 908 q 601 867 628 867 l 289 867 l 256 550 l 536 550 q 558 508 563 550 l 556 486 q 525 444 551 444 l 244 444 l 208 106 l 521 106 q 540 96 535 106 q 543 64 546 86 l 540 42 q 531 10 538 19 q 510 0 524 0 l 110 0 m 417 1028 q 388 1035 406 1028 q 371 1051 371 1043 q 378 1072 371 1064 q 406 1097 386 1081 q 443 1135 429 1117 q 457 1179 457 1153 q 442 1207 457 1197 q 406 1217 428 1217 q 360 1208 375 1217 q 342 1199 346 1199 q 321 1216 333 1199 q 308 1244 308 1233 q 344 1273 308 1258 q 417 1288 381 1288 q 503 1264 463 1288 q 543 1189 543 1240 q 517 1111 543 1147 q 460 1051 492 1075 q 417 1028 428 1028 z "},"Ē":{"ha":635,"x_min":76,"x_max":635,"o":"m 110 0 q 82 10 90 0 q 76 42 74 19 l 171 931 q 183 963 174 953 q 213 972 193 972 l 613 972 q 635 931 639 972 l 632 908 q 601 867 628 867 l 289 867 l 256 550 l 536 550 q 558 508 563 550 l 556 486 q 525 444 551 444 l 244 444 l 208 106 l 521 106 q 540 96 535 106 q 543 64 546 86 l 540 42 q 531 10 538 19 q 510 0 524 0 l 110 0 m 282 1096 q 260 1138 256 1096 l 261 1151 q 292 1193 265 1193 l 568 1193 q 588 1183 582 1193 q 590 1151 593 1174 l 589 1138 q 579 1106 586 1115 q 558 1096 572 1096 l 282 1096 z "},"Ę":{"ha":635,"x_min":74,"x_max":651,"o":"m 624 -149 q 651 -182 651 -149 q 633 -219 651 -207 q 542 -246 594 -246 q 440 -206 467 -246 q 414 -124 414 -167 q 422 -65 414 -99 q 449 0 431 -32 l 110 0 q 82 10 90 0 q 76 42 74 19 l 171 931 q 183 963 174 953 q 213 972 193 972 l 613 972 q 635 931 639 972 l 632 908 q 601 867 628 867 l 289 867 l 256 550 l 536 550 q 558 508 563 550 l 556 486 q 525 444 551 444 l 244 444 l 208 106 l 521 106 q 540 96 535 106 q 543 64 546 86 l 540 42 q 533 14 538 21 l 535 14 q 508 -46 517 -15 q 499 -99 499 -76 q 568 -158 499 -158 q 599 -153 579 -158 q 624 -149 618 -149 z "},"Ẽ":{"ha":635,"x_min":76,"x_max":635,"o":"m 110 0 q 82 10 90 0 q 76 42 74 19 l 171 931 q 183 963 174 953 q 213 972 193 972 l 613 972 q 635 931 639 972 l 632 908 q 601 867 628 867 l 289 867 l 256 550 l 536 550 q 558 508 563 550 l 556 486 q 525 444 551 444 l 244 444 l 208 106 l 521 106 q 540 96 535 106 q 543 64 546 86 l 540 42 q 531 10 538 19 q 510 0 524 0 l 110 0 m 218 1074 q 204 1090 204 1079 q 208 1108 204 1099 q 256 1182 229 1160 q 324 1204 283 1204 q 365 1197 344 1204 q 419 1175 385 1190 q 500 1149 475 1149 q 527 1156 515 1149 q 553 1185 539 1164 q 579 1206 564 1206 q 594 1201 586 1206 l 604 1197 q 617 1190 614 1193 q 621 1181 621 1186 q 615 1161 621 1172 q 567 1088 594 1110 q 501 1067 540 1067 q 456 1074 479 1067 q 400 1097 432 1082 q 358 1115 379 1107 q 321 1122 336 1122 q 296 1114 307 1122 q 271 1085 285 1106 q 247 1065 260 1065 q 232 1068 243 1065 l 218 1074 z "},"F":{"ha":588,"x_min":72,"x_max":600,"o":"m 125 -3 q 75 28 72 -3 l 171 931 q 183 963 174 953 q 213 972 193 972 l 574 972 q 596 931 600 972 l 593 908 q 563 867 589 867 l 289 867 l 256 550 l 506 550 q 528 508 532 550 l 525 486 q 494 444 521 444 l 244 444 l 200 28 q 144 -3 197 -3 l 125 -3 z "},"G":{"ha":767,"x_min":75,"x_max":711,"o":"m 488 871 q 297 774 363 871 q 211 490 231 678 q 206 385 206 442 q 251 174 206 251 q 397 97 296 97 q 522 115 471 97 l 554 425 l 436 425 q 413 453 413 425 q 414 467 413 461 l 415 489 q 447 531 419 531 l 653 531 q 686 489 690 531 l 644 92 q 560 15 639 39 q 382 -8 482 -8 q 157 88 239 -8 q 75 375 75 185 q 81 478 75 429 q 148 763 100 653 q 281 927 196 874 q 497 981 367 981 q 597 967 547 981 q 679 934 647 954 q 711 896 711 914 q 689 847 711 879 q 653 814 667 814 q 625 830 649 814 q 567 858 601 846 q 488 871 533 871 z "},"Ğ":{"ha":767,"x_min":75,"x_max":711,"o":"m 488 871 q 297 774 363 871 q 211 490 231 678 q 206 385 206 442 q 251 174 206 251 q 397 97 296 97 q 522 115 471 97 l 554 425 l 436 425 q 413 453 413 425 q 414 467 413 461 l 415 489 q 447 531 419 531 l 653 531 q 686 489 690 531 l 644 92 q 560 15 639 39 q 382 -8 482 -8 q 157 88 239 -8 q 75 375 75 185 q 81 478 75 429 q 148 763 100 653 q 281 927 196 874 q 497 981 367 981 q 597 967 547 981 q 679 934 647 954 q 711 896 711 914 q 689 847 711 879 q 653 814 667 814 q 625 830 649 814 q 567 858 601 846 q 488 871 533 871 m 482 1058 q 376 1094 418 1058 q 335 1196 335 1131 q 336 1218 335 1211 q 364 1239 339 1239 q 378 1233 374 1239 q 385 1219 382 1228 q 389 1204 388 1210 q 492 1150 404 1150 q 606 1204 579 1150 q 613 1219 608 1208 q 624 1235 618 1231 q 638 1239 629 1239 q 660 1218 663 1239 q 601 1100 651 1142 q 482 1058 550 1058 z "},"Ĝ":{"ha":767,"x_min":75,"x_max":711,"o":"m 488 871 q 297 774 363 871 q 211 490 231 678 q 206 385 206 442 q 251 174 206 251 q 397 97 296 97 q 522 115 471 97 l 554 425 l 436 425 q 413 453 413 425 q 414 467 413 461 l 415 489 q 447 531 419 531 l 653 531 q 686 489 690 531 l 644 92 q 560 15 639 39 q 382 -8 482 -8 q 157 88 239 -8 q 75 375 75 185 q 81 478 75 429 q 148 763 100 653 q 281 927 196 874 q 497 981 367 981 q 597 967 547 981 q 679 934 647 954 q 711 896 711 914 q 689 847 711 879 q 653 814 667 814 q 625 830 649 814 q 567 858 601 846 q 488 871 533 871 m 353 1046 q 334 1051 340 1046 q 328 1064 328 1056 q 334 1078 329 1069 q 340 1090 339 1086 l 426 1213 q 488 1243 449 1243 l 508 1243 q 563 1213 544 1243 l 624 1090 q 631 1067 631 1076 q 622 1051 629 1057 q 601 1046 614 1046 l 574 1046 q 542 1065 553 1046 l 489 1167 l 418 1065 q 379 1046 401 1046 l 353 1046 z "},"Ģ":{"ha":767,"x_min":75,"x_max":711,"o":"m 488 871 q 297 774 363 871 q 211 490 231 678 q 206 385 206 442 q 251 174 206 251 q 397 97 296 97 q 522 115 471 97 l 554 425 l 436 425 q 413 453 413 425 q 414 467 413 461 l 415 489 q 447 531 419 531 l 653 531 q 686 489 690 531 l 644 92 q 560 15 639 39 q 382 -8 482 -8 q 157 88 239 -8 q 75 375 75 185 q 81 478 75 429 q 148 763 100 653 q 281 927 196 874 q 497 981 367 981 q 597 967 547 981 q 679 934 647 954 q 711 896 711 914 q 689 847 711 879 q 653 814 667 814 q 625 830 649 814 q 567 858 601 846 q 488 871 533 871 m 333 -326 q 306 -322 318 -326 q 294 -306 294 -317 q 299 -283 294 -297 q 306 -262 304 -268 q 327 -193 319 -226 q 335 -115 335 -160 q 348 -83 335 -94 q 388 -71 361 -71 l 401 -71 q 438 -81 425 -71 q 450 -110 450 -92 q 430 -222 450 -172 q 382 -299 410 -271 q 333 -326 354 -326 z "},"Ġ":{"ha":767,"x_min":75,"x_max":711,"o":"m 488 871 q 297 774 363 871 q 211 490 231 678 q 206 385 206 442 q 251 174 206 251 q 397 97 296 97 q 522 115 471 97 l 554 425 l 436 425 q 413 453 413 425 q 414 467 413 461 l 415 489 q 447 531 419 531 l 653 531 q 686 489 690 531 l 644 92 q 560 15 639 39 q 382 -8 482 -8 q 157 88 239 -8 q 75 375 75 185 q 81 478 75 429 q 148 763 100 653 q 281 927 196 874 q 497 981 367 981 q 597 967 547 981 q 679 934 647 954 q 711 896 711 914 q 689 847 711 879 q 653 814 667 814 q 625 830 649 814 q 567 858 601 846 q 488 871 533 871 m 482 1089 q 425 1119 421 1089 l 432 1190 q 499 1221 435 1221 q 557 1190 560 1221 l 550 1119 q 482 1089 546 1089 z "},"H":{"ha":835,"x_min":72,"x_max":790,"o":"m 125 -3 q 75 28 72 -3 l 172 944 q 228 975 175 975 l 249 975 q 297 944 300 975 l 256 551 l 621 551 l 663 944 q 718 975 665 975 l 738 975 q 788 944 790 975 l 690 28 q 635 -3 688 -3 l 615 -3 q 565 28 563 -3 l 610 446 l 244 446 l 200 28 q 146 -3 197 -3 l 125 -3 z "},"Ħ":{"ha":835,"x_min":17,"x_max":903,"o":"m 879 781 q 898 772 893 781 q 903 744 903 763 q 868 682 903 682 l 760 682 l 690 28 q 635 -3 688 -3 l 615 -3 q 565 28 563 -3 l 610 446 l 244 446 l 200 28 q 146 -3 197 -3 l 125 -3 q 75 28 72 -3 l 144 682 l 40 682 q 22 692 26 682 q 17 719 17 701 q 51 781 17 781 l 154 781 l 172 944 q 228 975 175 975 l 249 975 q 297 944 300 975 l 279 781 l 644 781 l 663 944 q 718 975 665 975 l 738 975 q 788 944 790 975 l 769 781 l 879 781 m 621 551 l 635 682 l 269 682 l 256 551 l 621 551 z "},"Ĥ":{"ha":835,"x_min":75,"x_max":788,"o":"m 125 -3 q 75 28 72 -3 l 172 944 q 228 975 175 975 l 249 975 q 297 944 300 975 l 256 551 l 621 551 l 663 944 q 718 975 665 975 l 738 975 q 788 944 790 975 l 690 28 q 635 -3 688 -3 l 615 -3 q 565 28 563 -3 l 610 446 l 244 446 l 200 28 q 146 -3 197 -3 l 125 -3 m 365 1046 q 347 1051 353 1046 q 340 1064 340 1056 q 347 1078 342 1069 q 353 1090 351 1086 l 439 1213 q 500 1243 461 1243 l 521 1243 q 575 1213 557 1243 l 636 1090 q 643 1067 643 1076 q 634 1051 642 1057 q 614 1046 626 1046 l 586 1046 q 554 1065 565 1046 l 501 1167 l 431 1065 q 392 1046 414 1046 l 365 1046 z "},"Ḥ":{"ha":835,"x_min":75,"x_max":788,"o":"m 125 -3 q 75 28 72 -3 l 172 944 q 228 975 175 975 l 249 975 q 297 944 300 975 l 256 551 l 621 551 l 663 944 q 718 975 665 975 l 738 975 q 788 944 790 975 l 690 28 q 635 -3 688 -3 l 615 -3 q 565 28 563 -3 l 610 446 l 244 446 l 200 28 q 146 -3 197 -3 l 125 -3 m 356 -243 q 299 -212 294 -243 l 306 -142 q 372 -111 308 -111 q 431 -142 433 -111 l 424 -212 q 356 -243 419 -243 z "},"I":{"ha":364,"x_min":81,"x_max":308,"o":"m 133 -3 q 83 28 81 -3 l 181 944 q 236 975 183 975 l 257 975 q 306 944 308 975 l 208 28 q 154 -3 206 -3 l 133 -3 z "},"Ĳ":{"ha":857,"x_min":83,"x_max":794,"o":"m 133 -3 q 83 28 81 -3 l 181 944 q 236 975 183 975 l 257 975 q 306 944 308 975 l 208 28 q 154 -3 206 -3 l 133 -3 m 450 -8 q 367 3 406 -8 q 329 36 328 15 q 344 84 332 56 q 369 113 357 113 q 401 106 378 113 q 447 100 424 100 q 552 140 517 100 q 597 271 588 181 l 668 944 q 724 975 671 975 l 743 975 q 794 944 797 975 l 725 285 q 644 69 711 147 q 450 -8 576 -8 z "},"Í":{"ha":364,"x_min":83,"x_max":400,"o":"m 133 -3 q 83 28 81 -3 l 181 944 q 236 975 183 975 l 257 975 q 306 944 308 975 l 208 28 q 154 -3 206 -3 l 133 -3 m 225 1058 q 196 1072 196 1058 q 213 1119 196 1082 q 264 1226 231 1157 q 342 1263 281 1263 q 386 1258 372 1263 q 400 1244 400 1254 q 388 1218 400 1236 q 350 1164 375 1200 l 292 1083 q 225 1058 275 1058 z "},"Ĭ":{"ha":364,"x_min":83,"x_max":435,"o":"m 133 -3 q 83 28 81 -3 l 181 944 q 236 975 183 975 l 257 975 q 306 944 308 975 l 208 28 q 154 -3 206 -3 l 133 -3 m 257 1058 q 151 1094 193 1058 q 110 1196 110 1131 q 111 1218 110 1211 q 139 1239 114 1239 q 153 1233 149 1239 q 160 1219 157 1228 q 164 1204 163 1210 q 267 1150 179 1150 q 381 1204 354 1150 q 388 1219 383 1208 q 399 1235 393 1231 q 413 1239 404 1239 q 435 1218 438 1239 q 376 1100 426 1142 q 257 1058 325 1058 z "},"Î":{"ha":364,"x_min":83,"x_max":406,"o":"m 133 -3 q 83 28 81 -3 l 181 944 q 236 975 183 975 l 257 975 q 306 944 308 975 l 208 28 q 154 -3 206 -3 l 133 -3 m 128 1046 q 109 1051 115 1046 q 103 1064 103 1056 q 109 1078 104 1069 q 115 1090 114 1086 l 201 1213 q 263 1243 224 1243 l 283 1243 q 338 1213 319 1243 l 399 1090 q 406 1067 406 1076 q 397 1051 404 1057 q 376 1046 389 1046 l 349 1046 q 317 1065 328 1046 l 264 1167 l 193 1065 q 154 1046 176 1046 l 128 1046 z "},"Ï":{"ha":364,"x_min":83,"x_max":411,"o":"m 133 -3 q 83 28 81 -3 l 181 944 q 236 975 183 975 l 257 975 q 306 944 308 975 l 208 28 q 154 -3 206 -3 l 133 -3 m 169 1089 q 121 1119 117 1089 l 128 1190 q 186 1221 131 1221 q 236 1190 239 1221 l 229 1119 q 169 1089 225 1089 m 344 1089 q 296 1119 292 1089 l 303 1190 q 361 1221 306 1221 q 411 1190 414 1221 l 404 1119 q 344 1089 400 1089 z "},"İ":{"ha":364,"x_min":83,"x_max":332,"o":"m 133 -3 q 83 28 81 -3 l 181 944 q 236 975 183 975 l 257 975 q 306 944 308 975 l 208 28 q 154 -3 206 -3 l 133 -3 m 257 1089 q 200 1119 196 1089 l 207 1190 q 274 1221 210 1221 q 332 1190 335 1221 l 325 1119 q 257 1089 321 1089 z "},"Ị":{"ha":364,"x_min":60,"x_max":306,"o":"m 133 -3 q 83 28 81 -3 l 181 944 q 236 975 183 975 l 257 975 q 306 944 308 975 l 208 28 q 154 -3 206 -3 l 133 -3 m 117 -243 q 60 -212 56 -243 l 67 -142 q 133 -111 69 -111 q 192 -142 194 -111 l 185 -212 q 117 -243 181 -243 z "},"Ì":{"ha":364,"x_min":83,"x_max":306,"o":"m 133 -3 q 83 28 81 -3 l 181 944 q 236 975 183 975 l 257 975 q 306 944 308 975 l 208 28 q 154 -3 206 -3 l 133 -3 m 271 1058 q 206 1083 222 1058 q 112 1210 128 1188 q 96 1244 96 1233 q 110 1258 96 1254 q 154 1263 124 1263 q 233 1226 214 1263 l 261 1168 q 290 1104 279 1128 q 300 1072 300 1081 q 294 1062 300 1065 q 271 1058 288 1058 z "},"Ỉ":{"ha":364,"x_min":83,"x_max":382,"o":"m 133 -3 q 83 28 81 -3 l 181 944 q 236 975 183 975 l 257 975 q 306 944 308 975 l 208 28 q 154 -3 206 -3 l 133 -3 m 256 1028 q 227 1035 244 1028 q 210 1051 210 1043 q 217 1072 210 1064 q 244 1097 225 1081 q 282 1135 268 1117 q 296 1179 296 1153 q 281 1207 296 1197 q 244 1217 267 1217 q 199 1208 214 1217 q 181 1199 185 1199 q 160 1216 172 1199 q 147 1244 147 1233 q 183 1273 147 1258 q 256 1288 219 1288 q 342 1264 301 1288 q 382 1189 382 1240 q 356 1111 382 1147 q 299 1051 331 1075 q 256 1028 267 1028 z "},"Ī":{"ha":364,"x_min":83,"x_max":429,"o":"m 133 -3 q 83 28 81 -3 l 181 944 q 236 975 183 975 l 257 975 q 306 944 308 975 l 208 28 q 154 -3 206 -3 l 133 -3 m 121 1096 q 99 1138 94 1096 l 100 1151 q 131 1193 104 1193 l 407 1193 q 426 1183 421 1193 q 429 1151 432 1174 l 428 1138 q 418 1106 425 1115 q 397 1096 411 1096 l 121 1096 z "},"Į":{"ha":364,"x_min":81,"x_max":321,"o":"m 293 -147 q 321 -181 321 -147 q 303 -218 321 -206 q 211 -244 264 -244 q 110 -205 136 -244 q 83 -122 83 -165 q 117 -1 83 -62 q 83 28 81 3 l 181 944 q 236 975 183 975 l 257 975 q 306 944 308 975 l 208 28 q 201 11 208 18 q 176 -47 185 -18 q 168 -97 168 -76 q 238 -157 168 -157 q 268 -152 249 -157 q 293 -147 288 -147 z "},"Ĩ":{"ha":364,"x_min":64,"x_max":439,"o":"m 76 1074 q 64 1090 64 1079 q 67 1108 64 1101 q 110 1182 85 1160 q 171 1204 135 1204 q 210 1197 189 1204 q 258 1174 231 1189 q 296 1156 276 1164 q 329 1149 315 1149 q 355 1156 344 1149 q 376 1185 365 1164 q 401 1206 388 1206 q 414 1201 408 1206 l 424 1197 q 435 1190 431 1194 q 439 1181 439 1186 q 433 1161 439 1172 q 390 1088 415 1110 q 331 1067 365 1067 q 240 1097 299 1067 q 201 1115 221 1107 q 168 1122 182 1122 q 145 1114 156 1122 q 124 1085 135 1106 q 101 1065 113 1065 q 89 1068 97 1065 l 76 1074 m 133 -3 q 83 28 81 -3 l 181 944 q 236 975 183 975 l 257 975 q 306 944 308 975 l 208 28 q 154 -3 206 -3 l 133 -3 z "},"J":{"ha":493,"x_min":-36,"x_max":433,"o":"m 86 -8 q 3 3 42 -8 q -35 36 -36 15 q -19 84 -32 56 q 6 113 -7 113 q 37 106 14 113 q 83 100 60 100 q 188 140 153 100 q 233 271 224 181 l 304 944 q 360 975 307 975 l 379 975 q 431 944 433 975 l 361 285 q 280 69 347 147 q 86 -8 213 -8 z "},"Ĵ":{"ha":493,"x_min":-35,"x_max":528,"o":"m 86 -8 q 3 3 42 -8 q -35 36 -36 15 q -19 84 -32 56 q 6 113 -7 113 q 37 106 14 113 q 83 100 60 100 q 188 140 153 100 q 233 271 224 181 l 304 944 q 360 975 307 975 l 379 975 q 431 944 433 975 l 361 285 q 280 69 347 147 q 86 -8 213 -8 m 250 1046 q 231 1051 238 1046 q 225 1064 225 1056 q 231 1078 226 1069 q 238 1090 236 1086 l 324 1213 q 385 1243 346 1243 l 406 1243 q 460 1213 442 1243 l 521 1090 q 528 1067 528 1076 q 519 1051 526 1057 q 499 1046 511 1046 l 471 1046 q 439 1065 450 1046 l 386 1167 l 315 1065 q 276 1046 299 1046 l 250 1046 z "},"K":{"ha":708,"x_min":72,"x_max":721,"o":"m 125 -3 q 75 28 72 -3 l 172 944 q 228 975 175 975 l 246 975 q 297 944 300 975 l 253 519 l 257 519 l 583 956 q 650 975 599 975 l 674 975 q 709 970 697 975 q 721 957 721 965 q 706 929 718 944 l 375 489 l 651 39 q 658 17 660 25 q 644 1 657 6 q 601 -3 632 -3 l 586 -3 q 543 0 558 -3 q 521 15 528 3 l 250 463 l 246 463 l 200 28 q 143 -3 197 -3 l 125 -3 z "},"Ķ":{"ha":708,"x_min":75,"x_max":721,"o":"m 125 -3 q 75 28 72 -3 l 172 944 q 228 975 175 975 l 246 975 q 297 944 300 975 l 253 519 l 257 519 l 583 956 q 650 975 599 975 l 674 975 q 709 970 697 975 q 721 957 721 965 q 706 929 718 944 l 375 489 l 651 39 q 658 17 660 25 q 644 1 657 6 q 601 -3 632 -3 l 586 -3 q 543 0 558 -3 q 521 15 528 3 l 250 463 l 246 463 l 200 28 q 143 -3 197 -3 l 125 -3 m 257 -326 q 230 -322 242 -326 q 218 -306 218 -317 q 223 -283 218 -297 q 229 -262 228 -268 q 251 -193 243 -226 q 258 -115 258 -160 q 272 -83 258 -94 q 311 -71 285 -71 l 325 -71 q 361 -81 349 -71 q 374 -110 374 -92 q 353 -222 374 -172 q 306 -299 333 -271 q 257 -326 278 -326 z "},"L":{"ha":567,"x_min":74,"x_max":524,"o":"m 110 0 q 82 10 90 0 q 76 42 74 19 l 172 944 q 228 975 175 975 l 247 975 q 297 944 300 975 l 208 106 l 497 106 q 517 96 511 106 q 521 64 524 86 l 518 42 q 486 0 514 0 l 110 0 z "},"Ǉ":{"ha":997,"x_min":69,"x_max":913,"o":"m 233 975 q 274 967 263 975 q 286 944 286 960 l 199 106 l 486 106 q 510 75 510 106 q 503 20 510 40 q 475 0 497 0 l 107 0 q 77 10 85 0 q 69 42 69 19 l 164 944 q 222 975 167 975 l 233 975 m 860 975 q 901 967 889 975 q 913 944 913 960 l 821 72 q 730 -143 807 -65 q 506 -221 653 -221 q 418 -210 453 -221 q 383 -176 383 -200 q 404 -94 383 -94 q 435 -101 411 -94 q 496 -107 458 -107 q 640 -65 592 -107 q 697 67 688 -24 l 790 944 q 849 975 793 975 l 860 975 z "},"Ĺ":{"ha":567,"x_min":76,"x_max":521,"o":"m 110 0 q 82 10 90 0 q 76 42 74 19 l 172 944 q 228 975 175 975 l 247 975 q 297 944 300 975 l 208 106 l 497 106 q 517 96 511 106 q 521 64 524 86 l 518 42 q 486 0 514 0 l 110 0 m 219 1061 q 190 1075 190 1061 q 208 1122 190 1085 q 258 1229 225 1160 q 336 1265 275 1265 q 381 1261 367 1265 q 394 1247 394 1257 q 382 1221 394 1239 q 344 1167 369 1203 l 286 1086 q 219 1061 269 1061 z "},"Ľ":{"ha":567,"x_min":76,"x_max":543,"o":"m 110 0 q 82 10 90 0 q 76 42 74 19 l 172 944 q 228 975 175 975 l 247 975 q 297 944 300 975 l 208 106 l 497 106 q 517 96 511 106 q 521 64 524 86 l 518 42 q 486 0 514 0 l 110 0 m 442 731 q 414 735 426 731 q 401 751 401 740 q 407 790 401 760 q 419 928 419 860 q 433 960 419 949 q 475 972 447 972 l 488 972 q 528 962 514 972 q 543 933 543 951 q 526 828 543 875 q 484 756 508 782 q 442 731 460 731 z "},"Ļ":{"ha":567,"x_min":76,"x_max":521,"o":"m 110 0 q 82 10 90 0 q 76 42 74 19 l 172 944 q 228 975 175 975 l 247 975 q 297 944 300 975 l 208 106 l 497 106 q 517 96 511 106 q 521 64 524 86 l 518 42 q 486 0 514 0 l 110 0 m 231 -326 q 203 -322 215 -326 q 192 -306 192 -317 q 197 -283 192 -297 q 203 -262 201 -268 q 224 -193 217 -226 q 232 -115 232 -160 q 245 -83 232 -94 q 285 -71 258 -71 l 299 -71 q 335 -81 322 -71 q 347 -110 347 -92 q 327 -222 347 -172 q 279 -299 307 -271 q 231 -326 251 -326 z "},"Ŀ":{"ha":567,"x_min":76,"x_max":521,"o":"m 110 0 q 82 10 90 0 q 76 42 74 19 l 172 944 q 228 975 175 975 l 247 975 q 297 944 300 975 l 208 106 l 497 106 q 517 96 511 106 q 521 64 524 86 l 518 42 q 486 0 514 0 l 110 0 m 411 429 q 367 446 383 429 q 350 492 350 463 q 372 550 350 528 q 426 572 394 572 q 472 556 454 572 q 489 511 489 539 q 466 451 489 474 q 411 429 443 429 z "},"ǈ":{"ha":913,"x_min":76,"x_max":856,"o":"m 110 0 q 82 10 90 0 q 76 42 74 19 l 172 944 q 228 975 175 975 l 247 975 q 297 944 300 975 l 208 106 l 497 106 q 517 96 511 106 q 521 64 524 86 l 518 42 q 486 0 514 0 l 110 0 m 572 -294 q 479 -253 476 -294 q 492 -212 481 -237 q 515 -187 503 -187 q 532 -191 521 -187 q 565 -194 543 -194 q 628 -100 618 -194 l 711 699 q 771 729 715 729 l 776 729 q 828 699 832 729 l 743 -111 q 681 -254 732 -214 q 572 -294 631 -294 m 781 843 q 724 874 719 843 l 731 944 q 797 975 733 975 q 856 944 858 975 l 849 874 q 781 843 844 843 z "},"Ł":{"ha":567,"x_min":19,"x_max":521,"o":"m 494 106 q 515 96 508 106 q 518 64 521 86 l 515 42 q 483 0 511 0 l 107 0 q 79 10 88 0 q 74 42 71 19 l 119 471 l 46 428 q 32 422 35 422 q 23 427 26 422 q 19 442 19 432 l 19 450 q 46 492 19 476 l 126 540 l 169 944 q 225 975 172 975 l 244 975 q 294 944 297 975 l 260 619 l 361 679 q 375 685 372 685 q 384 680 381 685 q 388 665 388 675 l 388 657 q 361 615 388 631 l 253 551 l 206 106 l 494 106 z "},"M":{"ha":957,"x_min":63,"x_max":924,"o":"m 454 332 q 425 350 431 332 l 296 669 q 264 765 285 696 l 258 763 q 256 664 260 719 l 189 28 q 132 -3 185 -3 l 115 -3 q 67 28 63 -3 l 163 944 q 218 975 165 975 l 247 975 q 297 950 289 975 l 475 515 q 489 449 486 485 q 519 515 500 485 l 786 950 q 842 975 803 975 l 871 975 q 921 944 924 975 l 825 28 q 768 -3 821 -3 l 751 -3 q 703 28 699 -3 l 769 664 q 786 763 772 694 l 781 765 q 729 669 758 719 l 533 350 q 501 332 524 332 l 454 332 z "},"N":{"ha":819,"x_min":63,"x_max":782,"o":"m 115 -3 q 67 28 63 -3 l 163 944 q 218 975 165 975 l 251 975 q 285 969 272 975 q 303 947 297 963 l 557 313 q 585 225 575 264 l 592 228 q 589 278 589 244 q 590 319 589 306 l 657 944 q 713 975 660 975 l 729 975 q 779 944 782 975 l 683 28 q 626 -3 679 -3 l 601 -3 q 554 18 563 -3 l 289 674 q 263 761 274 713 l 256 758 q 258 708 258 742 q 257 667 258 681 l 189 28 q 132 -3 186 -3 l 115 -3 z "},"Ǌ":{"ha":1313,"x_min":67,"x_max":1250,"o":"m 115 -3 q 67 28 63 -3 l 163 944 q 218 975 165 975 l 251 975 q 285 969 272 975 q 303 947 297 963 l 557 313 q 585 225 575 264 l 592 228 q 589 278 589 244 q 590 319 589 306 l 657 944 q 713 975 660 975 l 729 975 q 779 944 782 975 l 683 28 q 626 -3 679 -3 l 601 -3 q 554 18 563 -3 l 289 674 q 263 761 274 713 l 256 758 q 258 708 258 742 q 257 667 258 681 l 189 28 q 132 -3 186 -3 l 115 -3 m 906 -8 q 822 3 861 -8 q 785 36 783 15 q 800 84 788 56 q 825 113 813 113 q 856 106 833 113 q 903 100 879 100 q 1008 140 972 100 q 1053 271 1043 181 l 1124 944 q 1179 975 1126 975 l 1199 975 q 1250 944 1253 975 l 1181 285 q 1099 69 1167 147 q 906 -8 1032 -8 z "},"Ń":{"ha":819,"x_min":67,"x_max":779,"o":"m 115 -3 q 67 28 63 -3 l 163 944 q 218 975 165 975 l 251 975 q 285 969 272 975 q 303 947 297 963 l 557 313 q 585 225 575 264 l 592 228 q 589 278 589 244 q 590 319 589 306 l 657 944 q 713 975 660 975 l 729 975 q 779 944 782 975 l 683 28 q 626 -3 679 -3 l 601 -3 q 554 18 563 -3 l 289 674 q 263 761 274 713 l 256 758 q 258 708 258 742 q 257 667 258 681 l 189 28 q 132 -3 186 -3 l 115 -3 m 447 1058 q 418 1072 418 1058 q 435 1119 418 1082 q 486 1226 453 1157 q 564 1263 503 1263 q 608 1258 594 1263 q 622 1244 622 1254 q 610 1218 622 1236 q 572 1164 597 1200 l 514 1083 q 447 1058 497 1058 z "},"Ň":{"ha":819,"x_min":67,"x_max":779,"o":"m 115 -3 q 67 28 63 -3 l 163 944 q 218 975 165 975 l 251 975 q 285 969 272 975 q 303 947 297 963 l 557 313 q 585 225 575 264 l 592 228 q 589 278 589 244 q 590 319 589 306 l 657 944 q 713 975 660 975 l 729 975 q 779 944 782 975 l 683 28 q 626 -3 679 -3 l 601 -3 q 554 18 563 -3 l 289 674 q 263 761 274 713 l 256 758 q 258 708 258 742 q 257 667 258 681 l 189 28 q 132 -3 186 -3 l 115 -3 m 468 1056 q 413 1086 429 1056 l 353 1208 q 346 1233 346 1226 q 355 1247 347 1242 q 375 1253 363 1253 l 401 1253 q 435 1232 422 1253 l 486 1132 l 558 1232 q 596 1253 574 1253 l 624 1253 q 642 1247 636 1253 q 647 1232 649 1242 q 636 1208 647 1225 l 549 1086 q 489 1056 528 1056 l 468 1056 z "},"Ņ":{"ha":819,"x_min":67,"x_max":779,"o":"m 115 -3 q 67 28 63 -3 l 163 944 q 218 975 165 975 l 251 975 q 285 969 272 975 q 303 947 297 963 l 557 313 q 585 225 575 264 l 592 228 q 589 278 589 244 q 590 319 589 306 l 657 944 q 713 975 660 975 l 729 975 q 779 944 782 975 l 683 28 q 626 -3 679 -3 l 601 -3 q 554 18 563 -3 l 289 674 q 263 761 274 713 l 256 758 q 258 708 258 742 q 257 667 258 681 l 189 28 q 132 -3 186 -3 l 115 -3 m 303 -326 q 276 -322 288 -326 q 264 -306 264 -317 q 269 -283 264 -297 q 275 -262 274 -268 q 297 -193 289 -226 q 304 -115 304 -160 q 317 -83 304 -94 q 357 -71 331 -71 l 371 -71 q 407 -81 394 -71 q 419 -110 419 -92 q 399 -222 419 -172 q 351 -299 379 -271 q 303 -326 324 -326 z "},"Ṅ":{"ha":819,"x_min":67,"x_max":779,"o":"m 115 -3 q 67 28 63 -3 l 163 944 q 218 975 165 975 l 251 975 q 285 969 272 975 q 303 947 297 963 l 557 313 q 585 225 575 264 l 592 228 q 589 278 589 244 q 590 319 589 306 l 657 944 q 713 975 660 975 l 729 975 q 779 944 782 975 l 683 28 q 626 -3 679 -3 l 601 -3 q 554 18 563 -3 l 289 674 q 263 761 274 713 l 256 758 q 258 708 258 742 q 257 667 258 681 l 189 28 q 132 -3 186 -3 l 115 -3 m 479 1089 q 422 1119 418 1089 l 429 1190 q 496 1221 432 1221 q 554 1190 557 1221 l 547 1119 q 479 1089 543 1089 z "},"Ŋ":{"ha":819,"x_min":63,"x_max":782,"o":"m 729 975 q 779 944 782 975 l 669 -111 q 608 -254 658 -214 q 499 -294 557 -294 q 406 -253 403 -294 q 418 -212 407 -237 q 442 -187 429 -187 q 458 -191 447 -187 q 492 -194 469 -194 q 532 -174 515 -194 q 554 -100 549 -154 l 564 -6 l 289 674 q 263 761 274 713 l 256 758 q 258 708 258 742 q 257 667 258 681 l 189 28 q 132 -3 186 -3 l 115 -3 q 67 28 63 -3 l 163 944 q 218 975 165 975 l 251 975 q 285 969 272 975 q 303 947 297 963 l 557 313 q 585 225 575 264 l 592 228 q 589 278 589 244 q 590 319 589 306 l 657 944 q 713 975 660 975 l 729 975 z "},"ǋ":{"ha":1165,"x_min":67,"x_max":1108,"o":"m 115 -3 q 67 28 63 -3 l 163 944 q 218 975 165 975 l 251 975 q 285 969 272 975 q 303 947 297 963 l 557 313 q 585 225 575 264 l 592 228 q 589 278 589 244 q 590 319 589 306 l 657 944 q 713 975 660 975 l 729 975 q 779 944 782 975 l 683 28 q 626 -3 679 -3 l 601 -3 q 554 18 563 -3 l 289 674 q 263 761 274 713 l 256 758 q 258 708 258 742 q 257 667 258 681 l 189 28 q 132 -3 186 -3 l 115 -3 m 825 -294 q 732 -253 729 -294 q 744 -212 733 -237 q 768 -187 756 -187 q 785 -191 774 -187 q 818 -194 796 -194 q 881 -100 871 -194 l 964 699 q 1024 729 968 729 l 1029 729 q 1081 699 1085 729 l 996 -111 q 934 -254 985 -214 q 825 -294 883 -294 m 1033 843 q 976 874 972 843 l 983 944 q 1050 975 986 975 q 1108 944 1111 975 l 1101 874 q 1033 843 1097 843 z "},"Ñ":{"ha":819,"x_min":67,"x_max":779,"o":"m 115 -3 q 67 28 63 -3 l 163 944 q 218 975 165 975 l 251 975 q 285 969 272 975 q 303 947 297 963 l 557 313 q 585 225 575 264 l 592 228 q 589 278 589 244 q 590 319 589 306 l 657 944 q 713 975 660 975 l 729 975 q 779 944 782 975 l 683 28 q 626 -3 679 -3 l 601 -3 q 554 18 563 -3 l 289 674 q 263 761 274 713 l 256 758 q 258 708 258 742 q 257 667 258 681 l 189 28 q 132 -3 186 -3 l 115 -3 m 279 1074 q 265 1090 265 1079 q 269 1108 265 1099 q 317 1182 290 1160 q 385 1204 344 1204 q 426 1197 406 1204 q 481 1175 446 1190 q 561 1149 536 1149 q 588 1156 576 1149 q 614 1185 600 1164 q 640 1206 625 1206 q 656 1201 647 1206 l 665 1197 q 678 1190 675 1193 q 682 1181 682 1186 q 676 1161 682 1172 q 628 1088 656 1110 q 563 1067 601 1067 q 517 1074 540 1067 q 461 1097 493 1082 q 419 1115 440 1107 q 382 1122 397 1122 q 357 1114 368 1122 q 332 1085 346 1106 q 308 1065 321 1065 q 293 1068 304 1065 l 279 1074 z "},"O":{"ha":832,"x_min":76,"x_max":783,"o":"m 378 -8 q 157 90 238 -8 q 76 382 76 189 q 82 489 76 439 q 481 981 135 981 q 703 885 622 981 q 783 597 783 789 q 778 489 783 540 q 650 115 751 239 q 378 -8 549 -8 m 390 97 q 650 489 610 97 q 657 600 657 556 q 471 875 657 875 q 297 781 361 875 q 211 489 232 688 q 204 376 204 419 q 390 97 204 97 z "},"Ó":{"ha":832,"x_min":76,"x_max":783,"o":"m 378 -8 q 157 90 238 -8 q 76 382 76 189 q 82 489 76 439 q 481 981 135 981 q 703 885 622 981 q 783 597 783 789 q 778 489 783 540 q 650 115 751 239 q 378 -8 549 -8 m 390 97 q 650 489 610 97 q 657 600 657 556 q 471 875 657 875 q 297 781 361 875 q 211 489 232 688 q 204 376 204 419 q 390 97 204 97 m 461 1058 q 432 1072 432 1058 q 449 1119 432 1082 q 500 1226 467 1157 q 578 1263 517 1263 q 622 1258 608 1263 q 636 1244 636 1254 q 624 1218 636 1236 q 586 1164 611 1200 l 528 1083 q 461 1058 511 1058 z "},"Ŏ":{"ha":832,"x_min":76,"x_max":783,"o":"m 378 -8 q 157 90 238 -8 q 76 382 76 189 q 82 489 76 439 q 481 981 135 981 q 703 885 622 981 q 783 597 783 789 q 778 489 783 540 q 650 115 751 239 q 378 -8 549 -8 m 390 97 q 650 489 610 97 q 657 600 657 556 q 471 875 657 875 q 297 781 361 875 q 211 489 232 688 q 204 376 204 419 q 390 97 204 97 m 493 1058 q 388 1094 429 1058 q 346 1196 346 1131 q 347 1218 346 1211 q 375 1239 350 1239 q 389 1233 385 1239 q 396 1219 393 1228 q 400 1204 399 1210 q 503 1150 415 1150 q 617 1204 590 1150 q 624 1219 619 1208 q 635 1235 629 1231 q 649 1239 640 1239 q 671 1218 674 1239 q 612 1100 663 1142 q 493 1058 561 1058 z "},"Ô":{"ha":832,"x_min":76,"x_max":783,"o":"m 378 -8 q 157 90 238 -8 q 76 382 76 189 q 82 489 76 439 q 481 981 135 981 q 703 885 622 981 q 783 597 783 789 q 778 489 783 540 q 650 115 751 239 q 378 -8 549 -8 m 390 97 q 650 489 610 97 q 657 600 657 556 q 471 875 657 875 q 297 781 361 875 q 211 489 232 688 q 204 376 204 419 q 390 97 204 97 m 364 1046 q 345 1051 351 1046 q 339 1064 339 1056 q 345 1078 340 1069 q 351 1090 350 1086 l 438 1213 q 499 1243 460 1243 l 519 1243 q 574 1213 556 1243 l 635 1090 q 642 1067 642 1076 q 633 1051 640 1057 q 613 1046 625 1046 l 585 1046 q 553 1065 564 1046 l 500 1167 l 429 1065 q 390 1046 413 1046 l 364 1046 z "},"Ố":{"ha":832,"x_min":76,"x_max":783,"o":"m 638 1179 q 606 1193 606 1179 q 620 1237 606 1203 q 664 1333 635 1271 q 739 1369 683 1369 q 772 1365 763 1369 q 782 1351 782 1361 q 769 1322 782 1343 q 725 1257 756 1301 q 688 1204 711 1240 q 638 1179 669 1179 m 374 1046 q 355 1051 361 1046 q 349 1064 349 1056 q 353 1078 350 1071 q 358 1090 357 1085 l 439 1213 q 500 1243 460 1243 l 522 1243 q 576 1213 560 1243 l 628 1090 q 636 1067 636 1078 q 627 1051 635 1057 q 607 1046 619 1046 l 579 1046 q 560 1051 569 1046 q 546 1064 550 1056 l 501 1167 l 438 1064 q 422 1049 431 1053 q 400 1046 413 1046 l 374 1046 m 378 -8 q 157 90 238 -8 q 76 382 76 189 q 82 489 76 439 q 481 981 135 981 q 703 885 622 981 q 783 597 783 789 q 778 489 783 540 q 650 115 751 239 q 378 -8 549 -8 m 390 97 q 650 489 610 97 q 657 600 657 556 q 471 875 657 875 q 297 781 361 875 q 211 489 232 688 q 204 376 204 419 q 390 97 204 97 z "},"Ộ":{"ha":832,"x_min":76,"x_max":783,"o":"m 378 -8 q 157 90 238 -8 q 76 382 76 189 q 82 489 76 439 q 481 981 135 981 q 703 885 622 981 q 783 597 783 789 q 778 489 783 540 q 650 115 751 239 q 378 -8 549 -8 m 390 97 q 650 489 610 97 q 657 600 657 556 q 471 875 657 875 q 297 781 361 875 q 211 489 232 688 q 204 376 204 419 q 390 97 204 97 m 354 -243 q 297 -212 293 -243 l 304 -142 q 371 -111 307 -111 q 429 -142 432 -111 l 422 -212 q 354 -243 418 -243 m 364 1046 q 345 1051 351 1046 q 339 1064 339 1056 q 345 1078 340 1069 q 351 1090 350 1086 l 438 1213 q 499 1243 460 1243 l 519 1243 q 574 1213 556 1243 l 635 1090 q 642 1067 642 1076 q 633 1051 640 1057 q 613 1046 625 1046 l 585 1046 q 553 1065 564 1046 l 500 1167 l 429 1065 q 390 1046 413 1046 l 364 1046 z "},"Ồ":{"ha":832,"x_min":76,"x_max":783,"o":"m 683 1179 q 633 1204 653 1179 l 592 1268 q 556 1325 567 1307 q 544 1351 544 1343 q 554 1365 544 1361 q 590 1369 564 1369 q 635 1360 615 1369 q 663 1333 654 1351 q 702 1237 689 1271 q 715 1193 715 1203 q 683 1179 715 1179 m 374 1046 q 355 1051 361 1046 q 349 1064 349 1056 q 353 1078 350 1071 q 358 1090 357 1085 l 439 1213 q 500 1243 460 1243 l 522 1243 q 576 1213 560 1243 l 628 1090 q 636 1067 636 1078 q 627 1051 635 1057 q 607 1046 619 1046 l 579 1046 q 560 1051 569 1046 q 546 1064 550 1056 l 501 1167 l 438 1064 q 422 1049 431 1053 q 400 1046 413 1046 l 374 1046 m 378 -8 q 157 90 238 -8 q 76 382 76 189 q 82 489 76 439 q 481 981 135 981 q 703 885 622 981 q 783 597 783 789 q 778 489 783 540 q 650 115 751 239 q 378 -8 549 -8 m 390 97 q 650 489 610 97 q 657 600 657 556 q 471 875 657 875 q 297 781 361 875 q 211 489 232 688 q 204 376 204 419 q 390 97 204 97 z "},"Ổ":{"ha":832,"x_min":76,"x_max":783,"o":"m 653 1189 q 617 1198 632 1189 q 601 1217 601 1207 q 609 1230 601 1224 q 636 1247 617 1236 q 679 1299 679 1271 q 665 1326 679 1317 q 628 1336 650 1336 q 583 1327 597 1336 q 564 1318 568 1318 q 543 1335 556 1318 q 531 1364 531 1353 q 567 1390 531 1378 q 639 1403 603 1403 q 721 1380 683 1403 q 758 1308 758 1357 q 745 1258 758 1279 q 710 1219 732 1238 q 678 1199 696 1208 q 653 1189 660 1189 m 374 1046 q 355 1051 361 1046 q 349 1064 349 1056 q 353 1078 350 1071 q 358 1090 357 1085 l 439 1213 q 500 1243 460 1243 l 522 1243 q 576 1213 560 1243 l 628 1090 q 636 1067 636 1078 q 627 1051 635 1057 q 607 1046 619 1046 l 579 1046 q 560 1051 569 1046 q 546 1064 550 1056 l 501 1167 l 438 1064 q 422 1049 431 1053 q 400 1046 413 1046 l 374 1046 m 378 -8 q 157 90 238 -8 q 76 382 76 189 q 82 489 76 439 q 481 981 135 981 q 703 885 622 981 q 783 597 783 789 q 778 489 783 540 q 650 115 751 239 q 378 -8 549 -8 m 390 97 q 650 489 610 97 q 657 600 657 556 q 471 875 657 875 q 297 781 361 875 q 211 489 232 688 q 204 376 204 419 q 390 97 204 97 z "},"Ỗ":{"ha":832,"x_min":76,"x_max":783,"o":"m 333 1222 q 321 1239 321 1229 q 325 1257 321 1247 q 368 1331 343 1308 q 429 1353 393 1353 q 467 1345 447 1353 q 518 1324 488 1338 q 590 1297 568 1297 q 615 1306 604 1297 q 638 1333 626 1314 q 663 1354 649 1354 q 676 1350 668 1354 l 685 1346 q 696 1339 692 1343 q 700 1329 700 1335 q 694 1310 700 1321 q 651 1238 676 1260 q 592 1215 626 1215 q 549 1223 571 1215 q 499 1246 528 1231 q 460 1263 479 1256 q 426 1271 440 1271 q 403 1263 414 1271 q 382 1233 393 1254 q 360 1214 371 1214 q 346 1217 357 1214 l 333 1222 m 374 1046 q 350 1065 347 1046 q 354 1078 350 1069 q 361 1090 358 1086 l 435 1182 q 497 1213 461 1213 l 519 1213 q 574 1182 556 1213 l 628 1090 q 636 1065 636 1074 q 627 1051 635 1057 q 607 1046 619 1046 l 579 1046 q 544 1064 558 1046 l 500 1144 l 439 1064 q 400 1046 425 1046 l 374 1046 m 378 -8 q 157 90 238 -8 q 76 382 76 189 q 82 489 76 439 q 481 981 135 981 q 703 885 622 981 q 783 597 783 789 q 778 489 783 540 q 650 115 751 239 q 378 -8 549 -8 m 390 97 q 650 489 610 97 q 657 600 657 556 q 471 875 657 875 q 297 781 361 875 q 211 489 232 688 q 204 376 204 419 q 390 97 204 97 z "},"Ö":{"ha":832,"x_min":76,"x_max":783,"o":"m 378 -8 q 157 90 238 -8 q 76 382 76 189 q 82 489 76 439 q 481 981 135 981 q 703 885 622 981 q 783 597 783 789 q 778 489 783 540 q 650 115 751 239 q 378 -8 549 -8 m 390 97 q 650 489 610 97 q 657 600 657 556 q 471 875 657 875 q 297 781 361 875 q 211 489 232 688 q 204 376 204 419 q 390 97 204 97 m 406 1089 q 357 1119 353 1089 l 364 1190 q 422 1221 367 1221 q 472 1190 475 1221 l 465 1119 q 406 1089 461 1089 m 581 1089 q 532 1119 528 1089 l 539 1190 q 597 1221 542 1221 q 647 1190 650 1221 l 640 1119 q 581 1089 636 1089 z "},"Ọ":{"ha":832,"x_min":76,"x_max":783,"o":"m 378 -8 q 157 90 238 -8 q 76 382 76 189 q 82 489 76 439 q 481 981 135 981 q 703 885 622 981 q 783 597 783 789 q 778 489 783 540 q 650 115 751 239 q 378 -8 549 -8 m 390 97 q 650 489 610 97 q 657 600 657 556 q 471 875 657 875 q 297 781 361 875 q 211 489 232 688 q 204 376 204 419 q 390 97 204 97 m 354 -243 q 297 -212 293 -243 l 304 -142 q 371 -111 307 -111 q 429 -142 432 -111 l 422 -212 q 354 -243 418 -243 z "},"Ò":{"ha":832,"x_min":76,"x_max":783,"o":"m 378 -8 q 157 90 238 -8 q 76 382 76 189 q 82 489 76 439 q 481 981 135 981 q 703 885 622 981 q 783 597 783 789 q 778 489 783 540 q 650 115 751 239 q 378 -8 549 -8 m 390 97 q 650 489 610 97 q 657 600 657 556 q 471 875 657 875 q 297 781 361 875 q 211 489 232 688 q 204 376 204 419 q 390 97 204 97 m 507 1058 q 442 1083 458 1058 q 348 1210 364 1188 q 332 1244 332 1233 q 346 1258 332 1254 q 390 1263 360 1263 q 469 1226 450 1263 l 497 1168 q 526 1104 515 1128 q 536 1072 536 1081 q 530 1062 536 1065 q 507 1058 524 1058 z "},"Ỏ":{"ha":832,"x_min":76,"x_max":783,"o":"m 378 -8 q 157 90 238 -8 q 76 382 76 189 q 82 489 76 439 q 481 981 135 981 q 703 885 622 981 q 783 597 783 789 q 778 489 783 540 q 650 115 751 239 q 378 -8 549 -8 m 390 97 q 650 489 610 97 q 657 600 657 556 q 471 875 657 875 q 297 781 361 875 q 211 489 232 688 q 204 376 204 419 q 390 97 204 97 m 492 1028 q 463 1035 481 1028 q 446 1051 446 1043 q 453 1072 446 1064 q 481 1097 461 1081 q 518 1135 504 1117 q 532 1179 532 1153 q 517 1207 532 1197 q 481 1217 503 1217 q 435 1208 450 1217 q 417 1199 421 1199 q 396 1216 408 1199 q 383 1244 383 1233 q 419 1273 383 1258 q 492 1288 456 1288 q 578 1264 538 1288 q 618 1189 618 1240 q 592 1111 618 1147 q 535 1051 567 1075 q 492 1028 503 1028 z "},"Ơ":{"ha":832,"x_min":76,"x_max":847,"o":"m 847 992 q 815 902 847 936 q 717 867 782 868 q 783 597 783 769 q 778 489 783 540 q 650 115 751 239 q 378 -8 549 -8 q 157 90 238 -8 q 76 382 76 189 q 82 489 76 439 q 210 859 108 738 q 479 981 311 981 q 575 967 533 981 q 656 929 617 953 q 711 910 688 910 q 749 923 735 910 q 763 958 763 936 q 756 991 763 976 q 738 1022 749 1006 q 725 1044 726 1039 q 738 1067 725 1058 l 771 1089 q 788 1094 778 1094 q 828 1060 810 1094 q 847 992 847 1025 m 650 489 q 657 600 657 556 q 471 875 657 875 q 297 781 361 875 q 211 489 232 688 q 204 376 204 419 q 390 97 204 97 q 650 489 610 97 z "},"Ớ":{"ha":832,"x_min":76,"x_max":847,"o":"m 847 992 q 815 902 847 936 q 717 867 782 868 q 783 597 783 769 q 778 489 783 540 q 650 115 751 239 q 378 -8 549 -8 q 157 90 238 -8 q 76 382 76 189 q 82 489 76 439 q 210 859 108 738 q 479 981 311 981 q 575 967 533 981 q 656 929 617 953 q 711 910 688 910 q 749 923 735 910 q 763 958 763 936 q 756 991 763 976 q 738 1022 749 1006 q 725 1044 726 1039 q 738 1067 725 1058 l 771 1089 q 788 1094 778 1094 q 828 1060 810 1094 q 847 992 847 1025 m 650 489 q 657 600 657 556 q 471 875 657 875 q 297 781 361 875 q 211 489 232 688 q 204 376 204 419 q 390 97 204 97 q 650 489 610 97 m 472 1058 q 443 1072 443 1058 q 460 1119 443 1082 q 511 1226 478 1157 q 589 1263 528 1263 q 633 1258 619 1263 q 647 1244 647 1254 q 635 1218 647 1236 q 597 1164 622 1200 l 539 1083 q 472 1058 522 1058 z "},"Ợ":{"ha":832,"x_min":76,"x_max":847,"o":"m 847 992 q 815 902 847 936 q 717 867 782 868 q 783 597 783 769 q 778 489 783 540 q 650 115 751 239 q 378 -8 549 -8 q 157 90 238 -8 q 76 382 76 189 q 82 489 76 439 q 210 859 108 738 q 479 981 311 981 q 575 967 533 981 q 656 929 617 953 q 711 910 688 910 q 749 923 735 910 q 763 958 763 936 q 756 991 763 976 q 738 1022 749 1006 q 725 1044 726 1039 q 738 1067 725 1058 l 771 1089 q 788 1094 778 1094 q 828 1060 810 1094 q 847 992 847 1025 m 650 489 q 657 600 657 556 q 471 875 657 875 q 297 781 361 875 q 211 489 232 688 q 204 376 204 419 q 390 97 204 97 q 650 489 610 97 m 354 -243 q 297 -212 293 -243 l 304 -142 q 371 -111 307 -111 q 429 -142 432 -111 l 422 -212 q 354 -243 418 -243 z "},"Ờ":{"ha":832,"x_min":76,"x_max":847,"o":"m 847 992 q 815 902 847 936 q 717 867 782 868 q 783 597 783 769 q 778 489 783 540 q 650 115 751 239 q 378 -8 549 -8 q 157 90 238 -8 q 76 382 76 189 q 82 489 76 439 q 210 859 108 738 q 479 981 311 981 q 575 967 533 981 q 656 929 617 953 q 711 910 688 910 q 749 923 735 910 q 763 958 763 936 q 756 991 763 976 q 738 1022 749 1006 q 725 1044 726 1039 q 738 1067 725 1058 l 771 1089 q 788 1094 778 1094 q 828 1060 810 1094 q 847 992 847 1025 m 650 489 q 657 600 657 556 q 471 875 657 875 q 297 781 361 875 q 211 489 232 688 q 204 376 204 419 q 390 97 204 97 q 650 489 610 97 m 507 1058 q 442 1083 458 1058 q 348 1210 364 1188 q 332 1244 332 1233 q 346 1258 332 1254 q 390 1263 360 1263 q 469 1226 450 1263 l 497 1168 q 526 1104 515 1128 q 536 1072 536 1081 q 530 1062 536 1065 q 507 1058 524 1058 z "},"Ở":{"ha":832,"x_min":76,"x_max":847,"o":"m 847 992 q 815 902 847 936 q 717 867 782 868 q 783 597 783 769 q 778 489 783 540 q 650 115 751 239 q 378 -8 549 -8 q 157 90 238 -8 q 76 382 76 189 q 82 489 76 439 q 210 859 108 738 q 479 981 311 981 q 575 967 533 981 q 656 929 617 953 q 711 910 688 910 q 749 923 735 910 q 763 958 763 936 q 756 991 763 976 q 738 1022 749 1006 q 725 1044 726 1039 q 738 1067 725 1058 l 771 1089 q 788 1094 778 1094 q 828 1060 810 1094 q 847 992 847 1025 m 650 489 q 657 600 657 556 q 471 875 657 875 q 297 781 361 875 q 211 489 232 688 q 204 376 204 419 q 390 97 204 97 q 650 489 610 97 m 492 1028 q 463 1035 481 1028 q 446 1051 446 1043 q 453 1072 446 1064 q 481 1097 461 1081 q 518 1135 504 1117 q 532 1179 532 1153 q 517 1207 532 1197 q 481 1217 503 1217 q 435 1208 450 1217 q 417 1199 421 1199 q 396 1216 408 1199 q 383 1244 383 1233 q 419 1273 383 1258 q 492 1288 456 1288 q 578 1264 538 1288 q 618 1189 618 1240 q 592 1111 618 1147 q 535 1051 567 1075 q 492 1028 503 1028 z "},"Ỡ":{"ha":832,"x_min":76,"x_max":847,"o":"m 313 1074 q 300 1090 300 1079 q 303 1108 300 1101 q 346 1182 321 1160 q 407 1204 371 1204 q 446 1197 425 1204 q 494 1174 467 1189 q 532 1156 513 1164 q 565 1149 551 1149 q 591 1156 581 1149 q 613 1185 601 1164 q 638 1206 624 1206 q 650 1201 644 1206 l 660 1197 q 671 1190 667 1194 q 675 1181 675 1186 q 669 1161 675 1172 q 626 1088 651 1110 q 567 1067 601 1067 q 476 1097 535 1067 q 438 1115 457 1107 q 404 1122 418 1122 q 381 1114 392 1122 q 360 1085 371 1106 q 338 1065 349 1065 q 325 1068 333 1065 l 313 1074 m 847 992 q 815 902 847 936 q 717 867 782 868 q 783 597 783 769 q 778 489 783 540 q 650 115 751 239 q 378 -8 549 -8 q 157 90 238 -8 q 76 382 76 189 q 82 489 76 439 q 210 859 108 738 q 479 981 311 981 q 575 967 533 981 q 656 929 617 953 q 711 910 688 910 q 749 923 735 910 q 763 958 763 936 q 756 991 763 976 q 738 1022 749 1006 q 725 1044 726 1039 q 738 1067 725 1058 l 771 1089 q 788 1094 778 1094 q 828 1060 810 1094 q 847 992 847 1025 m 650 489 q 657 600 657 556 q 471 875 657 875 q 297 781 361 875 q 211 489 232 688 q 204 376 204 419 q 390 97 204 97 q 650 489 610 97 z "},"Ő":{"ha":832,"x_min":76,"x_max":783,"o":"m 378 -8 q 157 90 238 -8 q 76 382 76 189 q 82 489 76 439 q 481 981 135 981 q 703 885 622 981 q 783 597 783 789 q 778 489 783 540 q 650 115 751 239 q 378 -8 549 -8 m 390 97 q 650 489 610 97 q 657 600 657 556 q 471 875 657 875 q 297 781 361 875 q 211 489 232 688 q 204 376 204 419 q 390 97 204 97 m 385 1058 q 356 1072 356 1058 q 364 1097 356 1079 q 386 1146 372 1115 l 424 1226 q 501 1263 440 1263 q 546 1258 532 1263 q 560 1244 560 1254 q 547 1216 560 1236 q 503 1154 533 1196 l 451 1083 q 385 1058 432 1058 m 563 1058 q 533 1072 533 1058 q 542 1097 533 1079 q 564 1146 550 1115 l 601 1226 q 679 1263 618 1263 q 724 1258 710 1263 q 738 1244 738 1254 q 719 1205 738 1232 q 629 1083 701 1178 q 563 1058 611 1058 z "},"Ō":{"ha":832,"x_min":76,"x_max":783,"o":"m 378 -8 q 157 90 238 -8 q 76 382 76 189 q 82 489 76 439 q 481 981 135 981 q 703 885 622 981 q 783 597 783 789 q 778 489 783 540 q 650 115 751 239 q 378 -8 549 -8 m 390 97 q 650 489 610 97 q 657 600 657 556 q 471 875 657 875 q 297 781 361 875 q 211 489 232 688 q 204 376 204 419 q 390 97 204 97 m 357 1096 q 335 1138 331 1096 l 336 1151 q 367 1193 340 1193 l 643 1193 q 663 1183 657 1193 q 665 1151 668 1174 l 664 1138 q 654 1106 661 1115 q 633 1096 647 1096 l 357 1096 z "},"Ǫ":{"ha":832,"x_min":76,"x_max":783,"o":"m 481 981 q 703 885 622 981 q 783 597 783 789 q 778 489 783 540 q 490 7 735 79 q 465 -49 474 -21 q 457 -100 457 -78 q 526 -160 457 -160 q 557 -155 538 -160 q 582 -150 576 -150 q 610 -183 610 -150 q 592 -221 610 -208 q 500 -247 553 -247 q 399 -208 425 -247 q 372 -125 372 -168 q 380 -69 372 -101 q 404 -7 388 -37 q 378 -8 396 -8 q 157 90 238 -8 q 76 382 76 189 q 82 489 76 439 q 481 981 135 981 m 650 489 q 657 600 657 556 q 471 875 657 875 q 297 781 361 875 q 211 489 232 688 q 204 376 204 419 q 390 97 204 97 q 650 489 610 97 z "},"Ø":{"ha":832,"x_min":76,"x_max":783,"o":"m 703 885 q 783 597 783 786 q 778 489 783 540 q 650 115 751 239 q 378 -8 549 -8 q 190 56 264 -8 l 151 -8 q 131 -25 142 -25 q 110 -17 121 -25 q 99 1 99 -8 q 106 21 99 13 l 151 96 q 76 382 76 197 q 82 489 76 439 q 481 981 135 981 q 663 924 589 981 l 696 979 q 717 994 704 994 q 738 987 728 994 q 749 968 749 979 q 743 951 749 961 l 703 885 m 211 489 q 204 375 204 419 q 226 217 204 283 l 599 822 q 471 875 554 875 q 297 781 361 875 q 211 489 232 688 m 650 489 q 656 600 656 543 q 631 768 656 706 l 256 161 q 390 97 301 97 q 650 489 610 97 z "},"Ǿ":{"ha":832,"x_min":76,"x_max":783,"o":"m 703 885 q 783 597 783 786 q 778 489 783 540 q 650 115 751 239 q 378 -8 549 -8 q 190 56 264 -8 l 151 -8 q 131 -25 142 -25 q 110 -17 121 -25 q 99 1 99 -8 q 106 21 99 13 l 151 96 q 76 382 76 197 q 82 489 76 439 q 481 981 135 981 q 663 924 589 981 l 696 979 q 717 994 704 994 q 738 987 728 994 q 749 968 749 979 q 743 951 749 961 l 703 885 m 211 489 q 204 375 204 419 q 226 217 204 283 l 599 822 q 471 875 554 875 q 297 781 361 875 q 211 489 232 688 m 650 489 q 656 600 656 543 q 631 768 656 706 l 256 161 q 390 97 301 97 q 650 489 610 97 m 456 1058 q 426 1072 426 1058 q 444 1119 426 1082 q 494 1226 461 1157 q 572 1263 511 1263 q 617 1258 603 1263 q 631 1244 631 1254 q 618 1218 631 1236 q 581 1164 606 1200 l 522 1083 q 456 1058 506 1058 z "},"Õ":{"ha":832,"x_min":76,"x_max":783,"o":"m 378 -8 q 157 90 238 -8 q 76 382 76 189 q 82 489 76 439 q 481 981 135 981 q 703 885 622 981 q 783 597 783 789 q 778 489 783 540 q 650 115 751 239 q 378 -8 549 -8 m 390 97 q 650 489 610 97 q 657 600 657 556 q 471 875 657 875 q 297 781 361 875 q 211 489 232 688 q 204 376 204 419 q 390 97 204 97 m 293 1074 q 279 1090 279 1079 q 283 1108 279 1099 q 331 1182 304 1160 q 399 1204 358 1204 q 440 1197 419 1204 q 494 1175 460 1190 q 575 1149 550 1149 q 602 1156 590 1149 q 628 1185 614 1164 q 654 1206 639 1206 q 669 1201 661 1206 l 679 1197 q 692 1190 689 1193 q 696 1181 696 1186 q 690 1161 696 1172 q 642 1088 669 1110 q 576 1067 615 1067 q 531 1074 554 1067 q 475 1097 507 1082 q 433 1115 454 1107 q 396 1122 411 1122 q 371 1114 382 1122 q 346 1085 360 1106 q 322 1065 335 1065 q 307 1068 318 1065 l 293 1074 z "},"Œ":{"ha":1143,"x_min":76,"x_max":1154,"o":"m 1128 972 q 1150 931 1154 972 l 1147 908 q 1117 867 1143 867 l 804 867 l 771 550 l 1051 550 q 1074 508 1078 550 l 1071 486 q 1040 444 1067 444 l 760 444 l 724 106 l 1036 106 q 1056 96 1050 106 q 1058 64 1061 86 l 1056 42 q 1046 10 1053 19 q 1025 0 1039 0 l 625 0 q 597 10 606 0 q 592 42 589 19 l 596 85 q 378 -8 506 -8 q 157 90 238 -8 q 76 382 76 189 q 82 489 76 439 q 481 981 135 981 q 682 885 610 981 l 686 931 q 699 963 689 953 q 728 972 708 972 l 1128 972 m 650 489 q 657 600 657 556 q 471 875 657 875 q 297 781 361 875 q 211 489 232 688 q 204 376 204 419 q 390 97 204 97 q 650 489 610 97 z "},"P":{"ha":669,"x_min":72,"x_max":668,"o":"m 125 -3 q 75 28 72 -3 l 171 931 q 183 963 174 953 q 213 972 193 972 l 442 972 q 600 924 532 972 q 668 749 668 876 q 665 700 668 733 q 603 521 653 585 q 496 435 553 457 q 394 414 439 414 l 242 414 l 200 28 q 144 -3 197 -3 l 125 -3 m 399 519 q 486 560 444 519 q 538 700 528 600 q 540 736 540 725 q 506 838 540 808 q 425 867 472 867 l 289 867 l 253 519 l 399 519 z "},"Þ":{"ha":669,"x_min":63,"x_max":642,"o":"m 115 -3 q 67 28 63 -3 l 163 944 q 218 975 165 975 l 238 975 q 288 944 290 975 l 272 804 l 414 804 q 573 756 504 804 q 642 581 642 708 q 639 532 642 565 q 576 353 626 417 q 468 267 525 289 q 367 246 411 246 l 214 246 l 192 28 q 135 -3 188 -3 l 115 -3 m 371 351 q 457 392 415 351 q 510 532 499 432 q 511 565 511 544 q 478 669 511 640 q 396 699 444 699 l 261 699 l 225 351 l 371 351 z "},"Q":{"ha":832,"x_min":74,"x_max":782,"o":"m 689 -235 q 490 -131 675 -235 q 231 18 304 -28 q 113 151 151 67 q 74 368 74 236 q 81 486 74 414 q 203 860 107 740 q 479 981 299 981 q 703 885 625 981 q 782 597 782 789 q 776 486 782 540 q 679 164 754 283 q 482 8 604 44 l 482 4 l 753 -119 q 767 -142 768 -128 q 736 -198 763 -161 q 689 -235 710 -235 m 388 96 q 560 193 494 96 q 649 486 626 290 q 654 596 654 540 q 469 875 654 875 q 210 486 250 875 q 203 371 203 417 q 388 96 203 96 z "},"R":{"ha":713,"x_min":67,"x_max":660,"o":"m 119 -3 q 69 28 67 -3 l 165 931 q 178 963 168 953 q 207 972 188 972 l 413 972 q 599 925 538 972 q 660 774 660 878 q 657 726 660 760 q 608 581 649 640 q 506 492 568 522 l 504 486 q 547 432 531 472 q 582 313 564 392 l 640 39 q 643 19 643 31 q 586 -3 640 -3 l 563 -3 q 529 3 543 -3 q 514 19 515 10 l 458 292 q 414 399 442 371 q 325 428 386 428 l 238 428 l 194 28 q 139 -3 192 -3 l 119 -3 m 388 533 q 478 584 438 533 q 526 704 519 635 q 528 736 528 715 q 498 834 528 801 q 414 867 468 867 l 282 867 l 247 533 l 388 533 z "},"Ŕ":{"ha":713,"x_min":69,"x_max":660,"o":"m 119 -3 q 69 28 67 -3 l 165 931 q 178 963 168 953 q 207 972 188 972 l 413 972 q 599 925 538 972 q 660 774 660 878 q 657 726 660 760 q 608 581 649 640 q 506 492 568 522 l 504 486 q 547 432 531 472 q 582 313 564 392 l 640 39 q 643 19 643 31 q 586 -3 640 -3 l 563 -3 q 529 3 543 -3 q 514 19 515 10 l 458 292 q 414 399 442 371 q 325 428 386 428 l 238 428 l 194 28 q 139 -3 192 -3 l 119 -3 m 388 533 q 478 584 438 533 q 526 704 519 635 q 528 736 528 715 q 498 834 528 801 q 414 867 468 867 l 282 867 l 247 533 l 388 533 m 394 1058 q 365 1072 365 1058 q 383 1119 365 1082 q 433 1226 400 1157 q 511 1263 450 1263 q 556 1258 542 1263 q 569 1244 569 1254 q 557 1218 569 1236 q 519 1164 544 1200 l 461 1083 q 394 1058 444 1058 z "},"Ř":{"ha":713,"x_min":69,"x_max":660,"o":"m 119 -3 q 69 28 67 -3 l 165 931 q 178 963 168 953 q 207 972 188 972 l 413 972 q 599 925 538 972 q 660 774 660 878 q 657 726 660 760 q 608 581 649 640 q 506 492 568 522 l 504 486 q 547 432 531 472 q 582 313 564 392 l 640 39 q 643 19 643 31 q 586 -3 640 -3 l 563 -3 q 529 3 543 -3 q 514 19 515 10 l 458 292 q 414 399 442 371 q 325 428 386 428 l 238 428 l 194 28 q 139 -3 192 -3 l 119 -3 m 388 533 q 478 584 438 533 q 526 704 519 635 q 528 736 528 715 q 498 834 528 801 q 414 867 468 867 l 282 867 l 247 533 l 388 533 m 415 1056 q 360 1086 376 1056 l 300 1208 q 293 1233 293 1226 q 302 1247 294 1242 q 322 1253 310 1253 l 349 1253 q 382 1232 369 1253 l 433 1132 l 506 1232 q 543 1253 521 1253 l 571 1253 q 590 1247 583 1253 q 594 1232 596 1242 q 583 1208 594 1225 l 496 1086 q 436 1056 475 1056 l 415 1056 z "},"Ŗ":{"ha":713,"x_min":69,"x_max":660,"o":"m 119 -3 q 69 28 67 -3 l 165 931 q 178 963 168 953 q 207 972 188 972 l 413 972 q 599 925 538 972 q 660 774 660 878 q 657 726 660 760 q 608 581 649 640 q 506 492 568 522 l 504 486 q 547 432 531 472 q 582 313 564 392 l 640 39 q 643 19 643 31 q 586 -3 640 -3 l 563 -3 q 529 3 543 -3 q 514 19 515 10 l 458 292 q 414 399 442 371 q 325 428 386 428 l 238 428 l 194 28 q 139 -3 192 -3 l 119 -3 m 388 533 q 478 584 438 533 q 526 704 519 635 q 528 736 528 715 q 498 834 528 801 q 414 867 468 867 l 282 867 l 247 533 l 388 533 m 251 -326 q 224 -322 236 -326 q 213 -306 213 -317 q 217 -283 213 -297 q 224 -262 222 -268 q 245 -193 238 -226 q 253 -115 253 -160 q 266 -83 253 -94 q 306 -71 279 -71 l 319 -71 q 356 -81 343 -71 q 368 -110 368 -92 q 348 -222 368 -172 q 300 -299 328 -271 q 251 -326 272 -326 z "},"Ṛ":{"ha":713,"x_min":69,"x_max":660,"o":"m 119 -3 q 69 28 67 -3 l 165 931 q 178 963 168 953 q 207 972 188 972 l 413 972 q 599 925 538 972 q 660 774 660 878 q 657 726 660 760 q 608 581 649 640 q 506 492 568 522 l 504 486 q 547 432 531 472 q 582 313 564 392 l 640 39 q 643 19 643 31 q 586 -3 640 -3 l 563 -3 q 529 3 543 -3 q 514 19 515 10 l 458 292 q 414 399 442 371 q 325 428 386 428 l 238 428 l 194 28 q 139 -3 192 -3 l 119 -3 m 388 533 q 478 584 438 533 q 526 704 519 635 q 528 736 528 715 q 498 834 528 801 q 414 867 468 867 l 282 867 l 247 533 l 388 533 m 288 -243 q 231 -212 226 -243 l 238 -142 q 304 -111 240 -111 q 363 -142 365 -111 l 356 -212 q 288 -243 351 -243 z "},"S":{"ha":607,"x_min":14,"x_max":588,"o":"m 256 -7 q 125 6 181 -7 q 25 54 69 18 q 17 65 19 60 q 14 85 14 71 q 23 134 14 108 q 46 160 32 160 q 63 153 53 160 q 244 101 129 101 q 375 141 325 101 q 425 261 425 181 q 393 359 425 319 q 301 433 361 399 q 149 553 206 490 q 93 707 93 615 q 128 853 93 790 q 226 952 163 917 q 374 988 289 988 q 489 976 431 988 q 579 946 547 965 q 588 931 588 940 q 573 878 588 914 q 547 843 558 843 q 537 846 543 843 q 528 850 531 849 q 392 881 460 881 q 267 846 321 881 q 214 729 214 811 q 250 630 214 672 q 357 547 286 588 q 497 438 446 497 q 549 288 549 378 q 472 72 549 150 q 256 -7 394 -7 z "},"Ś":{"ha":607,"x_min":14,"x_max":588,"o":"m 256 -7 q 125 6 181 -7 q 25 54 69 18 q 17 65 19 60 q 14 85 14 71 q 23 134 14 108 q 46 160 32 160 q 63 153 53 160 q 244 101 129 101 q 375 141 325 101 q 425 261 425 181 q 393 359 425 319 q 301 433 361 399 q 149 553 206 490 q 93 707 93 615 q 128 853 93 790 q 226 952 163 917 q 374 988 289 988 q 489 976 431 988 q 579 946 547 965 q 588 931 588 940 q 573 878 588 914 q 547 843 558 843 q 537 846 543 843 q 528 850 531 849 q 392 881 460 881 q 267 846 321 881 q 214 729 214 811 q 250 630 214 672 q 357 547 286 588 q 497 438 446 497 q 549 288 549 378 q 472 72 549 150 q 256 -7 394 -7 m 365 1058 q 336 1072 336 1058 q 353 1119 336 1082 q 404 1226 371 1157 q 482 1263 421 1263 q 526 1258 513 1263 q 540 1244 540 1254 q 528 1218 540 1236 q 490 1164 515 1200 l 432 1083 q 365 1058 415 1058 z "},"Š":{"ha":607,"x_min":14,"x_max":588,"o":"m 256 -7 q 125 6 181 -7 q 25 54 69 18 q 17 65 19 60 q 14 85 14 71 q 23 134 14 108 q 46 160 32 160 q 63 153 53 160 q 244 101 129 101 q 375 141 325 101 q 425 261 425 181 q 393 359 425 319 q 301 433 361 399 q 149 553 206 490 q 93 707 93 615 q 128 853 93 790 q 226 952 163 917 q 374 988 289 988 q 489 976 431 988 q 579 946 547 965 q 588 931 588 940 q 573 878 588 914 q 547 843 558 843 q 537 846 543 843 q 528 850 531 849 q 392 881 460 881 q 267 846 321 881 q 214 729 214 811 q 250 630 214 672 q 357 547 286 588 q 497 438 446 497 q 549 288 549 378 q 472 72 549 150 q 256 -7 394 -7 m 386 1056 q 331 1086 347 1056 l 271 1208 q 264 1233 264 1226 q 273 1247 265 1242 q 293 1253 281 1253 l 319 1253 q 353 1232 340 1253 l 404 1132 l 476 1232 q 514 1253 492 1253 l 542 1253 q 560 1247 554 1253 q 565 1232 567 1242 q 554 1208 565 1225 l 467 1086 q 407 1056 446 1056 l 386 1056 z "},"Ş":{"ha":607,"x_min":14,"x_max":588,"o":"m 392 881 q 267 846 321 881 q 214 729 214 811 q 250 630 214 672 q 357 547 286 588 q 497 438 446 497 q 549 288 549 378 q 483 83 549 161 q 296 -6 417 6 l 274 -83 q 344 -103 311 -83 q 376 -176 376 -124 q 243 -292 376 -292 q 156 -275 199 -292 q 113 -232 113 -258 q 121 -208 113 -219 q 139 -196 129 -196 q 171 -206 149 -196 q 235 -224 207 -224 q 269 -213 254 -224 q 285 -183 285 -203 q 273 -153 285 -162 q 239 -136 261 -143 q 216 -125 224 -131 q 208 -110 208 -119 q 215 -78 208 -100 q 238 -7 221 -56 q 118 8 169 -6 q 25 54 67 21 q 17 65 19 60 q 14 85 14 71 q 23 134 14 108 q 46 160 32 160 q 63 153 53 160 q 244 101 129 101 q 375 141 325 101 q 425 261 425 181 q 393 359 425 319 q 301 433 361 399 q 149 553 206 490 q 93 707 93 615 q 128 853 93 790 q 226 952 163 917 q 374 988 289 988 q 489 976 431 988 q 579 946 547 965 q 588 931 588 940 q 573 878 588 914 q 547 843 558 843 q 537 846 543 843 q 528 850 531 849 q 392 881 460 881 z "},"Ŝ":{"ha":607,"x_min":14,"x_max":588,"o":"m 256 -7 q 125 6 181 -7 q 25 54 69 18 q 17 65 19 60 q 14 85 14 71 q 23 134 14 108 q 46 160 32 160 q 63 153 53 160 q 244 101 129 101 q 375 141 325 101 q 425 261 425 181 q 393 359 425 319 q 301 433 361 399 q 149 553 206 490 q 93 707 93 615 q 128 853 93 790 q 226 952 163 917 q 374 988 289 988 q 489 976 431 988 q 579 946 547 965 q 588 931 588 940 q 573 878 588 914 q 547 843 558 843 q 537 846 543 843 q 528 850 531 849 q 392 881 460 881 q 267 846 321 881 q 214 729 214 811 q 250 630 214 672 q 357 547 286 588 q 497 438 446 497 q 549 288 549 378 q 472 72 549 150 q 256 -7 394 -7 m 268 1046 q 249 1051 256 1046 q 243 1064 243 1056 q 249 1078 244 1069 q 256 1090 254 1086 l 342 1213 q 403 1243 364 1243 l 424 1243 q 478 1213 460 1243 l 539 1090 q 546 1067 546 1076 q 537 1051 544 1057 q 517 1046 529 1046 l 489 1046 q 457 1065 468 1046 l 404 1167 l 333 1065 q 294 1046 317 1046 l 268 1046 z "},"Ș":{"ha":607,"x_min":14,"x_max":588,"o":"m 256 -7 q 125 6 181 -7 q 25 54 69 18 q 17 65 19 60 q 14 85 14 71 q 23 134 14 108 q 46 160 32 160 q 63 153 53 160 q 244 101 129 101 q 375 141 325 101 q 425 261 425 181 q 393 359 425 319 q 301 433 361 399 q 149 553 206 490 q 93 707 93 615 q 128 853 93 790 q 226 952 163 917 q 374 988 289 988 q 489 976 431 988 q 579 946 547 965 q 588 931 588 940 q 573 878 588 914 q 547 843 558 843 q 537 846 543 843 q 528 850 531 849 q 392 881 460 881 q 267 846 321 881 q 214 729 214 811 q 250 630 214 672 q 357 547 286 588 q 497 438 446 497 q 549 288 549 378 q 472 72 549 150 q 256 -7 394 -7 m 207 -326 q 180 -322 192 -326 q 168 -306 168 -317 q 173 -283 168 -297 q 179 -262 178 -268 q 201 -193 193 -226 q 208 -115 208 -160 q 222 -83 208 -94 q 261 -71 235 -71 l 275 -71 q 311 -81 299 -71 q 324 -110 324 -92 q 303 -222 324 -172 q 256 -299 283 -271 q 207 -326 228 -326 z "},"Ṣ":{"ha":607,"x_min":14,"x_max":588,"o":"m 256 -7 q 125 6 181 -7 q 25 54 69 18 q 17 65 19 60 q 14 85 14 71 q 23 134 14 108 q 46 160 32 160 q 63 153 53 160 q 244 101 129 101 q 375 141 325 101 q 425 261 425 181 q 393 359 425 319 q 301 433 361 399 q 149 553 206 490 q 93 707 93 615 q 128 853 93 790 q 226 952 163 917 q 374 988 289 988 q 489 976 431 988 q 579 946 547 965 q 588 931 588 940 q 573 878 588 914 q 547 843 558 843 q 537 846 543 843 q 528 850 531 849 q 392 881 460 881 q 267 846 321 881 q 214 729 214 811 q 250 630 214 672 q 357 547 286 588 q 497 438 446 497 q 549 288 549 378 q 472 72 549 150 q 256 -7 394 -7 m 243 -243 q 186 -212 182 -243 l 193 -142 q 260 -111 196 -111 q 318 -142 321 -111 l 311 -212 q 243 -243 307 -243 z "},"ẞ":{"ha":824,"x_min":68,"x_max":782,"o":"m 460 -8 q 367 4 410 -8 q 299 35 324 17 q 274 71 274 54 q 295 114 274 88 q 329 140 317 140 q 349 135 339 140 q 369 124 360 131 q 410 100 390 108 q 461 92 431 92 q 576 136 524 92 q 640 288 629 181 q 643 326 643 315 q 606 435 643 403 q 500 467 568 467 l 451 467 q 432 493 442 467 q 425 540 422 519 q 432 557 428 553 l 636 850 q 486 875 571 875 q 325 815 381 875 q 256 619 269 754 l 194 28 q 135 -3 190 -3 l 124 -3 q 72 28 68 -3 l 133 621 q 483 979 172 979 q 757 932 618 979 q 774 903 765 929 q 779 858 782 878 q 774 842 779 847 l 582 571 q 715 493 665 553 q 764 332 764 433 q 761 286 764 319 q 703 116 750 182 q 591 21 656 50 q 460 -8 526 -8 z "},"Ə":{"ha":778,"x_min":68,"x_max":694,"o":"m 328 -12 q 68 324 68 -12 q 75 447 68 392 q 97 482 78 460 q 126 504 117 504 l 564 504 q 569 611 569 582 q 523 819 569 757 q 383 881 476 881 q 288 865 331 881 q 200 824 244 849 q 168 810 175 810 q 144 836 157 810 q 131 878 131 863 q 172 922 131 897 q 276 963 213 946 q 407 981 340 981 q 622 894 550 981 q 694 619 694 808 q 685 472 694 567 q 571 102 660 217 q 328 -12 482 -12 m 340 88 q 476 160 424 88 q 553 404 528 233 l 193 404 q 186 293 186 335 q 224 136 186 185 q 340 88 261 88 z "},"T":{"ha":631,"x_min":79,"x_max":665,"o":"m 267 -3 q 217 28 214 -3 l 306 867 l 106 867 q 83 908 79 867 l 86 931 q 117 972 90 972 l 639 972 q 659 963 653 972 q 663 931 665 953 l 660 908 q 628 867 656 867 l 431 867 l 342 28 q 286 -3 339 -3 l 267 -3 z "},"Ŧ":{"ha":631,"x_min":36,"x_max":665,"o":"m 639 972 q 659 963 653 972 q 663 931 665 953 l 660 908 q 628 867 656 867 l 431 867 l 396 540 l 579 540 q 598 531 593 540 q 603 504 603 522 q 568 442 603 442 l 386 442 l 342 28 q 286 -3 339 -3 l 267 -3 q 217 28 214 -3 l 261 442 l 60 442 q 41 451 46 442 q 36 479 36 461 q 71 540 36 540 l 271 540 l 306 867 l 106 867 q 83 908 79 867 l 86 931 q 117 972 90 972 l 639 972 z "},"Ť":{"ha":631,"x_min":83,"x_max":663,"o":"m 267 -3 q 217 28 214 -3 l 306 867 l 106 867 q 83 908 79 867 l 86 931 q 117 972 90 972 l 639 972 q 659 963 653 972 q 663 931 665 953 l 660 908 q 628 867 656 867 l 431 867 l 342 28 q 286 -3 339 -3 l 267 -3 m 378 1056 q 322 1086 339 1056 l 263 1208 q 256 1233 256 1226 q 265 1247 257 1242 q 285 1253 272 1253 l 311 1253 q 344 1232 332 1253 l 396 1132 l 468 1232 q 506 1253 483 1253 l 533 1253 q 552 1247 546 1253 q 557 1232 558 1242 q 546 1208 557 1225 l 458 1086 q 399 1056 438 1056 l 378 1056 z "},"Ţ":{"ha":631,"x_min":79,"x_max":665,"o":"m 639 972 q 659 963 653 972 q 663 931 665 953 l 660 908 q 628 867 656 867 l 431 867 l 342 28 q 304 -1 339 3 l 281 -83 q 351 -103 318 -83 q 383 -176 383 -124 q 250 -292 383 -292 q 163 -275 206 -292 q 119 -232 119 -258 q 128 -208 119 -219 q 146 -196 136 -196 q 178 -206 156 -196 q 242 -224 214 -224 q 276 -213 261 -224 q 292 -183 292 -203 q 280 -153 292 -162 q 246 -136 268 -143 q 223 -125 231 -131 q 215 -110 215 -119 q 222 -77 215 -100 q 247 -1 229 -54 q 217 28 214 3 l 306 867 l 106 867 q 83 908 79 867 l 86 931 q 117 972 90 972 l 639 972 z "},"Ț":{"ha":631,"x_min":83,"x_max":663,"o":"m 267 -3 q 217 28 214 -3 l 306 867 l 106 867 q 83 908 79 867 l 86 931 q 117 972 90 972 l 639 972 q 659 963 653 972 q 663 931 665 953 l 660 908 q 628 867 656 867 l 431 867 l 342 28 q 286 -3 339 -3 l 267 -3 m 214 -326 q 187 -322 199 -326 q 175 -306 175 -317 q 180 -283 175 -297 q 186 -262 185 -268 q 208 -193 200 -226 q 215 -115 215 -160 q 228 -83 215 -94 q 268 -71 242 -71 l 282 -71 q 318 -81 306 -71 q 331 -110 331 -92 q 310 -222 331 -172 q 263 -299 290 -271 q 214 -326 235 -326 z "},"Ṭ":{"ha":631,"x_min":83,"x_max":663,"o":"m 267 -3 q 217 28 214 -3 l 306 867 l 106 867 q 83 908 79 867 l 86 931 q 117 972 90 972 l 639 972 q 659 963 653 972 q 663 931 665 953 l 660 908 q 628 867 656 867 l 431 867 l 342 28 q 286 -3 339 -3 l 267 -3 m 250 -243 q 193 -212 189 -243 l 200 -142 q 267 -111 203 -111 q 325 -142 328 -111 l 318 -212 q 250 -243 314 -243 z "},"U":{"ha":810,"x_min":83,"x_max":779,"o":"m 367 -8 q 156 55 229 -8 q 83 232 83 118 q 85 271 83 257 l 156 944 q 211 975 158 975 l 231 975 q 281 944 283 975 l 210 267 q 208 246 208 260 q 255 138 208 179 q 378 97 301 97 q 515 145 458 97 q 581 267 572 193 l 651 944 q 707 975 654 975 l 726 975 q 776 944 779 975 l 706 271 q 603 65 692 139 q 367 -8 515 -8 z "},"Ú":{"ha":810,"x_min":83,"x_max":776,"o":"m 367 -8 q 156 55 229 -8 q 83 232 83 118 q 85 271 83 257 l 156 944 q 211 975 158 975 l 231 975 q 281 944 283 975 l 210 267 q 208 246 208 260 q 255 138 208 179 q 378 97 301 97 q 515 145 458 97 q 581 267 572 193 l 651 944 q 707 975 654 975 l 726 975 q 776 944 779 975 l 706 271 q 603 65 692 139 q 367 -8 515 -8 m 449 1058 q 419 1072 419 1058 q 437 1119 419 1082 q 488 1226 454 1157 q 565 1263 504 1263 q 610 1258 596 1263 q 624 1244 624 1254 q 611 1218 624 1236 q 574 1164 599 1200 l 515 1083 q 449 1058 499 1058 z "},"Ŭ":{"ha":810,"x_min":83,"x_max":776,"o":"m 367 -8 q 156 55 229 -8 q 83 232 83 118 q 85 271 83 257 l 156 944 q 211 975 158 975 l 231 975 q 281 944 283 975 l 210 267 q 208 246 208 260 q 255 138 208 179 q 378 97 301 97 q 515 145 458 97 q 581 267 572 193 l 651 944 q 707 975 654 975 l 726 975 q 776 944 779 975 l 706 271 q 603 65 692 139 q 367 -8 515 -8 m 481 1058 q 375 1094 417 1058 q 333 1196 333 1131 q 335 1218 333 1211 q 363 1239 338 1239 q 376 1233 372 1239 q 383 1219 381 1228 q 388 1204 386 1210 q 490 1150 403 1150 q 604 1204 578 1150 q 612 1219 607 1208 q 622 1235 617 1231 q 636 1239 628 1239 q 658 1218 661 1239 q 599 1100 650 1142 q 481 1058 549 1058 z "},"Û":{"ha":810,"x_min":83,"x_max":776,"o":"m 367 -8 q 156 55 229 -8 q 83 232 83 118 q 85 271 83 257 l 156 944 q 211 975 158 975 l 231 975 q 281 944 283 975 l 210 267 q 208 246 208 260 q 255 138 208 179 q 378 97 301 97 q 515 145 458 97 q 581 267 572 193 l 651 944 q 707 975 654 975 l 726 975 q 776 944 779 975 l 706 271 q 603 65 692 139 q 367 -8 515 -8 m 351 1046 q 333 1051 339 1046 q 326 1064 326 1056 q 333 1078 328 1069 q 339 1090 338 1086 l 425 1213 q 486 1243 447 1243 l 507 1243 q 561 1213 543 1243 l 622 1090 q 629 1067 629 1076 q 620 1051 628 1057 q 600 1046 613 1046 l 572 1046 q 540 1065 551 1046 l 488 1167 l 417 1065 q 378 1046 400 1046 l 351 1046 z "},"Ü":{"ha":810,"x_min":83,"x_max":776,"o":"m 367 -8 q 156 55 229 -8 q 83 232 83 118 q 85 271 83 257 l 156 944 q 211 975 158 975 l 231 975 q 281 944 283 975 l 210 267 q 208 246 208 260 q 255 138 208 179 q 378 97 301 97 q 515 145 458 97 q 581 267 572 193 l 651 944 q 707 975 654 975 l 726 975 q 776 944 779 975 l 706 271 q 603 65 692 139 q 367 -8 515 -8 m 393 1089 q 344 1119 340 1089 l 351 1190 q 410 1221 354 1221 q 460 1190 463 1221 l 453 1119 q 393 1089 449 1089 m 568 1089 q 519 1119 515 1089 l 526 1190 q 585 1221 529 1221 q 635 1190 638 1221 l 628 1119 q 568 1089 624 1089 z "},"Ụ":{"ha":810,"x_min":83,"x_max":776,"o":"m 367 -8 q 156 55 229 -8 q 83 232 83 118 q 85 271 83 257 l 156 944 q 211 975 158 975 l 231 975 q 281 944 283 975 l 210 267 q 208 246 208 260 q 255 138 208 179 q 378 97 301 97 q 515 145 458 97 q 581 267 572 193 l 651 944 q 707 975 654 975 l 726 975 q 776 944 779 975 l 706 271 q 603 65 692 139 q 367 -8 515 -8 m 343 -243 q 286 -212 282 -243 l 293 -142 q 360 -111 296 -111 q 418 -142 421 -111 l 411 -212 q 343 -243 407 -243 z "},"Ù":{"ha":810,"x_min":83,"x_max":776,"o":"m 367 -8 q 156 55 229 -8 q 83 232 83 118 q 85 271 83 257 l 156 944 q 211 975 158 975 l 231 975 q 281 944 283 975 l 210 267 q 208 246 208 260 q 255 138 208 179 q 378 97 301 97 q 515 145 458 97 q 581 267 572 193 l 651 944 q 707 975 654 975 l 726 975 q 776 944 779 975 l 706 271 q 603 65 692 139 q 367 -8 515 -8 m 494 1058 q 429 1083 446 1058 q 335 1210 351 1188 q 319 1244 319 1233 q 333 1258 319 1254 q 378 1263 347 1263 q 457 1226 438 1263 l 485 1168 q 513 1104 503 1128 q 524 1072 524 1081 q 517 1062 524 1065 q 494 1058 511 1058 z "},"Ủ":{"ha":810,"x_min":83,"x_max":776,"o":"m 367 -8 q 156 55 229 -8 q 83 232 83 118 q 85 271 83 257 l 156 944 q 211 975 158 975 l 231 975 q 281 944 283 975 l 210 267 q 208 246 208 260 q 255 138 208 179 q 378 97 301 97 q 515 145 458 97 q 581 267 572 193 l 651 944 q 707 975 654 975 l 726 975 q 776 944 779 975 l 706 271 q 603 65 692 139 q 367 -8 515 -8 m 479 1028 q 451 1035 468 1028 q 433 1051 433 1043 q 441 1072 433 1064 q 468 1097 449 1081 q 506 1135 492 1117 q 519 1179 519 1153 q 505 1207 519 1197 q 468 1217 490 1217 q 423 1208 438 1217 q 404 1199 408 1199 q 383 1216 396 1199 q 371 1244 371 1233 q 407 1273 371 1258 q 479 1288 443 1288 q 565 1264 525 1288 q 606 1189 606 1240 q 580 1111 606 1147 q 522 1051 554 1075 q 479 1028 490 1028 z "},"Ư":{"ha":810,"x_min":83,"x_max":893,"o":"m 893 1054 q 864 969 893 1001 q 775 931 835 936 l 706 271 q 603 65 692 139 q 367 -8 515 -8 q 156 55 229 -8 q 83 232 83 118 q 85 271 83 257 l 156 944 q 211 975 158 975 l 231 975 q 281 944 283 975 l 210 267 q 208 246 208 260 q 255 138 208 179 q 378 97 301 97 q 515 145 458 97 q 581 267 572 193 l 651 944 q 707 975 654 975 l 749 975 q 794 988 781 975 q 808 1021 808 1001 q 801 1053 808 1039 q 783 1085 794 1068 q 771 1107 772 1101 q 783 1129 771 1121 l 817 1151 q 833 1157 824 1157 q 874 1122 856 1157 q 893 1054 893 1088 z "},"Ứ":{"ha":810,"x_min":83,"x_max":893,"o":"m 449 1058 q 419 1072 419 1058 q 437 1119 419 1082 q 488 1226 454 1157 q 565 1263 504 1263 q 610 1258 596 1263 q 624 1244 624 1254 q 611 1218 624 1236 q 574 1164 599 1200 l 515 1083 q 449 1058 499 1058 m 893 1054 q 864 969 893 1001 q 775 931 835 936 l 706 271 q 603 65 692 139 q 367 -8 515 -8 q 156 55 229 -8 q 83 232 83 118 q 85 271 83 257 l 156 944 q 211 975 158 975 l 231 975 q 281 944 283 975 l 210 267 q 208 246 208 260 q 255 138 208 179 q 378 97 301 97 q 515 145 458 97 q 581 267 572 193 l 651 944 q 707 975 654 975 l 749 975 q 794 988 781 975 q 808 1021 808 1001 q 801 1053 808 1039 q 783 1085 794 1068 q 771 1107 772 1101 q 783 1129 771 1121 l 817 1151 q 833 1157 824 1157 q 874 1122 856 1157 q 893 1054 893 1088 z "},"Ự":{"ha":810,"x_min":83,"x_max":893,"o":"m 893 1054 q 864 969 893 1001 q 775 931 835 936 l 706 271 q 603 65 692 139 q 367 -8 515 -8 q 156 55 229 -8 q 83 232 83 118 q 85 271 83 257 l 156 944 q 211 975 158 975 l 231 975 q 281 944 283 975 l 210 267 q 208 246 208 260 q 255 138 208 179 q 378 97 301 97 q 515 145 458 97 q 581 267 572 193 l 651 944 q 707 975 654 975 l 749 975 q 794 988 781 975 q 808 1021 808 1001 q 801 1053 808 1039 q 783 1085 794 1068 q 771 1107 772 1101 q 783 1129 771 1121 l 817 1151 q 833 1157 824 1157 q 874 1122 856 1157 q 893 1054 893 1088 m 360 -111 q 418 -142 421 -111 l 411 -212 q 343 -243 407 -243 q 286 -212 282 -243 l 293 -142 q 360 -111 296 -111 z "},"Ừ":{"ha":810,"x_min":83,"x_max":893,"o":"m 494 1058 q 429 1083 446 1058 q 335 1210 351 1188 q 319 1244 319 1233 q 333 1258 319 1254 q 378 1263 347 1263 q 457 1226 438 1263 l 485 1168 q 513 1104 503 1128 q 524 1072 524 1081 q 517 1062 524 1065 q 494 1058 511 1058 m 893 1054 q 864 969 893 1001 q 775 931 835 936 l 706 271 q 603 65 692 139 q 367 -8 515 -8 q 156 55 229 -8 q 83 232 83 118 q 85 271 83 257 l 156 944 q 211 975 158 975 l 231 975 q 281 944 283 975 l 210 267 q 208 246 208 260 q 255 138 208 179 q 378 97 301 97 q 515 145 458 97 q 581 267 572 193 l 651 944 q 707 975 654 975 l 749 975 q 794 988 781 975 q 808 1021 808 1001 q 801 1053 808 1039 q 783 1085 794 1068 q 771 1107 772 1101 q 783 1129 771 1121 l 817 1151 q 833 1157 824 1157 q 874 1122 856 1157 q 893 1054 893 1088 z "},"Ử":{"ha":810,"x_min":83,"x_max":893,"o":"m 404 1199 q 383 1216 396 1199 q 371 1244 371 1233 q 407 1273 371 1258 q 479 1288 443 1288 q 565 1264 525 1288 q 606 1189 606 1240 q 580 1111 606 1147 q 522 1051 554 1075 q 479 1028 490 1028 q 451 1035 468 1028 q 433 1051 433 1043 q 441 1072 433 1064 q 468 1097 449 1081 q 506 1135 492 1117 q 519 1179 519 1153 q 505 1207 519 1197 q 468 1217 490 1217 q 423 1208 438 1217 q 404 1199 408 1199 m 893 1054 q 864 969 893 1001 q 775 931 835 936 l 706 271 q 603 65 692 139 q 367 -8 515 -8 q 156 55 229 -8 q 83 232 83 118 q 85 271 83 257 l 156 944 q 211 975 158 975 l 231 975 q 281 944 283 975 l 210 267 q 208 246 208 260 q 255 138 208 179 q 378 97 301 97 q 515 145 458 97 q 581 267 572 193 l 651 944 q 707 975 654 975 l 749 975 q 794 988 781 975 q 808 1021 808 1001 q 801 1053 808 1039 q 783 1085 794 1068 q 771 1107 772 1101 q 783 1129 771 1121 l 817 1151 q 833 1157 824 1157 q 874 1122 856 1157 q 893 1054 893 1088 z "},"Ữ":{"ha":810,"x_min":83,"x_max":893,"o":"m 281 1074 q 267 1090 267 1079 q 271 1108 267 1099 q 319 1182 292 1160 q 386 1204 346 1204 q 427 1197 407 1204 q 482 1175 447 1190 q 563 1149 538 1149 q 590 1156 578 1149 q 615 1185 601 1164 q 642 1206 626 1206 q 657 1201 649 1206 l 667 1197 q 680 1190 676 1193 q 683 1181 683 1186 q 678 1161 683 1172 q 630 1088 657 1110 q 564 1067 603 1067 q 518 1074 542 1067 q 463 1097 494 1082 q 420 1115 442 1107 q 383 1122 399 1122 q 358 1114 369 1122 q 333 1085 347 1106 q 310 1065 322 1065 q 294 1068 306 1065 l 281 1074 m 893 1054 q 864 969 893 1001 q 775 931 835 936 l 706 271 q 603 65 692 139 q 367 -8 515 -8 q 156 55 229 -8 q 83 232 83 118 q 85 271 83 257 l 156 944 q 211 975 158 975 l 231 975 q 281 944 283 975 l 210 267 q 208 246 208 260 q 255 138 208 179 q 378 97 301 97 q 515 145 458 97 q 581 267 572 193 l 651 944 q 707 975 654 975 l 749 975 q 794 988 781 975 q 808 1021 808 1001 q 801 1053 808 1039 q 783 1085 794 1068 q 771 1107 772 1101 q 783 1129 771 1121 l 817 1151 q 833 1157 824 1157 q 874 1122 856 1157 q 893 1054 893 1088 z "},"Ű":{"ha":810,"x_min":83,"x_max":776,"o":"m 367 -8 q 156 55 229 -8 q 83 232 83 118 q 85 271 83 257 l 156 944 q 211 975 158 975 l 231 975 q 281 944 283 975 l 210 267 q 208 246 208 260 q 255 138 208 179 q 378 97 301 97 q 515 145 458 97 q 581 267 572 193 l 651 944 q 707 975 654 975 l 726 975 q 776 944 779 975 l 706 271 q 603 65 692 139 q 367 -8 515 -8 m 372 1058 q 343 1072 343 1058 q 351 1097 343 1079 q 374 1146 360 1115 l 411 1226 q 489 1263 428 1263 q 533 1258 519 1263 q 547 1244 547 1254 q 534 1216 547 1236 q 490 1154 521 1196 l 439 1083 q 372 1058 419 1058 m 550 1058 q 521 1072 521 1058 q 529 1097 521 1079 q 551 1146 538 1115 l 589 1226 q 667 1263 606 1263 q 711 1258 697 1263 q 725 1244 725 1254 q 707 1205 725 1232 q 617 1083 689 1178 q 550 1058 599 1058 z "},"Ū":{"ha":810,"x_min":83,"x_max":776,"o":"m 367 -8 q 156 55 229 -8 q 83 232 83 118 q 85 271 83 257 l 156 944 q 211 975 158 975 l 231 975 q 281 944 283 975 l 210 267 q 208 246 208 260 q 255 138 208 179 q 378 97 301 97 q 515 145 458 97 q 581 267 572 193 l 651 944 q 707 975 654 975 l 726 975 q 776 944 779 975 l 706 271 q 603 65 692 139 q 367 -8 515 -8 m 344 1096 q 322 1138 318 1096 l 324 1151 q 354 1193 328 1193 l 631 1193 q 650 1183 644 1193 q 653 1151 656 1174 l 651 1138 q 642 1106 649 1115 q 621 1096 635 1096 l 344 1096 z "},"Ų":{"ha":810,"x_min":83,"x_max":779,"o":"m 726 975 q 776 944 779 975 l 706 271 q 655 123 696 185 q 544 28 614 61 q 519 -31 528 -1 q 510 -82 510 -60 q 579 -142 510 -142 q 610 -137 590 -142 q 635 -132 629 -132 q 663 -165 663 -132 q 644 -203 663 -190 q 553 -229 606 -229 q 451 -190 478 -229 q 425 -107 425 -150 q 450 -1 425 -57 q 367 -8 408 -8 q 156 55 229 -8 q 83 232 83 118 q 85 271 83 257 l 156 944 q 211 975 158 975 l 231 975 q 281 944 283 975 l 210 267 q 208 246 208 260 q 255 138 208 179 q 378 97 301 97 q 515 145 458 97 q 581 267 572 193 l 651 944 q 707 975 654 975 l 726 975 z "},"Ů":{"ha":810,"x_min":83,"x_max":776,"o":"m 367 -8 q 156 55 229 -8 q 83 232 83 118 q 85 271 83 257 l 156 944 q 211 975 158 975 l 231 975 q 281 944 283 975 l 210 267 q 208 246 208 260 q 255 138 208 179 q 378 97 301 97 q 515 145 458 97 q 581 267 572 193 l 651 944 q 707 975 654 975 l 726 975 q 776 944 779 975 l 706 271 q 603 65 692 139 q 367 -8 515 -8 m 474 1029 q 398 1056 426 1029 q 369 1129 369 1083 q 406 1226 369 1189 q 499 1264 443 1264 q 576 1236 547 1264 q 604 1161 604 1208 q 567 1066 604 1103 q 474 1029 529 1029 m 478 1078 q 531 1099 511 1078 q 551 1157 551 1119 q 536 1200 551 1185 q 493 1215 521 1215 q 440 1194 460 1215 q 421 1135 421 1172 q 435 1092 421 1107 q 478 1078 450 1078 z "},"Ũ":{"ha":810,"x_min":83,"x_max":776,"o":"m 367 -8 q 156 55 229 -8 q 83 232 83 118 q 85 271 83 257 l 156 944 q 211 975 158 975 l 231 975 q 281 944 283 975 l 210 267 q 208 246 208 260 q 255 138 208 179 q 378 97 301 97 q 515 145 458 97 q 581 267 572 193 l 651 944 q 707 975 654 975 l 726 975 q 776 944 779 975 l 706 271 q 603 65 692 139 q 367 -8 515 -8 m 281 1074 q 267 1090 267 1079 q 271 1108 267 1099 q 319 1182 292 1160 q 386 1204 346 1204 q 427 1197 407 1204 q 482 1175 447 1190 q 563 1149 538 1149 q 590 1156 578 1149 q 615 1185 601 1164 q 642 1206 626 1206 q 657 1201 649 1206 l 667 1197 q 680 1190 676 1193 q 683 1181 683 1186 q 678 1161 683 1172 q 630 1088 657 1110 q 564 1067 603 1067 q 518 1074 542 1067 q 463 1097 494 1082 q 420 1115 442 1107 q 383 1122 399 1122 q 358 1114 369 1122 q 333 1085 347 1106 q 310 1065 322 1065 q 294 1068 306 1065 l 281 1074 z "},"V":{"ha":706,"x_min":88,"x_max":742,"o":"m 290 -3 q 243 19 247 -3 l 90 933 q 88 951 88 947 q 146 975 90 975 l 165 975 q 214 953 210 975 l 322 214 l 326 142 l 331 142 l 351 215 l 615 953 q 669 975 625 975 l 686 975 q 739 951 742 975 q 733 932 739 949 l 394 19 q 340 -3 388 -3 l 290 -3 z "},"W":{"ha":1044,"x_min":93,"x_max":1076,"o":"m 253 -3 q 206 19 207 -3 l 94 932 q 93 949 93 939 q 151 975 97 975 l 169 975 q 222 953 221 975 l 279 282 q 283 167 283 235 q 285 128 285 153 l 329 286 l 529 951 q 581 975 536 975 l 608 975 q 657 951 656 975 l 722 283 q 729 128 729 215 l 772 282 l 947 953 q 1004 975 953 975 l 1019 975 q 1072 949 1076 975 q 1068 932 1072 943 l 792 19 q 739 -3 785 -3 l 697 -3 q 650 19 651 -3 l 589 604 l 579 793 l 531 604 l 347 19 q 294 -3 342 -3 l 253 -3 z "},"Ẃ":{"ha":1044,"x_min":93,"x_max":1072,"o":"m 253 -3 q 206 19 207 -3 l 94 932 q 93 949 93 939 q 151 975 97 975 l 169 975 q 222 953 221 975 l 279 282 q 283 167 283 235 q 285 128 285 153 l 329 286 l 529 951 q 581 975 536 975 l 608 975 q 657 951 656 975 l 722 283 q 729 128 729 215 l 772 282 l 947 953 q 1004 975 953 975 l 1019 975 q 1072 949 1076 975 q 1068 932 1072 943 l 792 19 q 739 -3 785 -3 l 697 -3 q 650 19 651 -3 l 589 604 l 579 793 l 531 604 l 347 19 q 294 -3 342 -3 l 253 -3 m 572 1058 q 543 1072 543 1058 q 560 1119 543 1082 q 611 1226 578 1157 q 689 1263 628 1263 q 733 1258 719 1263 q 747 1244 747 1254 q 735 1218 747 1236 q 697 1164 722 1200 l 639 1083 q 572 1058 622 1058 z "},"Ŵ":{"ha":1044,"x_min":93,"x_max":1072,"o":"m 253 -3 q 206 19 207 -3 l 94 932 q 93 949 93 939 q 151 975 97 975 l 169 975 q 222 953 221 975 l 279 282 q 283 167 283 235 q 285 128 285 153 l 329 286 l 529 951 q 581 975 536 975 l 608 975 q 657 951 656 975 l 722 283 q 729 128 729 215 l 772 282 l 947 953 q 1004 975 953 975 l 1019 975 q 1072 949 1076 975 q 1068 932 1072 943 l 792 19 q 739 -3 785 -3 l 697 -3 q 650 19 651 -3 l 589 604 l 579 793 l 531 604 l 347 19 q 294 -3 342 -3 l 253 -3 m 475 1046 q 456 1051 463 1046 q 450 1064 450 1056 q 456 1078 451 1069 q 463 1090 461 1086 l 549 1213 q 610 1243 571 1243 l 631 1243 q 685 1213 667 1243 l 746 1090 q 753 1067 753 1076 q 744 1051 751 1057 q 724 1046 736 1046 l 696 1046 q 664 1065 675 1046 l 611 1167 l 540 1065 q 501 1046 524 1046 l 475 1046 z "},"Ẅ":{"ha":1044,"x_min":93,"x_max":1072,"o":"m 253 -3 q 206 19 207 -3 l 94 932 q 93 949 93 939 q 151 975 97 975 l 169 975 q 222 953 221 975 l 279 282 q 283 167 283 235 q 285 128 285 153 l 329 286 l 529 951 q 581 975 536 975 l 608 975 q 657 951 656 975 l 722 283 q 729 128 729 215 l 772 282 l 947 953 q 1004 975 953 975 l 1019 975 q 1072 949 1076 975 q 1068 932 1072 943 l 792 19 q 739 -3 785 -3 l 697 -3 q 650 19 651 -3 l 589 604 l 579 793 l 531 604 l 347 19 q 294 -3 342 -3 l 253 -3 m 517 1089 q 468 1119 464 1089 l 475 1190 q 533 1221 478 1221 q 583 1190 586 1221 l 576 1119 q 517 1089 572 1089 m 692 1089 q 643 1119 639 1089 l 650 1190 q 708 1221 653 1221 q 758 1190 761 1221 l 751 1119 q 692 1089 747 1089 z "},"Ẁ":{"ha":1044,"x_min":93,"x_max":1072,"o":"m 253 -3 q 206 19 207 -3 l 94 932 q 93 949 93 939 q 151 975 97 975 l 169 975 q 222 953 221 975 l 279 282 q 283 167 283 235 q 285 128 285 153 l 329 286 l 529 951 q 581 975 536 975 l 608 975 q 657 951 656 975 l 722 283 q 729 128 729 215 l 772 282 l 947 953 q 1004 975 953 975 l 1019 975 q 1072 949 1076 975 q 1068 932 1072 943 l 792 19 q 739 -3 785 -3 l 697 -3 q 650 19 651 -3 l 589 604 l 579 793 l 531 604 l 347 19 q 294 -3 342 -3 l 253 -3 m 618 1058 q 553 1083 569 1058 q 459 1210 475 1188 q 443 1244 443 1233 q 457 1258 443 1254 q 501 1263 471 1263 q 581 1226 561 1263 l 608 1168 q 637 1104 626 1128 q 647 1072 647 1081 q 641 1062 647 1065 q 618 1058 635 1058 z "},"X":{"ha":703,"x_min":-8,"x_max":717,"o":"m 49 -3 q 5 3 18 -3 q -7 21 -8 8 q 6 46 -6 28 l 297 513 l 125 926 q 118 951 117 946 q 178 975 121 975 l 206 975 q 240 971 228 975 q 257 954 253 967 l 379 618 l 583 956 q 603 971 590 967 q 639 975 617 975 l 658 975 q 715 951 717 975 q 703 926 714 944 l 438 507 l 632 46 q 637 34 633 42 q 639 21 640 26 q 578 -3 636 -3 l 550 -3 q 499 18 506 -3 l 357 401 l 126 17 q 69 -3 115 -3 l 49 -3 z "},"Y":{"ha":672,"x_min":89,"x_max":707,"o":"m 288 -3 q 238 28 235 -3 l 282 440 l 96 926 q 89 951 89 943 q 102 969 90 964 q 144 975 114 975 l 165 975 q 200 971 189 975 q 217 954 211 967 l 354 561 l 578 956 q 599 971 585 967 q 635 975 613 975 l 656 975 q 695 968 683 974 q 706 951 707 963 q 694 926 706 942 l 406 436 l 363 28 q 307 -3 360 -3 l 288 -3 z "},"Ý":{"ha":672,"x_min":89,"x_max":706,"o":"m 288 -3 q 238 28 235 -3 l 282 440 l 96 926 q 89 951 89 943 q 102 969 90 964 q 144 975 114 975 l 165 975 q 200 971 189 975 q 217 954 211 967 l 354 561 l 578 956 q 599 971 585 967 q 635 975 613 975 l 656 975 q 695 968 683 974 q 706 951 707 963 q 694 926 706 942 l 406 436 l 363 28 q 307 -3 360 -3 l 288 -3 m 379 1058 q 350 1072 350 1058 q 367 1119 350 1082 q 418 1226 385 1157 q 496 1263 435 1263 q 540 1258 526 1263 q 554 1244 554 1254 q 542 1218 554 1236 q 504 1164 529 1200 l 446 1083 q 379 1058 429 1058 z "},"Ŷ":{"ha":672,"x_min":89,"x_max":706,"o":"m 288 -3 q 238 28 235 -3 l 282 440 l 96 926 q 89 951 89 943 q 102 969 90 964 q 144 975 114 975 l 165 975 q 200 971 189 975 q 217 954 211 967 l 354 561 l 578 956 q 599 971 585 967 q 635 975 613 975 l 656 975 q 695 968 683 974 q 706 951 707 963 q 694 926 706 942 l 406 436 l 363 28 q 307 -3 360 -3 l 288 -3 m 282 1046 q 263 1051 269 1046 q 257 1064 257 1056 q 263 1078 258 1069 q 269 1090 268 1086 l 356 1213 q 417 1243 378 1243 l 438 1243 q 492 1213 474 1243 l 553 1090 q 560 1067 560 1076 q 551 1051 558 1057 q 531 1046 543 1046 l 503 1046 q 471 1065 482 1046 l 418 1167 l 347 1065 q 308 1046 331 1046 l 282 1046 z "},"Ÿ":{"ha":672,"x_min":89,"x_max":706,"o":"m 288 -3 q 238 28 235 -3 l 282 440 l 96 926 q 89 951 89 943 q 102 969 90 964 q 144 975 114 975 l 165 975 q 200 971 189 975 q 217 954 211 967 l 354 561 l 578 956 q 599 971 585 967 q 635 975 613 975 l 656 975 q 695 968 683 974 q 706 951 707 963 q 694 926 706 942 l 406 436 l 363 28 q 307 -3 360 -3 l 288 -3 m 324 1089 q 275 1119 271 1089 l 282 1190 q 340 1221 285 1221 q 390 1190 393 1221 l 383 1119 q 324 1089 379 1089 m 499 1089 q 450 1119 446 1089 l 457 1190 q 515 1221 460 1221 q 565 1190 568 1221 l 558 1119 q 499 1089 554 1089 z "},"Ỵ":{"ha":672,"x_min":89,"x_max":706,"o":"m 288 -3 q 238 28 235 -3 l 282 440 l 96 926 q 89 951 89 943 q 102 969 90 964 q 144 975 114 975 l 165 975 q 200 971 189 975 q 217 954 211 967 l 354 561 l 578 956 q 599 971 585 967 q 635 975 613 975 l 656 975 q 695 968 683 974 q 706 951 707 963 q 694 926 706 942 l 406 436 l 363 28 q 307 -3 360 -3 l 288 -3 m 272 -243 q 215 -212 211 -243 l 222 -142 q 289 -111 225 -111 q 347 -142 350 -111 l 340 -212 q 272 -243 336 -243 z "},"Ỳ":{"ha":672,"x_min":89,"x_max":706,"o":"m 288 -3 q 238 28 235 -3 l 282 440 l 96 926 q 89 951 89 943 q 102 969 90 964 q 144 975 114 975 l 165 975 q 200 971 189 975 q 217 954 211 967 l 354 561 l 578 956 q 599 971 585 967 q 635 975 613 975 l 656 975 q 695 968 683 974 q 706 951 707 963 q 694 926 706 942 l 406 436 l 363 28 q 307 -3 360 -3 l 288 -3 m 425 1058 q 360 1083 376 1058 q 266 1210 282 1188 q 250 1244 250 1233 q 264 1258 250 1254 q 308 1263 278 1263 q 388 1226 368 1263 l 415 1168 q 444 1104 433 1128 q 454 1072 454 1081 q 448 1062 454 1065 q 425 1058 442 1058 z "},"Ỷ":{"ha":672,"x_min":89,"x_max":706,"o":"m 288 -3 q 238 28 235 -3 l 282 440 l 96 926 q 89 951 89 943 q 102 969 90 964 q 144 975 114 975 l 165 975 q 200 971 189 975 q 217 954 211 967 l 354 561 l 578 956 q 599 971 585 967 q 635 975 613 975 l 656 975 q 695 968 683 974 q 706 951 707 963 q 694 926 706 942 l 406 436 l 363 28 q 307 -3 360 -3 l 288 -3 m 410 1028 q 381 1035 399 1028 q 364 1051 364 1043 q 372 1072 364 1064 q 399 1097 379 1081 q 436 1135 422 1117 q 450 1179 450 1153 q 435 1207 450 1197 q 399 1217 421 1217 q 353 1208 368 1217 q 335 1199 339 1199 q 314 1216 326 1199 q 301 1244 301 1233 q 338 1273 301 1258 q 410 1288 374 1288 q 496 1264 456 1288 q 536 1189 536 1240 q 510 1111 536 1147 q 453 1051 485 1075 q 410 1028 421 1028 z "},"Ỹ":{"ha":672,"x_min":89,"x_max":706,"o":"m 288 -3 q 238 28 235 -3 l 282 440 l 96 926 q 89 951 89 943 q 102 969 90 964 q 144 975 114 975 l 165 975 q 200 971 189 975 q 217 954 211 967 l 354 561 l 578 956 q 599 971 585 967 q 635 975 613 975 l 656 975 q 695 968 683 974 q 706 951 707 963 q 694 926 706 942 l 406 436 l 363 28 q 307 -3 360 -3 l 288 -3 m 211 1074 q 197 1090 197 1079 q 201 1108 197 1099 q 249 1182 222 1160 q 317 1204 276 1204 q 358 1197 338 1204 q 413 1175 378 1190 q 493 1149 468 1149 q 520 1156 508 1149 q 546 1185 532 1164 q 572 1206 557 1206 q 588 1201 579 1206 l 597 1197 q 610 1190 607 1193 q 614 1181 614 1186 q 608 1161 614 1172 q 560 1088 588 1110 q 494 1067 533 1067 q 449 1074 472 1067 q 393 1097 425 1082 q 351 1115 372 1107 q 314 1122 329 1122 q 289 1114 300 1122 q 264 1085 278 1106 q 240 1065 253 1065 q 225 1068 236 1065 l 211 1074 z "},"Z":{"ha":704,"x_min":11,"x_max":703,"o":"m 39 0 q 19 26 28 0 q 14 74 11 51 q 18 90 14 78 l 546 867 l 158 867 q 140 878 144 867 q 138 914 135 889 l 139 925 q 149 961 142 950 q 169 972 156 972 l 678 972 q 695 947 688 972 q 700 899 703 921 q 697 882 700 890 l 172 106 l 590 106 q 609 94 604 106 q 613 58 614 83 l 611 47 q 601 11 608 22 q 579 0 593 0 l 39 0 z "},"Ź":{"ha":704,"x_min":14,"x_max":700,"o":"m 39 0 q 19 26 28 0 q 14 74 11 51 q 18 90 14 78 l 546 867 l 158 867 q 140 878 144 867 q 138 914 135 889 l 139 925 q 149 961 142 950 q 169 972 156 972 l 678 972 q 695 947 688 972 q 700 899 703 921 q 697 882 700 890 l 172 106 l 590 106 q 609 94 604 106 q 613 58 614 83 l 611 47 q 601 11 608 22 q 579 0 593 0 l 39 0 m 397 1058 q 368 1072 368 1058 q 385 1119 368 1082 q 436 1226 403 1157 q 514 1263 453 1263 q 558 1258 544 1263 q 572 1244 572 1254 q 560 1218 572 1236 q 522 1164 547 1200 l 464 1083 q 397 1058 447 1058 z "},"Ž":{"ha":704,"x_min":14,"x_max":700,"o":"m 39 0 q 19 26 28 0 q 14 74 11 51 q 18 90 14 78 l 546 867 l 158 867 q 140 878 144 867 q 138 914 135 889 l 139 925 q 149 961 142 950 q 169 972 156 972 l 678 972 q 695 947 688 972 q 700 899 703 921 q 697 882 700 890 l 172 106 l 590 106 q 609 94 604 106 q 613 58 614 83 l 611 47 q 601 11 608 22 q 579 0 593 0 l 39 0 m 418 1056 q 363 1086 379 1056 l 303 1208 q 296 1233 296 1226 q 305 1247 297 1242 q 325 1253 313 1253 l 351 1253 q 385 1232 372 1253 l 436 1132 l 508 1232 q 546 1253 524 1253 l 574 1253 q 592 1247 586 1253 q 597 1232 599 1242 q 586 1208 597 1225 l 499 1086 q 439 1056 478 1056 l 418 1056 z "},"Ż":{"ha":704,"x_min":14,"x_max":700,"o":"m 39 0 q 19 26 28 0 q 14 74 11 51 q 18 90 14 78 l 546 867 l 158 867 q 140 878 144 867 q 138 914 135 889 l 139 925 q 149 961 142 950 q 169 972 156 972 l 678 972 q 695 947 688 972 q 700 899 703 921 q 697 882 700 890 l 172 106 l 590 106 q 609 94 604 106 q 613 58 614 83 l 611 47 q 601 11 608 22 q 579 0 593 0 l 39 0 m 429 1089 q 372 1119 368 1089 l 379 1190 q 446 1221 382 1221 q 504 1190 507 1221 l 497 1119 q 429 1089 493 1089 z "},"Ẓ":{"ha":704,"x_min":14,"x_max":700,"o":"m 39 0 q 19 26 28 0 q 14 74 11 51 q 18 90 14 78 l 546 867 l 158 867 q 140 878 144 867 q 138 914 135 889 l 139 925 q 149 961 142 950 q 169 972 156 972 l 678 972 q 695 947 688 972 q 700 899 703 921 q 697 882 700 890 l 172 106 l 590 106 q 609 94 604 106 q 613 58 614 83 l 611 47 q 601 11 608 22 q 579 0 593 0 l 39 0 m 297 -243 q 240 -212 236 -243 l 247 -142 q 314 -111 250 -111 q 372 -142 375 -111 l 365 -212 q 297 -243 361 -243 z "},"a":{"ha":668,"x_min":61,"x_max":625,"o":"m 242 -10 q 105 72 149 -10 q 61 282 61 154 q 65 365 61 324 q 158 635 83 535 q 339 735 232 735 q 489 660 431 735 q 513 713 501 697 q 551 729 525 729 l 560 729 q 587 722 579 729 q 594 700 594 715 q 590 659 593 685 q 585 606 588 633 l 578 546 l 536 160 q 571 92 531 92 q 592 95 581 92 q 611 99 604 99 q 622 90 618 99 q 625 67 625 81 q 535 -8 625 -8 q 456 19 490 -8 q 418 115 421 46 q 242 -10 354 -10 m 275 92 q 362 135 319 92 q 432 275 404 179 l 457 510 q 468 579 460 535 q 421 618 446 603 q 357 633 396 633 q 239 565 279 633 q 185 371 199 496 q 179 281 179 313 q 201 144 179 196 q 275 92 224 92 z "},"á":{"ha":668,"x_min":61,"x_max":625,"o":"m 242 -10 q 105 72 149 -10 q 61 282 61 154 q 65 365 61 324 q 158 635 83 535 q 339 735 232 735 q 489 660 431 735 q 513 713 501 697 q 551 729 525 729 l 560 729 q 587 722 579 729 q 594 700 594 715 q 590 659 593 685 q 585 606 588 633 l 578 546 l 536 160 q 571 92 531 92 q 592 95 581 92 q 611 99 604 99 q 622 90 618 99 q 625 67 625 81 q 535 -8 625 -8 q 456 19 490 -8 q 418 115 421 46 q 242 -10 354 -10 m 275 92 q 362 135 319 92 q 432 275 404 179 l 457 510 q 468 579 460 535 q 421 618 446 603 q 357 633 396 633 q 239 565 279 633 q 185 371 199 496 q 179 281 179 313 q 201 144 179 196 q 275 92 224 92 m 340 813 q 311 826 311 813 q 328 874 311 836 q 379 981 346 911 q 457 1017 396 1017 q 501 1013 488 1017 q 515 999 515 1008 q 503 972 515 990 q 465 918 490 954 l 407 838 q 340 813 390 813 z "},"ă":{"ha":668,"x_min":61,"x_max":625,"o":"m 242 -10 q 105 72 149 -10 q 61 282 61 154 q 65 365 61 324 q 158 635 83 535 q 339 735 232 735 q 489 660 431 735 q 513 713 501 697 q 551 729 525 729 l 560 729 q 587 722 579 729 q 594 700 594 715 q 590 659 593 685 q 585 606 588 633 l 578 546 l 536 160 q 571 92 531 92 q 592 95 581 92 q 611 99 604 99 q 622 90 618 99 q 625 67 625 81 q 535 -8 625 -8 q 456 19 490 -8 q 418 115 421 46 q 242 -10 354 -10 m 275 92 q 362 135 319 92 q 432 275 404 179 l 457 510 q 468 579 460 535 q 421 618 446 603 q 357 633 396 633 q 239 565 279 633 q 185 371 199 496 q 179 281 179 313 q 201 144 179 196 q 275 92 224 92 m 372 813 q 267 849 308 813 q 225 950 225 885 q 226 972 225 965 q 254 993 229 993 q 268 988 264 993 q 275 973 272 982 q 279 958 278 964 q 382 904 294 904 q 496 958 469 904 q 503 974 499 963 q 514 989 508 985 q 528 993 519 993 q 550 972 553 993 q 491 854 542 896 q 372 813 440 813 z "},"ắ":{"ha":668,"x_min":61,"x_max":625,"o":"m 242 -10 q 105 72 149 -10 q 61 282 61 154 q 65 365 61 324 q 158 635 83 535 q 339 735 232 735 q 489 660 431 735 q 513 713 501 697 q 551 729 525 729 l 560 729 q 587 722 579 729 q 594 700 594 715 q 590 659 593 685 q 585 606 588 633 l 578 546 l 536 160 q 571 92 531 92 q 592 95 581 92 q 611 99 604 99 q 622 90 618 99 q 625 67 625 81 q 535 -8 625 -8 q 456 19 490 -8 q 418 115 421 46 q 242 -10 354 -10 m 275 92 q 362 135 319 92 q 432 275 404 179 l 457 510 q 468 579 460 535 q 421 618 446 603 q 357 633 396 633 q 239 565 279 633 q 185 371 199 496 q 179 281 179 313 q 201 144 179 196 q 275 92 224 92 m 372 813 q 267 849 308 813 q 225 950 225 885 q 226 972 225 965 q 254 993 229 993 q 268 988 264 993 q 275 973 272 982 q 279 958 278 964 q 382 904 294 904 q 496 958 469 904 q 503 974 499 963 q 514 989 508 985 q 528 993 519 993 q 550 972 553 993 q 491 854 542 896 q 372 813 440 813 m 363 1018 q 333 1032 333 1018 q 351 1079 333 1042 q 401 1186 368 1117 q 479 1222 418 1222 q 524 1218 510 1222 q 538 1204 538 1214 q 525 1178 538 1196 q 488 1124 513 1160 l 429 1043 q 363 1018 413 1018 z "},"ặ":{"ha":668,"x_min":61,"x_max":625,"o":"m 242 -10 q 105 72 149 -10 q 61 282 61 154 q 65 365 61 324 q 158 635 83 535 q 339 735 232 735 q 489 660 431 735 q 513 713 501 697 q 551 729 525 729 l 560 729 q 587 722 579 729 q 594 700 594 715 q 590 659 593 685 q 585 606 588 633 l 578 546 l 536 160 q 571 92 531 92 q 592 95 581 92 q 611 99 604 99 q 622 90 618 99 q 625 67 625 81 q 535 -8 625 -8 q 456 19 490 -8 q 418 115 421 46 q 242 -10 354 -10 m 275 92 q 362 135 319 92 q 432 275 404 179 l 457 510 q 468 579 460 535 q 421 618 446 603 q 357 633 396 633 q 239 565 279 633 q 185 371 199 496 q 179 281 179 313 q 201 144 179 196 q 275 92 224 92 m 246 -243 q 189 -212 185 -243 l 196 -142 q 263 -111 199 -111 q 321 -142 324 -111 l 314 -212 q 246 -243 310 -243 m 372 813 q 267 849 308 813 q 225 950 225 885 q 226 972 225 965 q 254 993 229 993 q 268 988 264 993 q 275 973 272 982 q 279 958 278 964 q 382 904 294 904 q 496 958 469 904 q 503 974 499 963 q 514 989 508 985 q 528 993 519 993 q 550 972 553 993 q 491 854 542 896 q 372 813 440 813 z "},"ằ":{"ha":668,"x_min":61,"x_max":625,"o":"m 242 -10 q 105 72 149 -10 q 61 282 61 154 q 65 365 61 324 q 158 635 83 535 q 339 735 232 735 q 489 660 431 735 q 513 713 501 697 q 551 729 525 729 l 560 729 q 587 722 579 729 q 594 700 594 715 q 590 659 593 685 q 585 606 588 633 l 578 546 l 536 160 q 571 92 531 92 q 592 95 581 92 q 611 99 604 99 q 622 90 618 99 q 625 67 625 81 q 535 -8 625 -8 q 456 19 490 -8 q 418 115 421 46 q 242 -10 354 -10 m 275 92 q 362 135 319 92 q 432 275 404 179 l 457 510 q 468 579 460 535 q 421 618 446 603 q 357 633 396 633 q 239 565 279 633 q 185 371 199 496 q 179 281 179 313 q 201 144 179 196 q 275 92 224 92 m 372 813 q 267 849 308 813 q 225 950 225 885 q 226 972 225 965 q 254 993 229 993 q 268 988 264 993 q 275 973 272 982 q 279 958 278 964 q 382 904 294 904 q 496 958 469 904 q 503 974 499 963 q 514 989 508 985 q 528 993 519 993 q 550 972 553 993 q 491 854 542 896 q 372 813 440 813 m 408 1018 q 343 1043 360 1018 q 249 1170 265 1147 q 233 1204 233 1193 q 247 1218 233 1214 q 292 1222 261 1222 q 371 1186 351 1222 l 399 1128 q 427 1064 417 1088 q 438 1032 438 1040 q 431 1022 438 1025 q 408 1018 425 1018 z "},"ẳ":{"ha":668,"x_min":61,"x_max":625,"o":"m 242 -10 q 105 72 149 -10 q 61 282 61 154 q 65 365 61 324 q 158 635 83 535 q 339 735 232 735 q 489 660 431 735 q 513 713 501 697 q 551 729 525 729 l 560 729 q 587 722 579 729 q 594 700 594 715 q 590 659 593 685 q 585 606 588 633 l 578 546 l 536 160 q 571 92 531 92 q 592 95 581 92 q 611 99 604 99 q 622 90 618 99 q 625 67 625 81 q 535 -8 625 -8 q 456 19 490 -8 q 418 115 421 46 q 242 -10 354 -10 m 275 92 q 362 135 319 92 q 432 275 404 179 l 457 510 q 468 579 460 535 q 421 618 446 603 q 357 633 396 633 q 239 565 279 633 q 185 371 199 496 q 179 281 179 313 q 201 144 179 196 q 275 92 224 92 m 372 813 q 267 849 308 813 q 225 950 225 885 q 226 972 225 965 q 254 993 229 993 q 268 988 264 993 q 275 973 272 982 q 279 958 278 964 q 382 904 294 904 q 496 958 469 904 q 503 974 499 963 q 514 989 508 985 q 528 993 519 993 q 550 972 553 993 q 491 854 542 896 q 372 813 440 813 m 393 988 q 365 995 382 988 q 347 1011 347 1003 q 355 1032 347 1024 q 382 1057 363 1040 q 419 1094 406 1076 q 433 1139 433 1113 q 419 1167 433 1157 q 382 1176 404 1176 q 337 1167 351 1176 q 318 1158 322 1158 q 297 1176 310 1158 q 285 1204 285 1193 q 321 1233 285 1218 q 393 1247 357 1247 q 479 1224 439 1247 q 519 1149 519 1200 q 494 1071 519 1107 q 436 1011 468 1035 q 393 988 404 988 z "},"ẵ":{"ha":668,"x_min":61,"x_max":625,"o":"m 225 1068 q 213 1085 213 1075 q 217 1103 213 1093 q 260 1176 235 1154 q 321 1199 285 1199 q 359 1191 339 1199 q 410 1169 379 1183 q 482 1143 460 1143 q 507 1151 496 1143 q 529 1179 518 1160 q 554 1200 540 1200 q 568 1196 560 1200 l 576 1192 q 588 1185 583 1189 q 592 1175 592 1181 q 586 1156 592 1167 q 543 1083 568 1106 q 483 1061 518 1061 q 441 1069 463 1061 q 390 1092 419 1076 q 351 1109 371 1101 q 318 1117 332 1117 q 295 1108 306 1117 q 274 1079 285 1100 q 251 1060 263 1060 q 238 1063 249 1060 l 225 1068 m 372 813 q 267 849 308 813 q 225 950 225 885 q 226 972 225 965 q 254 993 229 993 q 268 988 264 993 q 275 973 272 982 q 279 958 278 964 q 382 904 294 904 q 496 958 469 904 q 503 974 499 963 q 514 989 508 985 q 528 993 519 993 q 550 972 553 993 q 491 854 542 896 q 372 813 440 813 m 242 -10 q 105 72 149 -10 q 61 282 61 154 q 65 365 61 324 q 158 635 83 535 q 339 735 232 735 q 489 660 431 735 q 513 713 501 697 q 551 729 525 729 l 560 729 q 587 722 579 729 q 594 700 594 715 q 590 659 593 685 q 585 606 588 633 l 578 546 l 536 160 q 571 92 531 92 q 592 95 581 92 q 611 99 604 99 q 622 90 618 99 q 625 67 625 81 q 535 -8 625 -8 q 456 19 490 -8 q 418 115 421 46 q 242 -10 354 -10 m 275 92 q 362 135 319 92 q 432 275 404 179 l 457 510 q 468 579 460 535 q 421 618 446 603 q 357 633 396 633 q 239 565 279 633 q 185 371 199 496 q 179 281 179 313 q 201 144 179 196 q 275 92 224 92 z "},"â":{"ha":668,"x_min":61,"x_max":625,"o":"m 242 -10 q 105 72 149 -10 q 61 282 61 154 q 65 365 61 324 q 158 635 83 535 q 339 735 232 735 q 489 660 431 735 q 513 713 501 697 q 551 729 525 729 l 560 729 q 587 722 579 729 q 594 700 594 715 q 590 659 593 685 q 585 606 588 633 l 578 546 l 536 160 q 571 92 531 92 q 592 95 581 92 q 611 99 604 99 q 622 90 618 99 q 625 67 625 81 q 535 -8 625 -8 q 456 19 490 -8 q 418 115 421 46 q 242 -10 354 -10 m 275 92 q 362 135 319 92 q 432 275 404 179 l 457 510 q 468 579 460 535 q 421 618 446 603 q 357 633 396 633 q 239 565 279 633 q 185 371 199 496 q 179 281 179 313 q 201 144 179 196 q 275 92 224 92 m 243 800 q 224 805 231 800 q 218 818 218 810 q 224 832 219 824 q 231 844 229 840 l 317 967 q 378 997 339 997 l 399 997 q 453 967 435 997 l 514 844 q 521 821 521 831 q 512 806 519 811 q 492 800 504 800 l 464 800 q 432 819 443 800 l 379 921 l 308 819 q 269 800 292 800 l 243 800 z "},"ấ":{"ha":668,"x_min":61,"x_max":685,"o":"m 510 1003 q 481 1017 481 1003 q 498 1064 481 1026 q 549 1171 515 1101 q 626 1207 565 1207 q 671 1203 657 1207 q 685 1189 685 1199 q 672 1163 685 1181 q 635 1108 660 1144 l 576 1028 q 510 1003 560 1003 m 253 800 q 234 805 240 800 q 228 818 228 810 q 233 832 229 825 q 238 844 236 839 l 318 967 q 379 997 339 997 l 401 997 q 456 967 439 997 l 507 844 q 515 821 515 832 q 506 806 514 811 q 486 800 499 800 l 458 800 q 439 805 449 800 q 425 818 429 810 l 381 921 l 317 818 q 301 803 310 807 q 279 800 292 800 l 253 800 m 242 -10 q 105 72 149 -10 q 61 282 61 154 q 65 365 61 324 q 158 635 83 535 q 339 735 232 735 q 489 660 431 735 q 513 713 501 697 q 551 729 525 729 l 560 729 q 587 722 579 729 q 594 700 594 715 q 590 659 593 685 q 585 606 588 633 l 578 546 l 536 160 q 571 92 531 92 q 592 95 581 92 q 611 99 604 99 q 622 90 618 99 q 625 67 625 81 q 535 -8 625 -8 q 456 19 490 -8 q 418 115 421 46 q 242 -10 354 -10 m 275 92 q 362 135 319 92 q 432 275 404 179 l 457 510 q 468 579 460 535 q 421 618 446 603 q 357 633 396 633 q 239 565 279 633 q 185 371 199 496 q 179 281 179 313 q 201 144 179 196 q 275 92 224 92 z "},"ậ":{"ha":668,"x_min":61,"x_max":625,"o":"m 242 -10 q 105 72 149 -10 q 61 282 61 154 q 65 365 61 324 q 158 635 83 535 q 339 735 232 735 q 489 660 431 735 q 513 713 501 697 q 551 729 525 729 l 560 729 q 587 722 579 729 q 594 700 594 715 q 590 659 593 685 q 585 606 588 633 l 578 546 l 536 160 q 571 92 531 92 q 592 95 581 92 q 611 99 604 99 q 622 90 618 99 q 625 67 625 81 q 535 -8 625 -8 q 456 19 490 -8 q 418 115 421 46 q 242 -10 354 -10 m 275 92 q 362 135 319 92 q 432 275 404 179 l 457 510 q 468 579 460 535 q 421 618 446 603 q 357 633 396 633 q 239 565 279 633 q 185 371 199 496 q 179 281 179 313 q 201 144 179 196 q 275 92 224 92 m 246 -243 q 189 -212 185 -243 l 196 -142 q 263 -111 199 -111 q 321 -142 324 -111 l 314 -212 q 246 -243 310 -243 m 243 800 q 224 805 231 800 q 218 818 218 810 q 224 832 219 824 q 231 844 229 840 l 317 967 q 378 997 339 997 l 399 997 q 453 967 435 997 l 514 844 q 521 821 521 831 q 512 806 519 811 q 492 800 504 800 l 464 800 q 432 819 443 800 l 379 921 l 308 819 q 269 800 292 800 l 243 800 z "},"ầ":{"ha":668,"x_min":61,"x_max":625,"o":"m 556 1003 q 490 1028 507 1003 q 397 1155 413 1132 q 381 1189 381 1178 q 394 1203 381 1199 q 439 1207 408 1207 q 518 1171 499 1207 l 546 1113 q 574 1049 564 1072 q 585 1017 585 1025 q 578 1006 585 1010 q 556 1003 572 1003 m 253 800 q 234 805 240 800 q 228 818 228 810 q 233 832 229 825 q 238 844 236 839 l 318 967 q 379 997 339 997 l 401 997 q 456 967 439 997 l 507 844 q 515 821 515 832 q 506 806 514 811 q 486 800 499 800 l 458 800 q 439 805 449 800 q 425 818 429 810 l 381 921 l 317 818 q 301 803 310 807 q 279 800 292 800 l 253 800 m 242 -10 q 105 72 149 -10 q 61 282 61 154 q 65 365 61 324 q 158 635 83 535 q 339 735 232 735 q 489 660 431 735 q 513 713 501 697 q 551 729 525 729 l 560 729 q 587 722 579 729 q 594 700 594 715 q 590 659 593 685 q 585 606 588 633 l 578 546 l 536 160 q 571 92 531 92 q 592 95 581 92 q 611 99 604 99 q 622 90 618 99 q 625 67 625 81 q 535 -8 625 -8 q 456 19 490 -8 q 418 115 421 46 q 242 -10 354 -10 m 275 92 q 362 135 319 92 q 432 275 404 179 l 457 510 q 468 579 460 535 q 421 618 446 603 q 357 633 396 633 q 239 565 279 633 q 185 371 199 496 q 179 281 179 313 q 201 144 179 196 q 275 92 224 92 z "},"ẩ":{"ha":668,"x_min":61,"x_max":667,"o":"m 540 972 q 512 980 529 972 q 494 996 494 988 q 502 1017 494 1008 q 529 1042 510 1025 q 567 1079 553 1061 q 581 1124 581 1097 q 566 1151 581 1142 q 529 1161 551 1161 q 484 1152 499 1161 q 465 1143 469 1143 q 444 1160 457 1143 q 432 1189 432 1178 q 468 1217 432 1203 q 540 1232 504 1232 q 626 1208 586 1232 q 667 1133 667 1185 q 641 1056 667 1092 q 583 996 615 1019 q 540 972 551 972 m 253 800 q 234 805 240 800 q 228 818 228 810 q 233 832 229 825 q 238 844 236 839 l 318 967 q 379 997 339 997 l 401 997 q 456 967 439 997 l 507 844 q 515 821 515 832 q 506 806 514 811 q 486 800 499 800 l 458 800 q 439 805 449 800 q 425 818 429 810 l 381 921 l 317 818 q 301 803 310 807 q 279 800 292 800 l 253 800 m 242 -10 q 105 72 149 -10 q 61 282 61 154 q 65 365 61 324 q 158 635 83 535 q 339 735 232 735 q 489 660 431 735 q 513 713 501 697 q 551 729 525 729 l 560 729 q 587 722 579 729 q 594 700 594 715 q 590 659 593 685 q 585 606 588 633 l 578 546 l 536 160 q 571 92 531 92 q 592 95 581 92 q 611 99 604 99 q 622 90 618 99 q 625 67 625 81 q 535 -8 625 -8 q 456 19 490 -8 q 418 115 421 46 q 242 -10 354 -10 m 275 92 q 362 135 319 92 q 432 275 404 179 l 457 510 q 468 579 460 535 q 421 618 446 603 q 357 633 396 633 q 239 565 279 633 q 185 371 199 496 q 179 281 179 313 q 201 144 179 196 q 275 92 224 92 z "},"ẫ":{"ha":668,"x_min":61,"x_max":625,"o":"m 221 1060 q 208 1076 208 1067 q 213 1094 208 1085 q 256 1168 231 1146 q 317 1190 281 1190 q 355 1183 335 1190 q 406 1161 375 1175 q 478 1135 456 1135 q 503 1143 492 1135 q 525 1171 514 1151 q 550 1192 536 1192 q 564 1188 556 1192 l 572 1183 q 583 1176 579 1181 q 588 1167 588 1172 q 582 1147 588 1158 q 539 1075 564 1097 q 479 1053 514 1053 q 437 1060 458 1053 q 386 1083 415 1068 q 347 1101 367 1093 q 314 1108 328 1108 q 291 1100 301 1108 q 269 1071 281 1092 q 247 1051 258 1051 q 233 1054 244 1051 l 221 1060 m 243 800 q 224 805 231 800 q 218 818 218 810 q 224 832 219 824 q 231 844 229 840 l 317 967 q 378 997 339 997 l 399 997 q 453 967 435 997 l 514 844 q 521 821 521 831 q 512 806 519 811 q 492 800 504 800 l 464 800 q 432 819 443 800 l 379 921 l 308 819 q 269 800 292 800 l 243 800 m 242 -10 q 105 72 149 -10 q 61 282 61 154 q 65 365 61 324 q 158 635 83 535 q 339 735 232 735 q 489 660 431 735 q 513 713 501 697 q 551 729 525 729 l 560 729 q 587 722 579 729 q 594 700 594 715 q 590 659 593 685 q 585 606 588 633 l 578 546 l 536 160 q 571 92 531 92 q 592 95 581 92 q 611 99 604 99 q 622 90 618 99 q 625 67 625 81 q 535 -8 625 -8 q 456 19 490 -8 q 418 115 421 46 q 242 -10 354 -10 m 275 92 q 362 135 319 92 q 432 275 404 179 l 457 510 q 468 579 460 535 q 421 618 446 603 q 357 633 396 633 q 239 565 279 633 q 185 371 199 496 q 179 281 179 313 q 201 144 179 196 q 275 92 224 92 z "},"ä":{"ha":668,"x_min":61,"x_max":625,"o":"m 242 -10 q 105 72 149 -10 q 61 282 61 154 q 65 365 61 324 q 158 635 83 535 q 339 735 232 735 q 489 660 431 735 q 513 713 501 697 q 551 729 525 729 l 560 729 q 587 722 579 729 q 594 700 594 715 q 590 659 593 685 q 585 606 588 633 l 578 546 l 536 160 q 571 92 531 92 q 592 95 581 92 q 611 99 604 99 q 622 90 618 99 q 625 67 625 81 q 535 -8 625 -8 q 456 19 490 -8 q 418 115 421 46 q 242 -10 354 -10 m 275 92 q 362 135 319 92 q 432 275 404 179 l 457 510 q 468 579 460 535 q 421 618 446 603 q 357 633 396 633 q 239 565 279 633 q 185 371 199 496 q 179 281 179 313 q 201 144 179 196 q 275 92 224 92 m 285 843 q 236 874 232 843 l 243 944 q 301 975 246 975 q 351 944 354 975 l 344 874 q 285 843 340 843 m 460 843 q 411 874 407 843 l 418 944 q 476 975 421 975 q 526 944 529 975 l 519 874 q 460 843 515 843 z "},"ạ":{"ha":668,"x_min":61,"x_max":625,"o":"m 242 -10 q 105 72 149 -10 q 61 282 61 154 q 65 365 61 324 q 158 635 83 535 q 339 735 232 735 q 489 660 431 735 q 513 713 501 697 q 551 729 525 729 l 560 729 q 587 722 579 729 q 594 700 594 715 q 590 659 593 685 q 585 606 588 633 l 578 546 l 536 160 q 571 92 531 92 q 592 95 581 92 q 611 99 604 99 q 622 90 618 99 q 625 67 625 81 q 535 -8 625 -8 q 456 19 490 -8 q 418 115 421 46 q 242 -10 354 -10 m 275 92 q 362 135 319 92 q 432 275 404 179 l 457 510 q 468 579 460 535 q 421 618 446 603 q 357 633 396 633 q 239 565 279 633 q 185 371 199 496 q 179 281 179 313 q 201 144 179 196 q 275 92 224 92 m 246 -243 q 189 -212 185 -243 l 196 -142 q 263 -111 199 -111 q 321 -142 324 -111 l 314 -212 q 246 -243 310 -243 z "},"à":{"ha":668,"x_min":61,"x_max":625,"o":"m 242 -10 q 105 72 149 -10 q 61 282 61 154 q 65 365 61 324 q 158 635 83 535 q 339 735 232 735 q 489 660 431 735 q 513 713 501 697 q 551 729 525 729 l 560 729 q 587 722 579 729 q 594 700 594 715 q 590 659 593 685 q 585 606 588 633 l 578 546 l 536 160 q 571 92 531 92 q 592 95 581 92 q 611 99 604 99 q 622 90 618 99 q 625 67 625 81 q 535 -8 625 -8 q 456 19 490 -8 q 418 115 421 46 q 242 -10 354 -10 m 275 92 q 362 135 319 92 q 432 275 404 179 l 457 510 q 468 579 460 535 q 421 618 446 603 q 357 633 396 633 q 239 565 279 633 q 185 371 199 496 q 179 281 179 313 q 201 144 179 196 q 275 92 224 92 m 386 813 q 321 838 338 813 q 227 965 243 942 q 211 999 211 988 q 225 1013 211 1008 q 269 1017 239 1017 q 349 981 329 1017 l 376 922 q 405 858 394 882 q 415 826 415 835 q 409 816 415 819 q 386 813 403 813 z "},"ả":{"ha":668,"x_min":61,"x_max":625,"o":"m 242 -10 q 105 72 149 -10 q 61 282 61 154 q 65 365 61 324 q 158 635 83 535 q 339 735 232 735 q 489 660 431 735 q 513 713 501 697 q 551 729 525 729 l 560 729 q 587 722 579 729 q 594 700 594 715 q 590 659 593 685 q 585 606 588 633 l 578 546 l 536 160 q 571 92 531 92 q 592 95 581 92 q 611 99 604 99 q 622 90 618 99 q 625 67 625 81 q 535 -8 625 -8 q 456 19 490 -8 q 418 115 421 46 q 242 -10 354 -10 m 275 92 q 362 135 319 92 q 432 275 404 179 l 457 510 q 468 579 460 535 q 421 618 446 603 q 357 633 396 633 q 239 565 279 633 q 185 371 199 496 q 179 281 179 313 q 201 144 179 196 q 275 92 224 92 m 371 782 q 342 790 360 782 q 325 806 325 797 q 333 826 325 818 q 360 851 340 835 q 397 889 383 871 q 411 933 411 907 q 397 961 411 951 q 360 971 382 971 q 315 962 329 971 q 296 953 300 953 q 275 970 288 953 q 263 999 263 988 q 299 1027 263 1013 q 371 1042 335 1042 q 457 1018 417 1042 q 497 943 497 994 q 472 865 497 901 q 414 806 446 829 q 371 782 382 782 z "},"ā":{"ha":668,"x_min":61,"x_max":625,"o":"m 242 -10 q 105 72 149 -10 q 61 282 61 154 q 65 365 61 324 q 158 635 83 535 q 339 735 232 735 q 489 660 431 735 q 513 713 501 697 q 551 729 525 729 l 560 729 q 587 722 579 729 q 594 700 594 715 q 590 659 593 685 q 585 606 588 633 l 578 546 l 536 160 q 571 92 531 92 q 592 95 581 92 q 611 99 604 99 q 622 90 618 99 q 625 67 625 81 q 535 -8 625 -8 q 456 19 490 -8 q 418 115 421 46 q 242 -10 354 -10 m 275 92 q 362 135 319 92 q 432 275 404 179 l 457 510 q 468 579 460 535 q 421 618 446 603 q 357 633 396 633 q 239 565 279 633 q 185 371 199 496 q 179 281 179 313 q 201 144 179 196 q 275 92 224 92 m 236 850 q 214 892 210 850 l 215 906 q 246 947 219 947 l 522 947 q 542 938 536 947 q 544 906 547 928 l 543 892 q 533 860 540 869 q 513 850 526 850 l 236 850 z "},"ą":{"ha":668,"x_min":61,"x_max":690,"o":"m 663 -162 q 690 -196 690 -162 q 672 -233 690 -221 q 581 -260 633 -260 q 479 -220 506 -260 q 453 -137 453 -181 q 463 -72 453 -108 q 494 -3 472 -36 q 441 35 463 7 q 418 115 419 64 q 242 -10 354 -10 q 105 72 149 -10 q 61 282 61 154 q 65 365 61 324 q 158 635 83 535 q 339 735 232 735 q 489 660 431 735 q 513 713 501 697 q 551 729 525 729 l 560 729 q 587 722 579 729 q 594 700 594 715 q 590 659 593 685 q 585 606 588 633 l 578 546 l 536 160 q 571 92 531 92 q 592 95 581 92 q 611 99 604 99 q 622 90 618 99 q 625 67 625 81 q 571 -4 625 8 q 546 -61 554 -32 q 538 -112 538 -90 q 607 -172 538 -172 q 638 -167 618 -172 q 663 -162 657 -162 m 457 510 q 468 579 460 535 q 421 618 446 603 q 357 633 396 633 q 239 565 279 633 q 185 371 199 496 q 179 281 179 313 q 201 144 179 196 q 275 92 224 92 q 362 135 319 92 q 432 275 404 179 l 457 510 z "},"å":{"ha":668,"x_min":61,"x_max":625,"o":"m 242 -10 q 105 72 149 -10 q 61 282 61 154 q 65 365 61 324 q 158 635 83 535 q 339 735 232 735 q 489 660 431 735 q 513 713 501 697 q 551 729 525 729 l 560 729 q 587 722 579 729 q 594 700 594 715 q 590 659 593 685 q 585 606 588 633 l 578 546 l 536 160 q 571 92 531 92 q 592 95 581 92 q 611 99 604 99 q 622 90 618 99 q 625 67 625 81 q 535 -8 625 -8 q 456 19 490 -8 q 418 115 421 46 q 242 -10 354 -10 m 275 92 q 362 135 319 92 q 432 275 404 179 l 457 510 q 468 579 460 535 q 421 618 446 603 q 357 633 396 633 q 239 565 279 633 q 185 371 199 496 q 179 281 179 313 q 201 144 179 196 q 275 92 224 92 m 365 783 q 290 810 318 783 q 261 883 261 838 q 298 981 261 943 q 390 1018 335 1018 q 467 990 439 1018 q 496 915 496 963 q 458 820 496 857 q 365 783 421 783 m 369 832 q 423 853 403 832 q 443 911 443 874 q 428 954 443 939 q 385 969 413 969 q 332 948 351 969 q 313 889 313 926 q 327 847 313 861 q 369 832 342 832 z "},"ǻ":{"ha":668,"x_min":61,"x_max":625,"o":"m 242 -10 q 105 72 149 -10 q 61 282 61 154 q 65 365 61 324 q 158 635 83 535 q 339 735 232 735 q 489 660 431 735 q 513 713 501 697 q 551 729 525 729 l 560 729 q 587 722 579 729 q 594 700 594 715 q 590 659 593 685 q 585 606 588 633 l 578 546 l 536 160 q 571 92 531 92 q 592 95 581 92 q 611 99 604 99 q 622 90 618 99 q 625 67 625 81 q 535 -8 625 -8 q 456 19 490 -8 q 418 115 421 46 q 242 -10 354 -10 m 275 92 q 362 135 319 92 q 432 275 404 179 l 457 510 q 468 579 460 535 q 421 618 446 603 q 357 633 396 633 q 239 565 279 633 q 185 371 199 496 q 179 281 179 313 q 201 144 179 196 q 275 92 224 92 m 365 783 q 290 810 318 783 q 261 883 261 838 q 298 981 261 943 q 390 1018 335 1018 q 467 990 439 1018 q 496 915 496 963 q 458 820 496 857 q 365 783 421 783 m 369 832 q 423 853 403 832 q 443 911 443 874 q 428 954 443 939 q 385 969 413 969 q 332 948 351 969 q 313 889 313 926 q 327 847 313 861 q 369 832 342 832 m 388 1076 q 358 1090 358 1076 q 376 1138 358 1100 q 426 1244 393 1175 q 504 1281 443 1281 q 549 1276 535 1281 q 563 1263 563 1272 q 550 1236 563 1254 q 513 1182 538 1218 l 454 1101 q 388 1076 438 1076 z "},"ã":{"ha":668,"x_min":61,"x_max":625,"o":"m 242 -10 q 105 72 149 -10 q 61 282 61 154 q 65 365 61 324 q 158 635 83 535 q 339 735 232 735 q 489 660 431 735 q 513 713 501 697 q 551 729 525 729 l 560 729 q 587 722 579 729 q 594 700 594 715 q 590 659 593 685 q 585 606 588 633 l 578 546 l 536 160 q 571 92 531 92 q 592 95 581 92 q 611 99 604 99 q 622 90 618 99 q 625 67 625 81 q 535 -8 625 -8 q 456 19 490 -8 q 418 115 421 46 q 242 -10 354 -10 m 275 92 q 362 135 319 92 q 432 275 404 179 l 457 510 q 468 579 460 535 q 421 618 446 603 q 357 633 396 633 q 239 565 279 633 q 185 371 199 496 q 179 281 179 313 q 201 144 179 196 q 275 92 224 92 m 172 828 q 158 844 158 833 q 163 863 158 853 q 210 936 183 914 q 278 958 238 958 q 319 951 299 958 q 374 929 339 944 q 454 903 429 903 q 481 910 469 903 q 507 939 493 918 q 533 960 518 960 q 549 956 540 960 l 558 951 q 572 944 568 947 q 575 935 575 940 q 569 915 575 926 q 522 842 549 864 q 456 821 494 821 q 410 828 433 821 q 354 851 386 836 q 312 869 333 861 q 275 876 290 876 q 250 868 261 876 q 225 839 239 860 q 201 819 214 819 q 186 822 197 819 l 172 828 z "},"æ":{"ha":922,"x_min":24,"x_max":889,"o":"m 210 -8 q 77 42 131 -8 q 24 181 24 92 q 25 208 24 199 q 133 395 39 344 q 382 451 226 446 q 418 561 393 510 q 321 635 406 635 q 238 624 274 635 q 175 600 203 613 q 143 588 147 588 q 116 613 129 588 q 103 653 103 638 q 136 690 103 671 q 223 722 169 710 q 332 735 276 735 q 499 674 444 735 q 679 735 575 735 q 836 667 783 735 q 889 467 889 599 q 883 381 889 442 q 863 346 882 368 q 832 324 844 324 l 488 324 q 486 282 486 310 q 519 138 486 183 q 626 92 551 92 q 710 106 676 92 q 768 135 744 119 q 796 150 792 150 q 824 124 810 150 q 838 82 838 97 q 806 44 838 65 q 724 7 775 22 q 618 -8 674 -8 q 414 74 475 -8 q 322 13 374 35 q 210 -8 269 -8 m 765 424 q 768 481 768 465 q 665 635 768 635 q 499 424 531 635 l 765 424 m 233 101 q 375 161 315 101 q 361 276 361 208 q 365 350 361 313 q 207 313 268 346 q 146 190 146 279 q 168 124 146 147 q 233 101 190 101 z "},"ǽ":{"ha":922,"x_min":24,"x_max":889,"o":"m 210 -8 q 77 42 131 -8 q 24 181 24 92 q 25 208 24 199 q 133 395 39 344 q 382 451 226 446 q 418 561 393 510 q 321 635 406 635 q 238 624 274 635 q 175 600 203 613 q 143 588 147 588 q 116 613 129 588 q 103 653 103 638 q 136 690 103 671 q 223 722 169 710 q 332 735 276 735 q 499 674 444 735 q 679 735 575 735 q 836 667 783 735 q 889 467 889 599 q 883 381 889 442 q 863 346 882 368 q 832 324 844 324 l 488 324 q 486 282 486 310 q 519 138 486 183 q 626 92 551 92 q 710 106 676 92 q 768 135 744 119 q 796 150 792 150 q 824 124 810 150 q 838 82 838 97 q 806 44 838 65 q 724 7 775 22 q 618 -8 674 -8 q 414 74 475 -8 q 322 13 374 35 q 210 -8 269 -8 m 765 424 q 768 481 768 465 q 665 635 768 635 q 499 424 531 635 l 765 424 m 233 101 q 375 161 315 101 q 361 276 361 208 q 365 350 361 313 q 207 313 268 346 q 146 190 146 279 q 168 124 146 147 q 233 101 190 101 m 482 813 q 453 826 453 813 q 470 874 453 836 q 521 981 488 911 q 599 1017 538 1017 q 643 1013 629 1017 q 657 999 657 1008 q 644 972 657 990 q 607 918 632 954 l 549 838 q 482 813 532 813 z "},"b":{"ha":669,"x_min":60,"x_max":600,"o":"m 338 -8 q 249 18 289 -8 q 182 96 210 44 l 160 14 q 115 -3 150 -3 l 107 -3 q 64 28 60 -3 l 168 1014 q 224 1044 171 1044 l 239 1044 q 288 1014 290 1044 l 250 664 q 320 717 285 699 q 404 735 356 735 q 547 660 494 735 q 600 447 600 585 q 596 368 600 410 q 549 172 585 257 q 458 39 513 86 q 338 -8 403 -8 m 319 93 q 418 165 379 93 q 471 369 457 238 q 475 451 475 414 q 365 632 475 632 q 240 569 294 632 l 200 189 q 253 118 222 143 q 319 93 285 93 z "},"c":{"ha":567,"x_min":58,"x_max":560,"o":"m 317 -8 q 122 59 186 -8 q 58 275 58 126 q 64 367 58 300 q 169 653 85 571 q 390 735 254 735 q 507 715 454 735 q 557 671 560 696 q 537 625 556 654 q 507 596 518 596 q 492 601 506 596 q 383 635 438 635 q 253 573 300 635 q 190 369 206 511 q 185 281 185 306 q 219 137 185 182 q 329 92 253 92 q 449 122 393 92 q 459 128 454 125 q 468 133 464 132 q 495 106 482 133 q 506 63 508 79 q 473 31 504 47 q 397 3 442 14 q 317 -8 353 -8 z "},"ć":{"ha":567,"x_min":58,"x_max":557,"o":"m 317 -8 q 122 59 186 -8 q 58 275 58 126 q 64 367 58 300 q 169 653 85 571 q 390 735 254 735 q 507 715 454 735 q 557 671 560 696 q 537 625 556 654 q 507 596 518 596 q 492 601 506 596 q 383 635 438 635 q 253 573 300 635 q 190 369 206 511 q 185 281 185 306 q 219 137 185 182 q 329 92 253 92 q 449 122 393 92 q 459 128 454 125 q 468 133 464 132 q 495 106 482 133 q 506 63 508 79 q 473 31 504 47 q 397 3 442 14 q 317 -8 353 -8 m 347 813 q 318 826 318 813 q 335 874 318 836 q 386 981 353 911 q 464 1017 403 1017 q 508 1013 494 1017 q 522 999 522 1008 q 510 972 522 990 q 472 918 497 954 l 414 838 q 347 813 397 813 z "},"č":{"ha":567,"x_min":58,"x_max":557,"o":"m 317 -8 q 122 59 186 -8 q 58 275 58 126 q 64 367 58 300 q 169 653 85 571 q 390 735 254 735 q 507 715 454 735 q 557 671 560 696 q 537 625 556 654 q 507 596 518 596 q 492 601 506 596 q 383 635 438 635 q 253 573 300 635 q 190 369 206 511 q 185 281 185 306 q 219 137 185 182 q 329 92 253 92 q 449 122 393 92 q 459 128 454 125 q 468 133 464 132 q 495 106 482 133 q 506 63 508 79 q 473 31 504 47 q 397 3 442 14 q 317 -8 353 -8 m 368 810 q 313 840 329 810 l 253 963 q 246 988 246 981 q 255 1001 247 996 q 275 1007 263 1007 l 301 1007 q 335 986 322 1007 l 386 886 l 458 986 q 496 1007 474 1007 l 524 1007 q 542 1001 536 1007 q 547 986 549 996 q 536 963 547 979 l 449 840 q 389 810 428 810 l 368 810 z "},"ç":{"ha":567,"x_min":58,"x_max":560,"o":"m 390 735 q 507 715 454 735 q 557 671 560 696 q 537 625 556 654 q 507 596 518 596 q 492 601 506 596 q 383 635 438 635 q 253 573 300 635 q 190 369 206 511 q 185 281 185 306 q 219 137 185 182 q 329 92 253 92 q 449 122 393 92 q 459 128 454 125 q 468 133 464 132 q 495 106 482 133 q 506 63 508 79 q 447 19 504 42 q 332 -8 390 -4 l 311 -83 q 381 -103 349 -83 q 414 -176 414 -124 q 281 -292 414 -292 q 193 -275 236 -292 q 150 -232 150 -258 q 158 -208 150 -219 q 176 -196 167 -196 q 208 -206 186 -196 q 272 -224 244 -224 q 307 -213 292 -224 q 322 -183 322 -203 q 310 -153 322 -162 q 276 -136 299 -143 q 253 -125 261 -131 q 246 -110 246 -119 q 252 -78 246 -100 q 275 -7 258 -56 q 112 72 165 4 q 58 274 58 139 q 64 367 58 322 q 169 653 85 571 q 390 735 254 735 z "},"ĉ":{"ha":567,"x_min":58,"x_max":557,"o":"m 317 -8 q 122 59 186 -8 q 58 275 58 126 q 64 367 58 300 q 169 653 85 571 q 390 735 254 735 q 507 715 454 735 q 557 671 560 696 q 537 625 556 654 q 507 596 518 596 q 492 601 506 596 q 383 635 438 635 q 253 573 300 635 q 190 369 206 511 q 185 281 185 306 q 219 137 185 182 q 329 92 253 92 q 449 122 393 92 q 459 128 454 125 q 468 133 464 132 q 495 106 482 133 q 506 63 508 79 q 473 31 504 47 q 397 3 442 14 q 317 -8 353 -8 m 250 800 q 231 805 238 800 q 225 818 225 810 q 231 832 226 824 q 238 844 236 840 l 324 967 q 385 997 346 997 l 406 997 q 460 967 442 997 l 521 844 q 528 821 528 831 q 519 806 526 811 q 499 800 511 800 l 471 800 q 439 819 450 800 l 386 921 l 315 819 q 276 800 299 800 l 250 800 z "},"ċ":{"ha":567,"x_min":58,"x_max":557,"o":"m 317 -8 q 122 59 186 -8 q 58 275 58 126 q 64 367 58 300 q 169 653 85 571 q 390 735 254 735 q 507 715 454 735 q 557 671 560 696 q 537 625 556 654 q 507 596 518 596 q 492 601 506 596 q 383 635 438 635 q 253 573 300 635 q 190 369 206 511 q 185 281 185 306 q 219 137 185 182 q 329 92 253 92 q 449 122 393 92 q 459 128 454 125 q 468 133 464 132 q 495 106 482 133 q 506 63 508 79 q 473 31 504 47 q 397 3 442 14 q 317 -8 353 -8 m 379 843 q 322 874 318 843 l 329 944 q 396 975 332 975 q 454 944 457 975 l 447 874 q 379 843 443 843 z "},"d":{"ha":668,"x_min":60,"x_max":631,"o":"m 242 -8 q 108 71 156 -8 q 60 283 60 150 q 64 367 60 324 q 154 638 82 540 q 331 735 226 735 q 412 717 379 735 q 471 664 444 699 l 508 1014 q 563 1044 511 1044 l 578 1044 q 628 1014 631 1044 l 539 171 q 544 108 536 125 q 572 92 553 92 q 594 95 582 92 q 613 99 606 99 q 626 69 626 99 q 618 28 626 44 q 587 1 610 10 q 536 -8 564 -8 q 461 15 494 -8 q 421 100 428 39 q 338 19 385 46 q 242 -8 292 -8 m 282 93 q 353 118 317 93 q 421 189 389 143 l 461 569 q 351 632 419 632 q 188 368 215 632 q 182 281 182 304 q 207 142 182 190 q 282 93 232 93 z "},"ð":{"ha":663,"x_min":61,"x_max":614,"o":"m 614 888 q 590 869 611 872 l 506 858 q 601 454 601 651 q 597 361 601 410 q 294 -8 558 -8 q 122 67 183 -8 q 61 283 61 142 q 65 360 61 321 q 158 635 85 540 q 356 731 231 731 q 447 713 411 731 q 394 843 433 768 l 274 826 q 250 841 260 826 q 242 871 240 856 q 265 889 243 885 l 367 903 q 345 942 354 924 q 338 969 336 960 q 361 989 340 985 q 400 992 381 992 q 433 975 421 992 q 474 917 458 942 q 583 932 576 932 q 607 916 600 932 q 614 888 614 900 m 475 363 q 481 447 481 424 q 358 631 481 631 q 244 565 285 631 q 188 363 203 500 q 182 274 182 299 q 211 136 182 181 q 301 92 240 92 q 418 158 375 92 q 475 363 461 224 z "},"ď":{"ha":668,"x_min":60,"x_max":826,"o":"m 242 -8 q 108 71 156 -8 q 60 283 60 150 q 64 367 60 324 q 154 638 82 540 q 331 735 226 735 q 412 717 379 735 q 471 664 444 699 l 508 1014 q 563 1044 511 1044 l 578 1044 q 628 1014 631 1044 l 539 171 q 544 108 536 125 q 572 92 553 92 q 594 95 582 92 q 613 99 606 99 q 626 69 626 99 q 618 28 626 44 q 587 1 610 10 q 536 -8 564 -8 q 461 15 494 -8 q 421 100 428 39 q 338 19 385 46 q 242 -8 292 -8 m 282 93 q 353 118 317 93 q 421 189 389 143 l 461 569 q 351 632 419 632 q 188 368 215 632 q 182 281 182 304 q 207 142 182 190 q 282 93 232 93 m 725 731 q 697 735 710 731 q 685 751 685 740 q 690 790 685 760 q 703 928 703 860 q 717 960 703 949 q 758 972 731 972 l 771 972 q 812 962 797 972 q 826 933 826 951 q 809 828 826 875 q 767 756 792 782 q 725 731 743 731 z "},"đ":{"ha":668,"x_min":60,"x_max":728,"o":"m 703 928 q 722 918 717 928 q 725 886 728 908 l 724 872 q 714 840 721 850 q 693 831 707 831 l 608 831 q 539 171 564 414 q 544 108 536 125 q 572 92 553 92 q 594 95 582 92 q 613 99 606 99 q 626 69 626 99 q 618 28 626 44 q 587 1 610 10 q 536 -8 564 -8 q 461 15 494 -8 q 421 100 428 39 q 338 19 385 46 q 242 -8 292 -8 q 108 71 156 -8 q 60 283 60 150 q 64 367 60 324 q 154 638 82 540 q 331 735 226 735 q 412 717 379 735 q 471 664 444 699 l 489 831 l 417 831 q 394 872 390 831 l 396 886 q 426 928 400 928 l 499 928 l 508 1014 q 563 1044 511 1044 l 578 1044 q 628 1014 631 1044 l 619 928 l 703 928 m 461 569 q 351 632 419 632 q 188 368 215 632 q 182 281 182 304 q 207 142 182 190 q 282 93 232 93 q 353 118 317 93 q 421 189 389 143 l 461 569 z "},"ḍ":{"ha":668,"x_min":60,"x_max":628,"o":"m 242 -8 q 108 71 156 -8 q 60 283 60 150 q 64 367 60 324 q 154 638 82 540 q 331 735 226 735 q 412 717 379 735 q 471 664 444 699 l 508 1014 q 563 1044 511 1044 l 578 1044 q 628 1014 631 1044 l 539 171 q 544 108 536 125 q 572 92 553 92 q 594 95 582 92 q 613 99 606 99 q 626 69 626 99 q 618 28 626 44 q 587 1 610 10 q 536 -8 564 -8 q 461 15 494 -8 q 421 100 428 39 q 338 19 385 46 q 242 -8 292 -8 m 282 93 q 353 118 317 93 q 421 189 389 143 l 461 569 q 351 632 419 632 q 188 368 215 632 q 182 281 182 304 q 207 142 182 190 q 282 93 232 93 m 361 -243 q 304 -212 300 -243 l 311 -142 q 378 -111 314 -111 q 436 -142 439 -111 l 429 -212 q 361 -243 425 -243 z "},"ǳ":{"ha":1231,"x_min":60,"x_max":1215,"o":"m 242 -8 q 108 71 156 -8 q 60 283 60 150 q 64 367 60 324 q 154 638 82 540 q 331 735 226 735 q 412 717 379 735 q 471 664 444 699 l 508 1014 q 563 1044 511 1044 l 578 1044 q 628 1014 631 1044 l 539 171 q 544 108 536 125 q 572 92 553 92 q 594 95 582 92 q 613 99 606 99 q 626 69 626 99 q 618 28 626 44 q 587 1 610 10 q 536 -8 564 -8 q 461 15 494 -8 q 421 100 428 39 q 338 19 385 46 q 242 -8 292 -8 m 282 93 q 353 118 317 93 q 421 189 389 143 l 461 569 q 351 632 419 632 q 188 368 215 632 q 182 281 182 304 q 207 142 182 190 q 282 93 232 93 m 711 0 q 695 25 703 0 q 690 71 688 50 q 694 86 690 74 l 1065 626 l 796 626 q 774 668 769 626 l 775 685 q 785 717 778 707 q 806 726 792 726 l 1197 726 q 1212 700 1206 726 q 1215 654 1218 674 l 1211 640 l 842 100 l 1133 100 q 1156 58 1160 100 l 1154 42 q 1144 10 1151 19 q 1124 0 1138 0 l 711 0 z "},"ǆ":{"ha":1231,"x_min":60,"x_max":1215,"o":"m 242 -8 q 108 71 156 -8 q 60 283 60 150 q 64 367 60 324 q 154 638 82 540 q 331 735 226 735 q 412 717 379 735 q 471 664 444 699 l 508 1014 q 563 1044 511 1044 l 578 1044 q 628 1014 631 1044 l 539 171 q 544 108 536 125 q 572 92 553 92 q 594 95 582 92 q 613 99 606 99 q 626 69 626 99 q 618 28 626 44 q 587 1 610 10 q 536 -8 564 -8 q 461 15 494 -8 q 421 100 428 39 q 338 19 385 46 q 242 -8 292 -8 m 282 93 q 353 118 317 93 q 421 189 389 143 l 461 569 q 351 632 419 632 q 188 368 215 632 q 182 281 182 304 q 207 142 182 190 q 282 93 232 93 m 711 0 q 695 25 703 0 q 690 71 688 50 q 694 86 690 74 l 1065 626 l 796 626 q 774 668 769 626 l 775 685 q 785 717 778 707 q 806 726 792 726 l 1197 726 q 1212 700 1206 726 q 1215 654 1218 674 l 1211 640 l 842 100 l 1133 100 q 1156 58 1160 100 l 1154 42 q 1144 10 1151 19 q 1124 0 1138 0 l 711 0 m 996 810 q 940 840 957 810 l 881 963 q 874 988 874 981 q 883 1001 875 996 q 903 1007 890 1007 l 929 1007 q 963 986 950 1007 l 1014 886 l 1086 986 q 1124 1007 1101 1007 l 1151 1007 q 1170 1001 1164 1007 q 1175 986 1176 996 q 1164 963 1175 979 l 1076 840 q 1017 810 1056 810 l 996 810 z "},"e":{"ha":631,"x_min":67,"x_max":592,"o":"m 515 160 q 529 151 524 160 q 535 131 535 143 q 511 58 535 86 q 427 9 482 26 q 329 -8 372 -8 q 67 269 67 -8 q 103 506 67 401 q 213 673 139 611 q 397 735 288 735 q 510 705 467 735 q 573 633 554 675 q 592 550 592 590 q 506 361 592 426 q 281 296 419 296 q 188 304 235 296 l 188 292 q 224 137 185 182 q 339 92 263 92 q 416 106 385 92 q 485 143 447 119 q 515 160 508 160 m 385 635 q 253 569 299 635 q 194 396 208 504 l 268 396 q 413 430 353 396 q 472 540 472 464 q 449 608 472 581 q 385 635 425 635 z "},"é":{"ha":631,"x_min":67,"x_max":592,"o":"m 515 160 q 529 151 524 160 q 535 131 535 143 q 511 58 535 86 q 427 9 482 26 q 329 -8 372 -8 q 67 269 67 -8 q 103 506 67 401 q 213 673 139 611 q 397 735 288 735 q 510 705 467 735 q 573 633 554 675 q 592 550 592 590 q 506 361 592 426 q 281 296 419 296 q 188 304 235 296 l 188 292 q 224 137 185 182 q 339 92 263 92 q 416 106 385 92 q 485 143 447 119 q 515 160 508 160 m 385 635 q 253 569 299 635 q 194 396 208 504 l 268 396 q 413 430 353 396 q 472 540 472 464 q 449 608 472 581 q 385 635 425 635 m 358 813 q 329 826 329 813 q 347 874 329 836 q 397 981 364 911 q 475 1017 414 1017 q 519 1013 506 1017 q 533 999 533 1008 q 521 972 533 990 q 483 918 508 954 l 425 838 q 358 813 408 813 z "},"ĕ":{"ha":631,"x_min":67,"x_max":592,"o":"m 515 160 q 529 151 524 160 q 535 131 535 143 q 511 58 535 86 q 427 9 482 26 q 329 -8 372 -8 q 67 269 67 -8 q 103 506 67 401 q 213 673 139 611 q 397 735 288 735 q 510 705 467 735 q 573 633 554 675 q 592 550 592 590 q 506 361 592 426 q 281 296 419 296 q 188 304 235 296 l 188 292 q 224 137 185 182 q 339 92 263 92 q 416 106 385 92 q 485 143 447 119 q 515 160 508 160 m 385 635 q 253 569 299 635 q 194 396 208 504 l 268 396 q 413 430 353 396 q 472 540 472 464 q 449 608 472 581 q 385 635 425 635 m 390 813 q 285 849 326 813 q 243 950 243 885 q 244 972 243 965 q 272 993 247 993 q 286 988 282 993 q 293 973 290 982 q 297 958 296 964 q 400 904 313 904 q 514 958 488 904 q 522 974 517 963 q 532 989 526 985 q 546 993 538 993 q 568 972 571 993 q 509 854 560 896 q 390 813 458 813 z "},"ě":{"ha":631,"x_min":67,"x_max":592,"o":"m 515 160 q 529 151 524 160 q 535 131 535 143 q 511 58 535 86 q 427 9 482 26 q 329 -8 372 -8 q 67 269 67 -8 q 103 506 67 401 q 213 673 139 611 q 397 735 288 735 q 510 705 467 735 q 573 633 554 675 q 592 550 592 590 q 506 361 592 426 q 281 296 419 296 q 188 304 235 296 l 188 292 q 224 137 185 182 q 339 92 263 92 q 416 106 385 92 q 485 143 447 119 q 515 160 508 160 m 385 635 q 253 569 299 635 q 194 396 208 504 l 268 396 q 413 430 353 396 q 472 540 472 464 q 449 608 472 581 q 385 635 425 635 m 379 810 q 324 840 340 810 l 264 963 q 257 988 257 981 q 266 1001 258 996 q 286 1007 274 1007 l 313 1007 q 346 986 333 1007 l 397 886 l 469 986 q 507 1007 485 1007 l 535 1007 q 553 1001 547 1007 q 558 986 560 996 q 547 963 558 979 l 460 840 q 400 810 439 810 l 379 810 z "},"ê":{"ha":631,"x_min":67,"x_max":592,"o":"m 515 160 q 529 151 524 160 q 535 131 535 143 q 511 58 535 86 q 427 9 482 26 q 329 -8 372 -8 q 67 269 67 -8 q 103 506 67 401 q 213 673 139 611 q 397 735 288 735 q 510 705 467 735 q 573 633 554 675 q 592 550 592 590 q 506 361 592 426 q 281 296 419 296 q 188 304 235 296 l 188 292 q 224 137 185 182 q 339 92 263 92 q 416 106 385 92 q 485 143 447 119 q 515 160 508 160 m 385 635 q 253 569 299 635 q 194 396 208 504 l 268 396 q 413 430 353 396 q 472 540 472 464 q 449 608 472 581 q 385 635 425 635 m 261 800 q 242 805 249 800 q 236 818 236 810 q 242 832 238 824 q 249 844 247 840 l 335 967 q 396 997 357 997 l 417 997 q 471 967 453 997 l 532 844 q 539 821 539 831 q 530 806 538 811 q 510 800 522 800 l 482 800 q 450 819 461 800 l 397 921 l 326 819 q 288 800 310 800 l 261 800 z "},"ế":{"ha":631,"x_min":67,"x_max":703,"o":"m 644 1207 q 689 1203 675 1207 q 703 1189 703 1199 q 690 1163 703 1181 q 653 1108 678 1144 l 594 1028 q 528 1003 578 1003 q 499 1017 499 1003 q 516 1064 499 1026 q 567 1171 533 1101 q 644 1207 583 1207 m 271 800 q 252 805 258 800 q 246 818 246 810 q 251 832 247 825 q 256 844 254 839 l 336 967 q 397 997 357 997 l 419 997 q 474 967 457 997 l 525 844 q 533 821 533 832 q 524 806 532 811 q 504 800 517 800 l 476 800 q 457 805 467 800 q 443 818 447 810 l 399 921 l 335 818 q 319 803 328 807 q 297 800 310 800 l 271 800 m 188 292 q 224 137 185 182 q 339 92 263 92 q 416 106 385 92 q 485 143 447 119 q 515 160 508 160 q 529 151 524 160 q 535 131 535 143 q 511 58 535 86 q 427 9 482 26 q 329 -8 372 -8 q 67 269 67 -8 q 103 506 67 401 q 213 673 139 611 q 397 735 288 735 q 510 705 467 735 q 573 633 554 675 q 592 550 592 590 q 506 361 592 426 q 281 296 419 296 q 188 304 235 296 l 188 292 m 385 635 q 253 569 299 635 q 194 396 208 504 l 268 396 q 413 430 353 396 q 472 540 472 464 q 449 608 472 581 q 385 635 425 635 z "},"ệ":{"ha":631,"x_min":67,"x_max":592,"o":"m 515 160 q 529 151 524 160 q 535 131 535 143 q 511 58 535 86 q 427 9 482 26 q 329 -8 372 -8 q 67 269 67 -8 q 103 506 67 401 q 213 673 139 611 q 397 735 288 735 q 510 705 467 735 q 573 633 554 675 q 592 550 592 590 q 506 361 592 426 q 281 296 419 296 q 188 304 235 296 l 188 292 q 224 137 185 182 q 339 92 263 92 q 416 106 385 92 q 485 143 447 119 q 515 160 508 160 m 385 635 q 253 569 299 635 q 194 396 208 504 l 268 396 q 413 430 353 396 q 472 540 472 464 q 449 608 472 581 q 385 635 425 635 m 311 -243 q 254 -212 250 -243 l 261 -142 q 328 -111 264 -111 q 386 -142 389 -111 l 379 -212 q 311 -243 375 -243 m 261 800 q 242 805 249 800 q 236 818 236 810 q 242 832 238 824 q 249 844 247 840 l 335 967 q 396 997 357 997 l 417 997 q 471 967 453 997 l 532 844 q 539 821 539 831 q 530 806 538 811 q 510 800 522 800 l 482 800 q 450 819 461 800 l 397 921 l 326 819 q 288 800 310 800 l 261 800 z "},"ề":{"ha":631,"x_min":67,"x_max":603,"o":"m 564 1113 q 592 1049 582 1072 q 603 1017 603 1025 q 597 1006 603 1010 q 574 1003 590 1003 q 508 1028 525 1003 q 415 1155 431 1132 q 399 1189 399 1178 q 413 1203 399 1199 q 457 1207 426 1207 q 536 1171 517 1207 l 564 1113 m 271 800 q 252 805 258 800 q 246 818 246 810 q 251 832 247 825 q 256 844 254 839 l 336 967 q 397 997 357 997 l 419 997 q 474 967 457 997 l 525 844 q 533 821 533 832 q 524 806 532 811 q 504 800 517 800 l 476 800 q 457 805 467 800 q 443 818 447 810 l 399 921 l 335 818 q 319 803 328 807 q 297 800 310 800 l 271 800 m 188 292 q 224 137 185 182 q 339 92 263 92 q 416 106 385 92 q 485 143 447 119 q 515 160 508 160 q 529 151 524 160 q 535 131 535 143 q 511 58 535 86 q 427 9 482 26 q 329 -8 372 -8 q 67 269 67 -8 q 103 506 67 401 q 213 673 139 611 q 397 735 288 735 q 510 705 467 735 q 573 633 554 675 q 592 550 592 590 q 506 361 592 426 q 281 296 419 296 q 188 304 235 296 l 188 292 m 385 635 q 253 569 299 635 q 194 396 208 504 l 268 396 q 413 430 353 396 q 472 540 472 464 q 449 608 472 581 q 385 635 425 635 z "},"ể":{"ha":631,"x_min":67,"x_max":685,"o":"m 558 1232 q 644 1208 604 1232 q 685 1133 685 1185 q 659 1056 685 1092 q 601 996 633 1019 q 558 972 569 972 q 530 980 547 972 q 513 996 513 988 q 520 1017 513 1008 q 547 1042 528 1025 q 585 1079 571 1061 q 599 1124 599 1097 q 584 1151 599 1142 q 547 1161 569 1161 q 502 1152 517 1161 q 483 1143 488 1143 q 463 1160 475 1143 q 450 1189 450 1178 q 486 1217 450 1203 q 558 1232 522 1232 m 271 800 q 252 805 258 800 q 246 818 246 810 q 251 832 247 825 q 256 844 254 839 l 336 967 q 397 997 357 997 l 419 997 q 474 967 457 997 l 525 844 q 533 821 533 832 q 524 806 532 811 q 504 800 517 800 l 476 800 q 457 805 467 800 q 443 818 447 810 l 399 921 l 335 818 q 319 803 328 807 q 297 800 310 800 l 271 800 m 188 292 q 224 137 185 182 q 339 92 263 92 q 416 106 385 92 q 485 143 447 119 q 515 160 508 160 q 529 151 524 160 q 535 131 535 143 q 511 58 535 86 q 427 9 482 26 q 329 -8 372 -8 q 67 269 67 -8 q 103 506 67 401 q 213 673 139 611 q 397 735 288 735 q 510 705 467 735 q 573 633 554 675 q 592 550 592 590 q 506 361 592 426 q 281 296 419 296 q 188 304 235 296 l 188 292 m 385 635 q 253 569 299 635 q 194 396 208 504 l 268 396 q 413 430 353 396 q 472 540 472 464 q 449 608 472 581 q 385 635 425 635 z "},"ễ":{"ha":631,"x_min":67,"x_max":606,"o":"m 590 1183 q 601 1176 597 1181 q 606 1167 606 1172 q 600 1147 606 1158 q 557 1075 582 1097 q 497 1053 532 1053 q 455 1060 476 1053 q 404 1083 433 1068 q 365 1101 385 1093 q 332 1108 346 1108 q 309 1100 319 1108 q 288 1071 299 1092 q 265 1051 276 1051 q 251 1054 263 1051 l 239 1060 q 226 1076 226 1067 q 231 1094 226 1085 q 274 1168 249 1146 q 335 1190 299 1190 q 373 1183 353 1190 q 424 1161 393 1175 q 496 1135 474 1135 q 521 1143 510 1135 q 543 1171 532 1151 q 568 1192 554 1192 q 582 1188 574 1192 l 590 1183 m 261 800 q 242 805 249 800 q 236 818 236 810 q 242 832 238 824 q 249 844 247 840 l 335 967 q 396 997 357 997 l 417 997 q 471 967 453 997 l 532 844 q 539 821 539 831 q 530 806 538 811 q 510 800 522 800 l 482 800 q 450 819 461 800 l 397 921 l 326 819 q 288 800 310 800 l 261 800 m 188 292 q 224 137 185 182 q 339 92 263 92 q 416 106 385 92 q 485 143 447 119 q 515 160 508 160 q 529 151 524 160 q 535 131 535 143 q 511 58 535 86 q 427 9 482 26 q 329 -8 372 -8 q 67 269 67 -8 q 103 506 67 401 q 213 673 139 611 q 397 735 288 735 q 510 705 467 735 q 573 633 554 675 q 592 550 592 590 q 506 361 592 426 q 281 296 419 296 q 188 304 235 296 l 188 292 m 385 635 q 253 569 299 635 q 194 396 208 504 l 268 396 q 413 430 353 396 q 472 540 472 464 q 449 608 472 581 q 385 635 425 635 z "},"ë":{"ha":631,"x_min":67,"x_max":592,"o":"m 515 160 q 529 151 524 160 q 535 131 535 143 q 511 58 535 86 q 427 9 482 26 q 329 -8 372 -8 q 67 269 67 -8 q 103 506 67 401 q 213 673 139 611 q 397 735 288 735 q 510 705 467 735 q 573 633 554 675 q 592 550 592 590 q 506 361 592 426 q 281 296 419 296 q 188 304 235 296 l 188 292 q 224 137 185 182 q 339 92 263 92 q 416 106 385 92 q 485 143 447 119 q 515 160 508 160 m 385 635 q 253 569 299 635 q 194 396 208 504 l 268 396 q 413 430 353 396 q 472 540 472 464 q 449 608 472 581 q 385 635 425 635 m 303 843 q 254 874 250 843 l 261 944 q 319 975 264 975 q 369 944 372 975 l 363 874 q 303 843 358 843 m 478 843 q 429 874 425 843 l 436 944 q 494 975 439 975 q 544 944 547 975 l 538 874 q 478 843 533 843 z "},"ė":{"ha":631,"x_min":67,"x_max":592,"o":"m 515 160 q 529 151 524 160 q 535 131 535 143 q 511 58 535 86 q 427 9 482 26 q 329 -8 372 -8 q 67 269 67 -8 q 103 506 67 401 q 213 673 139 611 q 397 735 288 735 q 510 705 467 735 q 573 633 554 675 q 592 550 592 590 q 506 361 592 426 q 281 296 419 296 q 188 304 235 296 l 188 292 q 224 137 185 182 q 339 92 263 92 q 416 106 385 92 q 485 143 447 119 q 515 160 508 160 m 385 635 q 253 569 299 635 q 194 396 208 504 l 268 396 q 413 430 353 396 q 472 540 472 464 q 449 608 472 581 q 385 635 425 635 m 390 843 q 333 874 329 843 l 340 944 q 407 975 343 975 q 465 944 468 975 l 458 874 q 390 843 454 843 z "},"ẹ":{"ha":631,"x_min":67,"x_max":592,"o":"m 515 160 q 529 151 524 160 q 535 131 535 143 q 511 58 535 86 q 427 9 482 26 q 329 -8 372 -8 q 67 269 67 -8 q 103 506 67 401 q 213 673 139 611 q 397 735 288 735 q 510 705 467 735 q 573 633 554 675 q 592 550 592 590 q 506 361 592 426 q 281 296 419 296 q 188 304 235 296 l 188 292 q 224 137 185 182 q 339 92 263 92 q 416 106 385 92 q 485 143 447 119 q 515 160 508 160 m 385 635 q 253 569 299 635 q 194 396 208 504 l 268 396 q 413 430 353 396 q 472 540 472 464 q 449 608 472 581 q 385 635 425 635 m 311 -243 q 254 -212 250 -243 l 261 -142 q 328 -111 264 -111 q 386 -142 389 -111 l 379 -212 q 311 -243 375 -243 z "},"è":{"ha":631,"x_min":67,"x_max":592,"o":"m 515 160 q 529 151 524 160 q 535 131 535 143 q 511 58 535 86 q 427 9 482 26 q 329 -8 372 -8 q 67 269 67 -8 q 103 506 67 401 q 213 673 139 611 q 397 735 288 735 q 510 705 467 735 q 573 633 554 675 q 592 550 592 590 q 506 361 592 426 q 281 296 419 296 q 188 304 235 296 l 188 292 q 224 137 185 182 q 339 92 263 92 q 416 106 385 92 q 485 143 447 119 q 515 160 508 160 m 385 635 q 253 569 299 635 q 194 396 208 504 l 268 396 q 413 430 353 396 q 472 540 472 464 q 449 608 472 581 q 385 635 425 635 m 404 813 q 339 838 356 813 q 245 965 261 942 q 229 999 229 988 q 243 1013 229 1008 q 288 1017 257 1017 q 367 981 347 1017 l 394 922 q 423 858 413 882 q 433 826 433 835 q 427 816 433 819 q 404 813 421 813 z "},"ẻ":{"ha":631,"x_min":67,"x_max":592,"o":"m 515 160 q 529 151 524 160 q 535 131 535 143 q 511 58 535 86 q 427 9 482 26 q 329 -8 372 -8 q 67 269 67 -8 q 103 506 67 401 q 213 673 139 611 q 397 735 288 735 q 510 705 467 735 q 573 633 554 675 q 592 550 592 590 q 506 361 592 426 q 281 296 419 296 q 188 304 235 296 l 188 292 q 224 137 185 182 q 339 92 263 92 q 416 106 385 92 q 485 143 447 119 q 515 160 508 160 m 385 635 q 253 569 299 635 q 194 396 208 504 l 268 396 q 413 430 353 396 q 472 540 472 464 q 449 608 472 581 q 385 635 425 635 m 389 782 q 360 790 378 782 q 343 806 343 797 q 351 826 343 818 q 378 851 358 835 q 415 889 401 871 q 429 933 429 907 q 415 961 429 951 q 378 971 400 971 q 333 962 347 971 q 314 953 318 953 q 293 970 306 953 q 281 999 281 988 q 317 1027 281 1013 q 389 1042 353 1042 q 475 1018 435 1042 q 515 943 515 994 q 490 865 515 901 q 432 806 464 829 q 389 782 400 782 z "},"ē":{"ha":631,"x_min":67,"x_max":592,"o":"m 515 160 q 529 151 524 160 q 535 131 535 143 q 511 58 535 86 q 427 9 482 26 q 329 -8 372 -8 q 67 269 67 -8 q 103 506 67 401 q 213 673 139 611 q 397 735 288 735 q 510 705 467 735 q 573 633 554 675 q 592 550 592 590 q 506 361 592 426 q 281 296 419 296 q 188 304 235 296 l 188 292 q 224 137 185 182 q 339 92 263 92 q 416 106 385 92 q 485 143 447 119 q 515 160 508 160 m 385 635 q 253 569 299 635 q 194 396 208 504 l 268 396 q 413 430 353 396 q 472 540 472 464 q 449 608 472 581 q 385 635 425 635 m 254 850 q 232 892 228 850 l 233 906 q 264 947 238 947 l 540 947 q 560 938 554 947 q 563 906 565 928 l 561 892 q 551 860 558 869 q 531 850 544 850 l 254 850 z "},"ę":{"ha":631,"x_min":67,"x_max":622,"o":"m 594 -107 q 622 -140 622 -107 q 604 -178 622 -165 q 513 -204 565 -204 q 411 -165 438 -204 q 385 -82 385 -125 q 401 1 385 -42 q 329 -8 363 -8 q 67 269 67 -8 q 103 506 67 401 q 213 673 139 611 q 397 735 288 735 q 510 705 467 735 q 573 633 554 675 q 592 550 592 590 q 506 361 592 426 q 281 296 419 296 q 188 304 235 296 l 188 292 q 224 137 185 182 q 339 92 263 92 q 416 106 385 92 q 485 143 447 119 q 515 160 508 160 q 529 151 524 160 q 535 131 535 143 q 511 58 535 86 l 501 49 q 478 -8 486 21 q 469 -57 469 -36 q 539 -117 469 -117 q 569 -112 550 -117 q 594 -107 589 -107 m 385 635 q 253 569 299 635 q 194 396 208 504 l 268 396 q 413 430 353 396 q 472 540 472 464 q 449 608 472 581 q 385 635 425 635 z "},"ẽ":{"ha":631,"x_min":67,"x_max":593,"o":"m 515 160 q 529 151 524 160 q 535 131 535 143 q 511 58 535 86 q 427 9 482 26 q 329 -8 372 -8 q 67 269 67 -8 q 103 506 67 401 q 213 673 139 611 q 397 735 288 735 q 510 705 467 735 q 573 633 554 675 q 592 550 592 590 q 506 361 592 426 q 281 296 419 296 q 188 304 235 296 l 188 292 q 224 137 185 182 q 339 92 263 92 q 416 106 385 92 q 485 143 447 119 q 515 160 508 160 m 385 635 q 253 569 299 635 q 194 396 208 504 l 268 396 q 413 430 353 396 q 472 540 472 464 q 449 608 472 581 q 385 635 425 635 m 190 828 q 176 844 176 833 q 181 863 176 853 q 228 936 201 914 q 296 958 256 958 q 337 951 317 958 q 392 929 357 944 q 472 903 447 903 q 499 910 488 903 q 525 939 511 918 q 551 960 536 960 q 567 956 558 960 l 576 951 q 590 944 586 947 q 593 935 593 940 q 588 915 593 926 q 540 842 567 864 q 474 821 513 821 q 428 828 451 821 q 372 851 404 836 q 330 869 351 861 q 293 876 308 876 q 268 868 279 876 q 243 839 257 860 q 219 819 232 819 q 204 822 215 819 l 190 828 z "},"ə":{"ha":631,"x_min":39,"x_max":564,"o":"m 301 735 q 564 457 564 735 q 528 220 564 325 q 417 53 492 115 q 233 -8 343 -8 q 120 22 164 -8 q 58 94 76 51 q 39 176 39 136 q 125 365 39 300 q 350 431 211 431 q 443 422 396 431 l 443 435 q 407 590 446 544 q 292 635 368 635 q 215 621 246 635 q 146 583 183 607 q 115 567 122 567 q 101 575 107 567 q 96 596 96 583 q 119 668 96 640 q 203 717 149 700 q 301 735 258 735 m 246 92 q 377 157 332 92 q 436 331 422 222 l 363 331 q 218 297 278 331 q 158 186 158 263 q 182 119 158 146 q 246 92 206 92 z "},"f":{"ha":397,"x_min":90,"x_max":453,"o":"m 146 -3 q 93 28 90 -3 l 157 626 l 117 626 q 97 636 103 626 q 93 668 90 646 l 94 685 q 126 726 99 726 l 167 726 l 182 874 q 246 1013 193 975 q 360 1050 299 1050 q 424 1039 396 1050 q 451 1007 453 1028 q 439 967 450 992 q 414 942 428 942 q 397 946 410 942 q 364 950 383 950 q 320 933 336 950 q 299 863 304 915 l 283 726 l 376 726 q 397 717 390 726 q 400 685 403 707 l 399 668 q 367 626 394 626 l 274 626 l 210 28 q 151 -3 207 -3 l 146 -3 z "},"g":{"ha":654,"x_min":42,"x_max":594,"o":"m 560 729 q 587 722 579 729 q 594 700 594 715 l 532 114 q 480 -127 517 -37 q 385 -256 443 -217 q 243 -294 328 -294 q 111 -267 164 -294 q 44 -210 58 -240 q 42 -190 42 -201 q 48 -151 42 -169 q 65 -133 54 -133 q 95 -151 69 -133 q 156 -181 121 -168 q 236 -194 190 -194 q 356 -129 315 -194 q 414 93 397 -64 l 417 114 q 243 0 351 0 q 106 80 150 0 q 61 283 61 160 q 65 365 61 324 q 158 635 83 536 q 342 735 232 735 q 489 660 431 735 q 513 713 501 697 q 551 729 525 729 l 560 729 m 457 510 q 468 579 460 535 q 420 618 446 603 q 358 633 394 633 q 239 565 279 633 q 185 371 199 496 q 179 281 179 310 q 278 101 179 101 q 361 142 318 101 q 432 275 404 182 l 457 510 z "},"ğ":{"ha":654,"x_min":42,"x_max":594,"o":"m 560 729 q 587 722 579 729 q 594 700 594 715 l 532 114 q 480 -127 517 -37 q 385 -256 443 -217 q 243 -294 328 -294 q 111 -267 164 -294 q 44 -210 58 -240 q 42 -190 42 -201 q 48 -151 42 -169 q 65 -133 54 -133 q 95 -151 69 -133 q 156 -181 121 -168 q 236 -194 190 -194 q 356 -129 315 -194 q 414 93 397 -64 l 417 114 q 243 0 351 0 q 106 80 150 0 q 61 283 61 160 q 65 365 61 324 q 158 635 83 536 q 342 735 232 735 q 489 660 431 735 q 513 713 501 697 q 551 729 525 729 l 560 729 m 457 510 q 468 579 460 535 q 420 618 446 603 q 358 633 394 633 q 239 565 279 633 q 185 371 199 496 q 179 281 179 310 q 278 101 179 101 q 361 142 318 101 q 432 275 404 182 l 457 510 m 358 813 q 253 849 294 813 q 211 950 211 885 q 213 972 211 965 q 240 993 215 993 q 254 988 250 993 q 261 973 258 982 q 265 958 264 964 q 368 904 281 904 q 482 958 456 904 q 490 974 485 963 q 500 989 494 985 q 514 993 506 993 q 536 972 539 993 q 477 854 528 896 q 358 813 426 813 z "},"ĝ":{"ha":654,"x_min":42,"x_max":594,"o":"m 560 729 q 587 722 579 729 q 594 700 594 715 l 532 114 q 480 -127 517 -37 q 385 -256 443 -217 q 243 -294 328 -294 q 111 -267 164 -294 q 44 -210 58 -240 q 42 -190 42 -201 q 48 -151 42 -169 q 65 -133 54 -133 q 95 -151 69 -133 q 156 -181 121 -168 q 236 -194 190 -194 q 356 -129 315 -194 q 414 93 397 -64 l 417 114 q 243 0 351 0 q 106 80 150 0 q 61 283 61 160 q 65 365 61 324 q 158 635 83 536 q 342 735 232 735 q 489 660 431 735 q 513 713 501 697 q 551 729 525 729 l 560 729 m 457 510 q 468 579 460 535 q 420 618 446 603 q 358 633 394 633 q 239 565 279 633 q 185 371 199 496 q 179 281 179 310 q 278 101 179 101 q 361 142 318 101 q 432 275 404 182 l 457 510 m 229 800 q 210 805 217 800 q 204 818 204 810 q 210 832 206 824 q 217 844 215 840 l 303 967 q 364 997 325 997 l 385 997 q 439 967 421 997 l 500 844 q 507 821 507 831 q 498 806 506 811 q 478 800 490 800 l 450 800 q 418 819 429 800 l 365 921 l 294 819 q 256 800 278 800 l 229 800 z "},"ģ":{"ha":654,"x_min":42,"x_max":594,"o":"m 560 729 q 587 722 579 729 q 594 700 594 715 l 532 114 q 480 -127 517 -37 q 385 -256 443 -217 q 243 -294 328 -294 q 111 -267 164 -294 q 44 -210 58 -240 q 42 -190 42 -201 q 48 -151 42 -169 q 65 -133 54 -133 q 95 -151 69 -133 q 156 -181 121 -168 q 236 -194 190 -194 q 356 -129 315 -194 q 414 93 397 -64 l 417 114 q 243 0 351 0 q 106 80 150 0 q 61 283 61 160 q 65 365 61 324 q 158 635 83 536 q 342 735 232 735 q 489 660 431 735 q 513 713 501 697 q 551 729 525 729 l 560 729 m 457 510 q 468 579 460 535 q 420 618 446 603 q 358 633 394 633 q 239 565 279 633 q 185 371 199 496 q 179 281 179 310 q 278 101 179 101 q 361 142 318 101 q 432 275 404 182 l 457 510 m 418 1068 q 445 1063 433 1068 q 457 1047 457 1058 q 452 1024 457 1039 q 446 1004 447 1010 q 424 935 432 968 q 417 857 417 901 q 403 824 417 836 q 364 813 390 813 l 350 813 q 314 823 326 813 q 301 851 301 833 q 322 963 301 914 q 369 1040 342 1013 q 418 1068 397 1068 z "},"ġ":{"ha":654,"x_min":42,"x_max":594,"o":"m 560 729 q 587 722 579 729 q 594 700 594 715 l 532 114 q 480 -127 517 -37 q 385 -256 443 -217 q 243 -294 328 -294 q 111 -267 164 -294 q 44 -210 58 -240 q 42 -190 42 -201 q 48 -151 42 -169 q 65 -133 54 -133 q 95 -151 69 -133 q 156 -181 121 -168 q 236 -194 190 -194 q 356 -129 315 -194 q 414 93 397 -64 l 417 114 q 243 0 351 0 q 106 80 150 0 q 61 283 61 160 q 65 365 61 324 q 158 635 83 536 q 342 735 232 735 q 489 660 431 735 q 513 713 501 697 q 551 729 525 729 l 560 729 m 457 510 q 468 579 460 535 q 420 618 446 603 q 358 633 394 633 q 239 565 279 633 q 185 371 199 496 q 179 281 179 310 q 278 101 179 101 q 361 142 318 101 q 432 275 404 182 l 457 510 m 358 843 q 301 874 297 843 l 308 944 q 375 975 311 975 q 433 944 436 975 l 426 874 q 358 843 422 843 z "},"h":{"ha":674,"x_min":56,"x_max":626,"o":"m 536 -4 q 455 25 490 -4 q 419 128 419 54 q 429 249 419 146 l 457 507 q 458 533 458 517 q 372 633 458 633 q 285 601 325 633 q 232 536 246 568 l 179 28 q 122 -3 175 -3 l 108 -3 q 60 28 56 -3 l 163 1014 q 219 1044 167 1044 l 235 1044 q 282 1014 286 1044 l 243 642 q 323 710 276 685 q 422 735 369 735 q 536 691 492 735 q 581 558 581 647 q 578 518 581 546 q 555 302 569 439 q 540 150 540 165 q 572 96 539 96 q 594 99 582 96 q 613 103 606 103 q 626 74 626 103 q 536 -4 626 -4 z "},"ħ":{"ha":674,"x_min":56,"x_max":626,"o":"m 613 103 q 626 74 626 103 q 536 -4 626 -4 q 455 25 490 -4 q 419 128 419 54 q 429 249 419 146 l 457 507 q 458 533 458 517 q 372 633 458 633 q 285 601 325 633 q 232 536 246 568 l 179 28 q 122 -3 175 -3 l 108 -3 q 60 28 56 -3 l 143 831 l 92 831 q 69 872 65 831 l 71 886 q 101 928 75 928 l 154 928 l 163 1014 q 219 1044 167 1044 l 235 1044 q 282 1014 286 1044 l 274 928 l 378 928 q 397 918 392 928 q 400 886 403 908 l 399 872 q 389 840 396 850 q 368 831 382 831 l 263 831 l 243 642 q 323 710 276 685 q 422 735 369 735 q 536 691 492 735 q 581 558 581 647 q 578 518 581 546 q 555 302 569 439 q 540 150 540 165 q 572 96 539 96 q 594 99 582 96 q 613 103 606 103 z "},"ĥ":{"ha":674,"x_min":60,"x_max":626,"o":"m 536 -4 q 455 25 490 -4 q 419 128 419 54 q 429 249 419 146 l 457 507 q 458 533 458 517 q 372 633 458 633 q 285 601 325 633 q 232 536 246 568 l 179 28 q 122 -3 175 -3 l 108 -3 q 60 28 56 -3 l 163 1014 q 219 1044 167 1044 l 235 1044 q 282 1014 286 1044 l 243 642 q 323 710 276 685 q 422 735 369 735 q 536 691 492 735 q 581 558 581 647 q 578 518 581 546 q 555 302 569 439 q 540 150 540 165 q 572 96 539 96 q 594 99 582 96 q 613 103 606 103 q 626 74 626 103 q 536 -4 626 -4 m 104 1088 q 85 1092 92 1088 q 79 1106 79 1097 q 85 1119 81 1111 q 92 1132 90 1128 l 178 1254 q 239 1285 200 1285 l 260 1285 q 314 1254 296 1285 l 375 1132 q 382 1108 382 1118 q 373 1093 381 1099 q 353 1088 365 1088 l 325 1088 q 293 1107 304 1088 l 240 1208 l 169 1107 q 131 1088 153 1088 l 104 1088 z "},"ḥ":{"ha":674,"x_min":60,"x_max":626,"o":"m 536 -4 q 455 25 490 -4 q 419 128 419 54 q 429 249 419 146 l 457 507 q 458 533 458 517 q 372 633 458 633 q 285 601 325 633 q 232 536 246 568 l 179 28 q 122 -3 175 -3 l 108 -3 q 60 28 56 -3 l 163 1014 q 219 1044 167 1044 l 235 1044 q 282 1014 286 1044 l 243 642 q 323 710 276 685 q 422 735 369 735 q 536 691 492 735 q 581 558 581 647 q 578 518 581 546 q 555 302 569 439 q 540 150 540 165 q 572 96 539 96 q 594 99 582 96 q 613 103 606 103 q 626 74 626 103 q 536 -4 626 -4 m 261 -243 q 204 -212 200 -243 l 211 -142 q 278 -111 214 -111 q 336 -142 339 -111 l 329 -212 q 261 -243 325 -243 z "},"i":{"ha":353,"x_min":85,"x_max":288,"o":"m 197 -4 q 117 21 150 -4 q 85 122 85 46 q 86 153 85 142 l 97 286 q 142 699 138 699 q 158 722 143 715 q 200 729 172 729 l 206 729 q 247 722 235 729 q 258 699 258 714 l 203 175 q 201 147 201 164 q 233 96 201 96 q 255 99 243 96 q 274 103 267 103 q 288 74 288 103 q 279 32 288 49 q 248 5 271 14 q 197 -4 225 -4 m 211 843 q 154 874 150 843 l 161 944 q 228 975 164 975 q 286 944 289 975 l 279 874 q 211 843 275 843 z "},"ı":{"ha":353,"x_min":85,"x_max":288,"o":"m 197 -4 q 117 21 150 -4 q 85 122 85 46 q 86 153 85 142 l 97 286 q 142 699 138 699 q 158 722 143 715 q 200 729 172 729 l 206 729 q 247 722 235 729 q 258 699 258 714 l 203 175 q 201 147 201 164 q 233 96 201 96 q 255 99 243 96 q 274 103 267 103 q 288 74 288 103 q 279 32 288 49 q 248 5 271 14 q 197 -4 225 -4 z "},"í":{"ha":353,"x_min":85,"x_max":357,"o":"m 197 -4 q 117 21 150 -4 q 85 122 85 46 q 86 153 85 142 l 97 286 q 142 699 138 699 q 158 722 143 715 q 200 729 172 729 l 206 729 q 247 722 235 729 q 258 699 258 714 l 203 175 q 201 147 201 164 q 233 96 201 96 q 255 99 243 96 q 274 103 267 103 q 288 74 288 103 q 279 32 288 49 q 248 5 271 14 q 197 -4 225 -4 m 182 813 q 153 826 153 813 q 170 874 153 836 q 221 981 188 911 q 299 1017 238 1017 q 343 1013 329 1017 q 357 999 357 1008 q 344 972 357 990 q 307 918 332 954 l 249 838 q 182 813 232 813 z "},"ĭ":{"ha":353,"x_min":67,"x_max":392,"o":"m 197 -4 q 117 21 150 -4 q 85 122 85 46 q 86 153 85 142 l 97 286 q 142 699 138 699 q 158 722 143 715 q 200 729 172 729 l 206 729 q 247 722 235 729 q 258 699 258 714 l 203 175 q 201 147 201 164 q 233 96 201 96 q 255 99 243 96 q 274 103 267 103 q 288 74 288 103 q 279 32 288 49 q 248 5 271 14 q 197 -4 225 -4 m 214 813 q 108 849 150 813 q 67 950 67 885 q 68 972 67 965 q 96 993 71 993 q 110 988 106 993 q 117 973 114 982 q 121 958 119 964 q 224 904 136 904 q 338 958 311 904 q 345 974 340 963 q 356 989 350 985 q 369 993 361 993 q 392 972 394 993 q 333 854 383 896 q 214 813 282 813 z "},"î":{"ha":353,"x_min":60,"x_max":363,"o":"m 197 -4 q 117 21 150 -4 q 85 122 85 46 q 86 153 85 142 l 97 286 q 142 699 138 699 q 158 722 143 715 q 200 729 172 729 l 206 729 q 247 722 235 729 q 258 699 258 714 l 203 175 q 201 147 201 164 q 233 96 201 96 q 255 99 243 96 q 274 103 267 103 q 288 74 288 103 q 279 32 288 49 q 248 5 271 14 q 197 -4 225 -4 m 85 800 q 66 805 72 800 q 60 818 60 810 q 66 832 61 824 q 72 844 71 840 l 158 967 q 219 997 181 997 l 240 997 q 294 967 276 997 l 356 844 q 363 821 363 831 q 353 806 361 811 q 333 800 346 800 l 306 800 q 274 819 285 800 l 221 921 l 150 819 q 111 800 133 800 l 85 800 z "},"ï":{"ha":353,"x_min":78,"x_max":368,"o":"m 197 -4 q 117 21 150 -4 q 85 122 85 46 q 86 153 85 142 l 97 286 q 142 699 138 699 q 158 722 143 715 q 200 729 172 729 l 206 729 q 247 722 235 729 q 258 699 258 714 l 203 175 q 201 147 201 164 q 233 96 201 96 q 255 99 243 96 q 274 103 267 103 q 288 74 288 103 q 279 32 288 49 q 248 5 271 14 q 197 -4 225 -4 m 126 843 q 78 874 74 843 l 85 944 q 143 975 88 975 q 193 944 196 975 l 186 874 q 126 843 182 843 m 301 843 q 253 874 249 843 l 260 944 q 318 975 263 975 q 368 944 371 975 l 361 874 q 301 843 357 843 z "},"ị":{"ha":353,"x_min":85,"x_max":288,"o":"m 197 -4 q 117 21 150 -4 q 85 122 85 46 q 86 153 85 142 l 97 286 q 142 699 138 699 q 158 722 143 715 q 200 729 172 729 l 206 729 q 247 722 235 729 q 258 699 258 714 l 203 175 q 201 147 201 164 q 233 96 201 96 q 255 99 243 96 q 274 103 267 103 q 288 74 288 103 q 279 32 288 49 q 248 5 271 14 q 197 -4 225 -4 m 211 843 q 154 874 150 843 l 161 944 q 228 975 164 975 q 286 944 289 975 l 279 874 q 211 843 275 843 m 150 -243 q 93 -212 89 -243 l 100 -142 q 167 -111 103 -111 q 225 -142 228 -111 l 218 -212 q 150 -243 214 -243 z "},"ì":{"ha":353,"x_min":53,"x_max":288,"o":"m 197 -4 q 117 21 150 -4 q 85 122 85 46 q 86 153 85 142 l 97 286 q 142 699 138 699 q 158 722 143 715 q 200 729 172 729 l 206 729 q 247 722 235 729 q 258 699 258 714 l 203 175 q 201 147 201 164 q 233 96 201 96 q 255 99 243 96 q 274 103 267 103 q 288 74 288 103 q 279 32 288 49 q 248 5 271 14 q 197 -4 225 -4 m 228 813 q 163 838 179 813 q 69 965 85 942 q 53 999 53 988 q 67 1013 53 1008 q 111 1017 81 1017 q 190 981 171 1017 l 218 922 q 247 858 236 882 q 257 826 257 835 q 251 816 257 819 q 228 813 244 813 z "},"ỉ":{"ha":353,"x_min":85,"x_max":339,"o":"m 197 -4 q 117 21 150 -4 q 85 122 85 46 q 86 153 85 142 l 97 286 q 142 699 138 699 q 158 722 143 715 q 200 729 172 729 l 206 729 q 247 722 235 729 q 258 699 258 714 l 203 175 q 201 147 201 164 q 233 96 201 96 q 255 99 243 96 q 274 103 267 103 q 288 74 288 103 q 279 32 288 49 q 248 5 271 14 q 197 -4 225 -4 m 213 782 q 184 790 201 782 q 167 806 167 797 q 174 826 167 818 q 201 851 182 835 q 239 889 225 871 q 253 933 253 907 q 238 961 253 951 q 201 971 224 971 q 156 962 171 971 q 138 953 142 953 q 117 970 129 953 q 104 999 104 988 q 140 1027 104 1013 q 213 1042 176 1042 q 299 1018 258 1042 q 339 943 339 994 q 313 865 339 901 q 256 806 288 829 q 213 782 224 782 z "},"ĳ":{"ha":699,"x_min":85,"x_max":642,"o":"m 197 -4 q 117 21 150 -4 q 85 122 85 46 q 86 153 85 142 l 97 286 q 142 699 138 699 q 158 722 143 715 q 200 729 172 729 l 206 729 q 247 722 235 729 q 258 699 258 714 l 203 175 q 201 147 201 164 q 233 96 201 96 q 255 99 243 96 q 274 103 267 103 q 288 74 288 103 q 279 32 288 49 q 248 5 271 14 q 197 -4 225 -4 m 211 843 q 154 874 150 843 l 161 944 q 228 975 164 975 q 286 944 289 975 l 279 874 q 211 843 275 843 m 358 -294 q 265 -253 263 -294 q 278 -212 267 -237 q 301 -187 289 -187 q 318 -191 307 -187 q 351 -194 329 -194 q 414 -100 404 -194 l 497 699 q 557 729 501 729 l 563 729 q 614 699 618 729 l 529 -111 q 467 -254 518 -214 q 358 -294 417 -294 m 567 843 q 510 874 506 843 l 517 944 q 583 975 519 975 q 642 944 644 975 l 635 874 q 567 843 631 843 z "},"ī":{"ha":353,"x_min":56,"x_max":386,"o":"m 197 -4 q 117 21 150 -4 q 85 122 85 46 q 86 153 85 142 l 97 286 q 142 699 138 699 q 158 722 143 715 q 200 729 172 729 l 206 729 q 247 722 235 729 q 258 699 258 714 l 203 175 q 201 147 201 164 q 233 96 201 96 q 255 99 243 96 q 274 103 267 103 q 288 74 288 103 q 279 32 288 49 q 248 5 271 14 q 197 -4 225 -4 m 78 850 q 56 892 51 850 l 57 906 q 88 947 61 947 l 364 947 q 383 938 378 947 q 386 906 389 928 l 385 892 q 375 860 382 869 q 354 850 368 850 l 78 850 z "},"į":{"ha":353,"x_min":85,"x_max":376,"o":"m 211 843 q 154 874 150 843 l 161 944 q 228 975 164 975 q 286 944 289 975 l 279 874 q 211 843 275 843 m 349 -149 q 376 -182 376 -149 q 358 -219 376 -207 q 267 -246 319 -246 q 165 -206 192 -246 q 139 -124 139 -167 q 147 -66 139 -99 q 172 -3 156 -33 q 85 121 85 8 q 86 153 85 142 l 97 286 q 142 699 138 699 q 158 722 143 715 q 200 729 172 729 l 206 729 q 247 722 235 729 q 258 699 258 714 l 203 175 q 201 147 201 164 q 233 96 201 96 q 255 99 243 96 q 274 103 267 103 q 288 74 288 103 q 279 32 288 49 q 257 10 274 19 q 232 -47 240 -18 q 224 -99 224 -76 q 293 -158 224 -158 q 324 -153 304 -158 q 349 -149 343 -149 z "},"ĩ":{"ha":353,"x_min":21,"x_max":396,"o":"m 33 828 q 21 844 21 833 q 24 863 21 856 q 67 936 42 914 q 128 958 92 958 q 167 951 146 958 q 215 928 188 943 q 253 910 233 918 q 286 903 272 903 q 312 910 301 903 q 333 939 322 918 q 358 960 344 960 q 371 956 365 960 l 381 951 q 392 944 388 949 q 396 935 396 940 q 390 915 396 926 q 347 842 372 864 q 288 821 322 821 q 197 851 256 821 q 158 869 178 861 q 125 876 139 876 q 102 868 113 876 q 81 839 92 860 q 58 819 69 819 q 46 822 54 819 l 33 828 m 197 -4 q 117 21 150 -4 q 85 122 85 46 q 86 153 85 142 l 97 286 q 142 699 138 699 q 158 722 143 715 q 200 729 172 729 l 206 729 q 247 722 235 729 q 258 699 258 714 l 203 175 q 201 147 201 164 q 233 96 201 96 q 255 99 243 96 q 274 103 267 103 q 288 74 288 103 q 279 32 288 49 q 248 5 271 14 q 197 -4 225 -4 z "},"j":{"ha":346,"x_min":-87,"x_max":289,"o":"m 6 -294 q -87 -253 -90 -294 q -75 -212 -86 -237 q -51 -187 -64 -187 q -35 -191 -46 -187 q -1 -194 -24 -194 q 61 -100 51 -194 l 144 699 q 204 729 149 729 l 210 729 q 261 699 265 729 l 176 -111 q 115 -254 165 -214 q 6 -294 64 -294 m 214 843 q 157 874 153 843 l 164 944 q 231 975 167 975 q 289 944 292 975 l 282 874 q 214 843 278 843 z "},"ȷ":{"ha":346,"x_min":-90,"x_max":265,"o":"m 6 -294 q -87 -253 -90 -294 q -75 -212 -86 -237 q -51 -187 -64 -187 q -35 -191 -46 -187 q -1 -194 -24 -194 q 61 -100 51 -194 l 144 699 q 204 729 149 729 l 210 729 q 261 699 265 729 l 176 -111 q 115 -254 165 -214 q 6 -294 64 -294 z "},"ĵ":{"ha":346,"x_min":-87,"x_max":365,"o":"m 6 -294 q -87 -253 -90 -294 q -75 -212 -86 -237 q -51 -187 -64 -187 q -35 -191 -46 -187 q -1 -194 -24 -194 q 61 -100 51 -194 l 144 699 q 204 729 149 729 l 210 729 q 261 699 265 729 l 176 -111 q 115 -254 165 -214 q 6 -294 64 -294 m 88 800 q 69 805 75 800 q 63 818 63 810 q 69 832 64 824 q 75 844 74 840 l 161 967 q 222 997 183 997 l 243 997 q 297 967 279 997 l 358 844 q 365 821 365 831 q 356 806 364 811 q 336 800 349 800 l 308 800 q 276 819 288 800 l 224 921 l 153 819 q 114 800 136 800 l 88 800 z "},"k":{"ha":628,"x_min":90,"x_max":629,"o":"m 585 729 q 618 724 607 729 q 628 711 629 719 q 614 682 628 700 l 381 368 l 560 39 q 567 17 567 25 q 552 1 565 6 q 510 -3 539 -3 l 475 -3 q 445 0 453 -3 q 431 15 438 3 l 258 358 l 250 358 l 214 28 q 158 -3 210 -3 l 143 -3 q 94 28 90 -3 l 197 1014 q 254 1044 201 1044 l 269 1044 q 317 1014 321 1044 l 251 393 l 258 393 l 493 710 q 556 729 508 729 l 585 729 z "},"ķ":{"ha":628,"x_min":94,"x_max":628,"o":"m 585 729 q 618 724 607 729 q 628 711 629 719 q 614 682 628 700 l 381 368 l 560 39 q 567 17 567 25 q 552 1 565 6 q 510 -3 539 -3 l 475 -3 q 445 0 453 -3 q 431 15 438 3 l 258 358 l 250 358 l 214 28 q 158 -3 210 -3 l 143 -3 q 94 28 90 -3 l 197 1014 q 254 1044 201 1044 l 269 1044 q 317 1014 321 1044 l 251 393 l 258 393 l 493 710 q 556 729 508 729 l 585 729 m 242 -326 q 215 -322 226 -326 q 203 -306 203 -317 q 208 -283 203 -297 q 214 -262 213 -268 q 235 -193 228 -226 q 243 -115 243 -160 q 256 -83 243 -94 q 296 -71 269 -71 l 310 -71 q 346 -81 333 -71 q 358 -110 358 -92 q 338 -222 358 -172 q 290 -299 318 -271 q 242 -326 263 -326 z "},"ĸ":{"ha":743,"x_min":85,"x_max":685,"o":"m 219 731 q 260 723 249 731 q 272 700 272 715 l 240 393 l 246 393 l 557 710 q 632 729 575 729 l 638 729 q 672 724 660 729 q 685 713 685 719 q 668 683 685 700 l 365 378 l 644 39 q 654 19 654 25 q 641 2 654 7 q 592 -3 628 -3 l 586 -3 q 539 1 557 -3 q 513 15 521 4 l 240 344 l 235 344 l 201 28 q 143 -3 197 -3 l 138 -3 q 97 5 108 -3 q 85 28 85 13 l 156 700 q 214 731 158 731 l 219 731 z "},"l":{"ha":375,"x_min":88,"x_max":308,"o":"m 218 -8 q 127 22 167 -8 q 88 129 88 51 q 89 160 88 149 l 179 1014 q 238 1044 182 1044 l 243 1044 q 296 1014 299 1044 l 207 171 q 206 149 206 163 q 250 92 206 92 q 278 95 267 92 q 294 99 289 99 q 308 69 308 99 q 300 28 308 44 q 269 1 292 10 q 218 -8 246 -8 z "}}}
